<svg width="27" height="27" viewBox="0 0 27 27" fill="none" xmlns="http://www.w3.org/2000/svg">
<path d="M17.9649 13.4734C17.9649 13.4734 14.6572 17.9647 13.4736 17.9647C12.2901 17.9647 8.98242 13.4734 8.98242 13.4734M13.4736 17.4033V3.36816" stroke="white" stroke-width="1.68421" stroke-linecap="round" stroke-linejoin="round"/>
<path d="M19.0874 8.98242C21.5679 8.98242 23.5787 10.9932 23.5787 13.4736V16.2807C23.5787 18.902 23.5787 20.2126 23.0484 21.2048C22.6297 21.9882 21.988 22.6298 21.2046 23.0486C20.2125 23.5789 18.9018 23.5789 16.2804 23.5789H10.6669C8.04509 23.5789 6.73422 23.5789 5.74194 23.0484C4.95879 22.6297 4.31733 21.9883 3.89865 21.2052C3.36816 20.2129 3.36816 18.902 3.36816 16.2802V13.4725C3.36878 10.9935 5.37784 8.98383 7.85684 8.98242H7.85939" stroke="white" stroke-width="1.68421" stroke-linecap="round" stroke-linejoin="round"/>
</svg>
