<svg width="27" height="27" viewBox="0 0 27 27" fill="none" xmlns="http://www.w3.org/2000/svg">
<path d="M5.7754 15.7198C4.96079 14.3816 4.49219 12.8137 4.49219 11.1374C4.49219 6.22688 8.51377 2.24609 13.4746 2.24609C18.4355 2.24609 22.4571 6.22688 22.4571 11.1374C22.4571 12.8137 21.9886 14.3816 21.1738 15.7198" stroke="white" stroke-width="1.68421" stroke-linecap="round"/>
<path d="M15.7197 11.2285C15.032 11.9507 14.2726 12.3513 13.4741 12.3513C12.6757 12.3513 11.9162 11.9507 11.2285 11.2285" stroke="white" stroke-width="1.68421" stroke-linecap="round"/>
<path d="M8.28981 19.1979C8.18666 18.8873 8.13509 18.7321 8.1411 18.6063C8.15381 18.3402 8.32155 18.1065 8.56905 18.0103C8.68607 17.9648 8.84917 17.9648 9.17537 17.9648H17.7725C18.0988 17.9648 18.2618 17.9648 18.3788 18.0103C18.6264 18.1065 18.7942 18.3402 18.8068 18.6063C18.8128 18.7321 18.7613 18.8873 18.6581 19.1979C18.4674 19.7719 18.3721 20.059 18.2251 20.2913C17.9171 20.7781 17.4343 21.1275 16.8767 21.2668C16.6105 21.3333 16.309 21.3333 15.7062 21.3333H11.2417C10.6388 21.3333 10.3374 21.3333 10.0712 21.2668C9.51363 21.1275 9.0308 20.7781 8.7228 20.2913C8.57577 20.059 8.48045 19.7719 8.28981 19.1979Z" stroke="white" stroke-width="1.68421"/>
<path d="M16.8423 21.332L16.6971 22.058C16.5384 22.852 16.459 23.2489 16.281 23.5626C16.006 24.0475 15.5603 24.4129 15.0308 24.5875C14.6883 24.7005 14.2835 24.7005 13.4739 24.7005C12.6642 24.7005 12.2595 24.7005 11.917 24.5875C11.3875 24.4129 10.9418 24.0475 10.6667 23.5626C10.4888 23.2489 10.4094 22.852 10.2507 22.058L10.1055 21.332" stroke="white" stroke-width="1.68421"/>
<path d="M13.4746 17.4042V12.3516" stroke="white" stroke-width="1.68421" stroke-linecap="round" stroke-linejoin="round"/>
</svg>
