<svg width="27" height="27" viewBox="0 0 27 27" fill="none" xmlns="http://www.w3.org/2000/svg">
<path d="M13.4742 24.7022C19.6753 24.7022 24.7022 19.6753 24.7022 13.4742C24.7022 7.27307 19.6753 2.24609 13.4742 2.24609C7.27307 2.24609 2.24609 7.27307 2.24609 13.4742C2.24609 19.6753 7.27307 24.7022 13.4742 24.7022Z" stroke="white" stroke-width="1.68421" stroke-linecap="round" stroke-linejoin="round"/>
<path d="M3.36914 8.52359C10.106 10.4638 11.7902 5.61328 21.3341 5.61328" stroke="white" stroke-width="1.68421" stroke-linecap="round" stroke-linejoin="round"/>
<path d="M2.24609 13.4729C12.3514 13.4729 14.597 6.1731 20.211 5.61328" stroke="white" stroke-width="1.68421" stroke-linecap="round" stroke-linejoin="round"/>
<path d="M20.211 22.3204C14.2813 23.7403 7.23634 13.4727 2.24609 13.4727" stroke="white" stroke-width="1.68421" stroke-linecap="round" stroke-linejoin="round"/>
<path d="M4.49414 20.211C11.7924 20.211 16.4921 11.2285 23.5819 11.2285" stroke="white" stroke-width="1.68421" stroke-linecap="round" stroke-linejoin="round"/>
</svg>
