<svg width="27" height="27" viewBox="0 0 27 27" fill="none" xmlns="http://www.w3.org/2000/svg">
<path d="M16.8418 2.80664V4.49085C16.8418 6.07874 16.8418 6.87268 17.335 7.36598C17.8284 7.85927 18.6223 7.85927 20.2102 7.85927H21.8944" stroke="white" stroke-width="1.68421" stroke-linecap="round" stroke-linejoin="round"/>
<path d="M4.49121 17.9654V8.98294C4.49121 5.80715 4.49121 4.21927 5.4778 3.23268C6.46439 2.24609 8.05227 2.24609 11.2281 2.24609H15.912C16.3708 2.24609 16.6003 2.24609 16.8067 2.33156C17.013 2.41703 17.1753 2.5793 17.4998 2.90382L21.7984 7.2024C22.1229 7.52692 22.2852 7.68919 22.3707 7.89553C22.4561 8.10187 22.4561 8.33135 22.4561 8.7903V17.9654C22.4561 21.1411 22.4561 22.729 21.4695 23.7156C20.4829 24.7022 18.895 24.7022 15.7193 24.7022H11.2281C8.05227 24.7022 6.46439 24.7022 5.4778 23.7156C4.49121 22.729 4.49121 21.1411 4.49121 17.9654Z" stroke="white" stroke-width="1.68421" stroke-linecap="round" stroke-linejoin="round"/>
<path d="M8.98242 12.3506H17.9649M8.98242 15.719H17.9649M8.98242 19.0874H13.6654" stroke="white" stroke-width="1.68421" stroke-linecap="round" stroke-linejoin="round"/>
</svg>
