<svg width="27" height="27" viewBox="0 0 27 27" fill="none" xmlns="http://www.w3.org/2000/svg">
<path d="M10.1057 4.17986C5.60555 5.20099 2.24609 9.22554 2.24609 14.0347C2.24609 14.6086 2.29393 15.1712 2.38582 15.7189M8.98294 7.29787L10.1057 4.17986L6.73732 2.80664M21.4062 18.5259C22.0786 17.173 22.4566 15.648 22.4566 14.0347C22.4566 9.02756 18.8149 4.87098 14.0356 4.06917M19.6496 15.1575L21.4062 18.5259L24.7022 16.2803M3.94776 19.6487C5.76056 22.357 8.84773 24.14 12.3514 24.14C14.9395 24.14 17.3004 23.1669 19.0882 21.5668M3.94776 23.5786V19.6487H7.86013" stroke="white" stroke-width="1.68421" stroke-linecap="round" stroke-linejoin="round"/>
</svg>
