<svg width="27" height="27" viewBox="0 0 27 27" fill="none" xmlns="http://www.w3.org/2000/svg">
<path d="M3.36816 5.05237C3.36816 4.12221 4.12221 3.36816 5.05237 3.36816H7.29799C8.22816 3.36816 8.9822 4.12221 8.9822 5.05237V7.29799C8.9822 8.22816 8.22816 8.9822 7.29799 8.9822H5.05237C4.12221 8.9822 3.36816 8.22816 3.36816 7.29799V5.05237Z" stroke="white" stroke-width="1.68421"/>
<path d="M3.36816 19.6491C3.36816 18.7189 4.12221 17.9648 5.05237 17.9648H7.29799C8.22816 17.9648 8.9822 18.7189 8.9822 19.6491V21.8947C8.9822 22.8248 8.22816 23.5789 7.29799 23.5789H5.05237C4.12221 23.5789 3.36816 22.8248 3.36816 21.8947V19.6491Z" stroke="white" stroke-width="1.68421"/>
<path d="M8.98238 20.7723H23.5788M17.9648 6.17578H8.98238M18.328 8.61956L8.58789 18.3597" stroke="white" stroke-width="1.68421" stroke-linecap="round" stroke-linejoin="round"/>
<path d="M17.9648 5.05237C17.9648 4.12221 18.7189 3.36816 19.6491 3.36816H21.8947C22.8248 3.36816 23.5789 4.12221 23.5789 5.05237V7.29799C23.5789 8.22816 22.8248 8.9822 21.8947 8.9822H19.6491C18.7189 8.9822 17.9648 8.22816 17.9648 7.29799V5.05237Z" stroke="white" stroke-width="1.68421"/>
<path d="M20.2109 23.5789L21.7697 22.5164C22.9762 21.694 23.5794 21.2829 23.5794 20.7719C23.5794 20.2609 22.9762 19.8497 21.7697 19.0274L20.2109 17.9648" stroke="white" stroke-width="1.68421" stroke-linecap="round" stroke-linejoin="round"/>
</svg>
