<svg width="27" height="27" viewBox="0 0 27 27" fill="none" xmlns="http://www.w3.org/2000/svg">
<path d="M17.4036 11.7892C17.4036 9.61881 15.6442 7.85938 13.4738 7.85938C11.3034 7.85938 9.54395 9.61881 9.54395 11.7892C9.54395 13.9596 11.3034 15.719 13.4738 15.719C15.6442 15.719 17.4036 13.9596 17.4036 11.7892Z" stroke="white" stroke-width="1.68421" stroke-linecap="round" stroke-linejoin="round"/>
<path d="M24.7019 5.05311C24.7019 3.50284 23.4452 2.24609 21.8949 2.24609C20.3446 2.24609 19.0879 3.50284 19.0879 5.05311C19.0879 6.60338 20.3446 7.86013 21.8949 7.86013C23.4452 7.86013 24.7019 6.60338 24.7019 5.05311Z" stroke="white" stroke-width="1.68421" stroke-linecap="round" stroke-linejoin="round"/>
<path d="M15.7198 2.4707C14.9942 2.32341 14.2432 2.24609 13.4742 2.24609C7.27307 2.24609 2.24609 7.27307 2.24609 13.4742C2.24609 19.6752 7.27307 24.7022 13.4742 24.7022C19.6752 24.7022 24.7022 19.6752 24.7022 13.4742C24.7022 12.7052 24.6249 11.9541 24.4777 11.2285" stroke="white" stroke-width="1.68421" stroke-linecap="round" stroke-linejoin="round"/>
<path d="M20.211 22.4556C20.211 18.7349 17.1948 15.7188 13.4741 15.7188C9.75349 15.7188 6.7373 18.7349 6.7373 22.4556" stroke="white" stroke-width="1.68421" stroke-linecap="round" stroke-linejoin="round"/>
</svg>
