<svg width="27" height="27" viewBox="0 0 27 27" fill="none" xmlns="http://www.w3.org/2000/svg">
<path d="M17.505 19.9196C16.799 20.3926 14.9479 21.3583 16.0753 22.5667C16.6261 23.1569 17.2396 23.5791 18.0107 23.5791H20.211H22.4112C23.1824 23.5791 23.7959 23.1569 24.3466 22.5667C25.474 21.3583 23.623 20.3926 22.9169 19.9196C21.2614 18.8106 19.1606 18.8106 17.505 19.9196Z" stroke="white" stroke-width="1.68421"/>
<path d="M22.4561 14.0349C22.4561 15.2752 21.4507 16.2805 20.2105 16.2805C18.9702 16.2805 17.9648 15.2752 17.9648 14.0349C17.9648 12.7947 18.9702 11.7893 20.2105 11.7893C21.4507 11.7893 22.4561 12.7947 22.4561 14.0349Z" stroke="white" stroke-width="1.68421"/>
<path d="M11.2285 6.73659H16.8426M11.2285 3.36816H20.211" stroke="white" stroke-width="1.68421" stroke-linecap="round" stroke-linejoin="round"/>
<path d="M7.86013 10.666V15.7187C7.86013 16.7773 7.86013 17.3066 7.53127 17.6354C7.2024 17.9643 6.67311 17.9643 5.61451 17.9643H4.49171C3.43311 17.9643 2.90382 17.9643 2.57495 17.6354C2.24609 17.3066 2.24609 16.7773 2.24609 15.7187V12.9117C2.24609 11.8531 2.24609 11.3238 2.57495 10.9949C2.90382 10.666 3.43311 10.666 4.49171 10.666H7.86013ZM7.86013 10.666H13.4742" stroke="white" stroke-width="1.68421" stroke-linecap="round" stroke-linejoin="round"/>
<path d="M7.29787 5.61378C7.29787 6.854 6.29247 7.85939 5.05225 7.85939C3.81204 7.85939 2.80664 6.854 2.80664 5.61378C2.80664 4.37356 3.81204 3.36816 5.05225 3.36816C6.29247 3.36816 7.29787 4.37356 7.29787 5.61378Z" stroke="white" stroke-width="1.68421"/>
</svg>
