<svg width="27" height="27" viewBox="0 0 27 27" fill="none" xmlns="http://www.w3.org/2000/svg">
<path d="M15.7198 16.6327V10.3146C15.7198 6.78315 15.7198 5.01743 14.6808 4.578C13.6419 4.13857 12.4191 5.38713 9.97362 7.88424C8.70717 9.17741 7.9846 9.46377 6.1827 9.46377C4.60688 9.46377 3.81897 9.46377 3.25297 9.84994C2.07807 10.6515 2.25566 12.2184 2.25566 13.4737C2.25566 14.729 2.07807 16.2957 3.25297 17.0974C3.81897 17.4835 4.60688 17.4835 6.1827 17.4835C7.9846 17.4835 8.70717 17.77 9.97362 19.0631C12.4191 21.5602 13.6419 22.8088 14.6808 22.3693C15.7198 21.9299 15.7198 20.1641 15.7198 16.6327Z" stroke="white" stroke-width="1.68421" stroke-linecap="round" stroke-linejoin="round"/>
<path d="M19.0879 13.4736H24.7019" stroke="white" stroke-width="1.68421" stroke-linecap="round"/>
</svg>
