<svg width="27" height="27" viewBox="0 0 27 27" fill="none" xmlns="http://www.w3.org/2000/svg">
<path d="M22.4571 15.7198V11.9661C22.4571 11.0482 22.4571 10.5892 22.2862 10.1765C22.1152 9.76387 21.7907 9.43935 21.1416 8.7903L15.8234 3.47206C15.2633 2.91192 14.9832 2.63183 14.6362 2.46588C14.564 2.43136 14.4901 2.40073 14.4147 2.37411C14.0519 2.24609 13.6559 2.24609 12.8636 2.24609C9.22013 2.24609 7.39836 2.24609 6.16442 3.24098C5.91513 3.44197 5.68807 3.66904 5.48707 3.91832C4.49219 5.15227 4.49219 6.97403 4.49219 10.6176V15.7198C4.49219 19.9541 4.49219 22.0714 5.80763 23.3868C7.12309 24.7022 9.24027 24.7022 13.4746 24.7022M14.5975 2.8075V3.3689C14.5975 6.54468 14.5975 8.13257 15.5841 9.11915C16.5707 10.1057 18.1585 10.1057 21.3343 10.1057H21.8957" stroke="white" stroke-width="1.68421" stroke-linecap="round" stroke-linejoin="round"/>
<path d="M19.0886 24.7018C19.77 24.0396 22.4571 22.2769 22.4571 21.3334C22.4571 20.3899 19.77 18.6272 19.0886 17.965M21.3343 21.3334H13.4746" stroke="white" stroke-width="1.68421" stroke-linecap="round" stroke-linejoin="round"/>
</svg>
