<svg width="27" height="27" viewBox="0 0 27 27" fill="none" xmlns="http://www.w3.org/2000/svg">
<path d="M22.4571 7.85939C22.4571 10.3398 18.4355 12.3506 13.4746 12.3506C8.51377 12.3506 4.49219 10.3398 4.49219 7.85939C4.49219 5.37895 8.51377 3.36816 13.4746 3.36816C18.4355 3.36816 22.4571 5.37895 22.4571 7.85939Z" stroke="white" stroke-width="1.68421"/>
<path d="M20.21 15.719C20.21 17.5794 17.1938 19.0874 13.4732 19.0874C9.75251 19.0874 6.73633 17.5794 6.73633 15.719C6.73633 13.8586 9.75251 12.3506 13.4732 12.3506" stroke="white" stroke-width="1.68421" stroke-linecap="round"/>
<path d="M17.9649 21.3334C17.9649 22.5736 15.954 23.579 13.4736 23.579C10.9932 23.579 8.98242 22.5736 8.98242 21.3334C8.98242 20.0931 10.9932 19.0878 13.4736 19.0878" stroke="white" stroke-width="1.68421" stroke-linecap="round"/>
</svg>
