<svg width="27" height="27" viewBox="0 0 27 27" fill="none" xmlns="http://www.w3.org/2000/svg">
<path d="M13.4741 24.7022C14.7144 24.7022 15.7197 23.6968 15.7197 22.4566C15.7197 21.2163 14.7144 20.2109 13.4741 20.2109C12.2339 20.2109 11.2285 21.2163 11.2285 22.4566C11.2285 23.6968 12.2339 24.7022 13.4741 24.7022Z" stroke="white" stroke-width="1.68421" stroke-linecap="round" stroke-linejoin="round"/>
<path d="M13.4743 2.24609C10.0637 2.24609 7.29883 5.01093 7.29883 8.42153C7.29883 11.2483 9.19806 13.6314 11.7901 14.3646L13.4743 16.8426L15.1585 14.3646C17.7505 13.6314 19.6497 11.2483 19.6497 8.42153C19.6497 5.01093 16.8849 2.24609 13.4743 2.24609Z" stroke="white" stroke-width="1.68421" stroke-linecap="round" stroke-linejoin="round"/>
<path d="M13.4746 5.61426V8.42128L15.1588 9.54408" stroke="white" stroke-width="1.68421" stroke-linecap="round" stroke-linejoin="round"/>
<path d="M15.72 22.4562H23.5797M11.2288 22.4562H3.36914" stroke="white" stroke-width="1.68421" stroke-linecap="round" stroke-linejoin="round"/>
</svg>
