<svg width="32" height="32" viewBox="0 0 32 32" fill="none" xmlns="http://www.w3.org/2000/svg">
<path d="M22.5959 3.92981V13.7544M27.5082 8.84209H17.6836" stroke="#48484F" stroke-width="1.96491" stroke-linecap="round" stroke-linejoin="round"/>
<path d="M17.9329 25.4871C17.6836 24.8853 17.6836 24.1224 17.6836 22.5965C17.6836 21.0705 17.6836 20.3076 17.9329 19.7058C18.2652 18.9034 18.9028 18.2658 19.7052 17.9335C20.307 17.6842 21.0699 17.6842 22.5959 17.6842C24.1218 17.6842 24.8847 17.6842 25.4865 17.9335C26.289 18.2658 26.9265 18.9034 27.2589 19.7058C27.5082 20.3076 27.5082 21.0705 27.5082 22.5965C27.5082 24.1224 27.5082 24.8853 27.2589 25.4871C26.9265 26.2896 26.289 26.9272 25.4865 27.2595C24.8847 27.5088 24.1218 27.5088 22.5959 27.5088C21.0699 27.5088 20.307 27.5088 19.7052 27.2595C18.9028 26.9272 18.2652 26.2896 17.9329 25.4871Z" stroke="#48484F" stroke-width="1.96491" stroke-linecap="round" stroke-linejoin="round"/>
<path d="M4.17909 25.4871C3.92981 24.8853 3.92981 24.1224 3.92981 22.5965C3.92981 21.0705 3.92981 20.3076 4.17909 19.7058C4.51148 18.9034 5.149 18.2658 5.95143 17.9335C6.55326 17.6842 7.3162 17.6842 8.84209 17.6842C10.368 17.6842 11.1309 17.6842 11.7328 17.9335C12.5352 18.2658 13.1728 18.9034 13.5051 19.7058C13.7544 20.3076 13.7544 21.0705 13.7544 22.5965C13.7544 24.1224 13.7544 24.8853 13.5051 25.4871C13.1728 26.2896 12.5352 26.9272 11.7328 27.2595C11.1309 27.5088 10.368 27.5088 8.84209 27.5088C7.3162 27.5088 6.55326 27.5088 5.95143 27.2595C5.149 26.9272 4.51148 26.2896 4.17909 25.4871Z" stroke="#48484F" stroke-width="1.96491" stroke-linecap="round" stroke-linejoin="round"/>
<path d="M4.17909 11.7328C3.92981 11.1309 3.92981 10.368 3.92981 8.84211C3.92981 7.31622 3.92981 6.55327 4.17909 5.95144C4.51148 5.14901 5.149 4.51149 5.95143 4.17911C6.55326 3.92982 7.3162 3.92982 8.84209 3.92982C10.368 3.92982 11.1309 3.92982 11.7328 4.17911C12.5352 4.51149 13.1728 5.14901 13.5051 5.95144C13.7544 6.55327 13.7544 7.31622 13.7544 8.84211C13.7544 10.368 13.7544 11.1309 13.5051 11.7328C13.1728 12.5352 12.5352 13.1728 11.7328 13.5051C11.1309 13.7544 10.368 13.7544 8.84209 13.7544C7.3162 13.7544 6.55326 13.7544 5.95143 13.5051C5.149 13.1728 4.51148 12.5352 4.17909 11.7328Z" stroke="#48484F" stroke-width="1.96491" stroke-linecap="round" stroke-linejoin="round"/>
</svg>
