<svg width="32" height="32" viewBox="0 0 32 32" fill="none" xmlns="http://www.w3.org/2000/svg">
<path d="M29.5233 27.1189H5.68164L9.52522 24.8625H25.4541L21.599 18.2538L23.4807 17.0032L29.5233 27.1189Z" fill="#48484F"/>
<path d="M15.7768 4L22.5461 15.4542L20.5 16.2727L20.3929 16.2612L15.7347 8.53963L9.97125 18.2155L5.97852 20.3534L15.7768 4Z" fill="#48484F"/>
<path d="M2 27.1189L2.02295 27.008L5.27373 21.5467L9.23204 19.3438L9.27411 19.3591L7.2854 22.6825L7.35424 22.6902C11.3087 20.9118 15.267 19.1334 19.3018 17.5386L27.8763 13.6759L21.8527 17.2709C16.0434 20.6403 10.1308 23.8375 4.27173 27.1189H2Z" fill="url(#paint0_linear_12709_29880)"/>
<defs>
<linearGradient id="paint0_linear_12709_29880" x1="37.3874" y1="6.62968" x2="3.34976" y2="26.2813" gradientUnits="userSpaceOnUse">
<stop stop-color="#48484F"/>
<stop offset="1" stop-color="#48484F"/>
</linearGradient>
</defs>
</svg>
