<svg width="32" height="32" viewBox="0 0 32 32" fill="none" xmlns="http://www.w3.org/2000/svg">
<path d="M3.27344 15.7193C3.27344 9.85297 3.27344 6.91979 5.09588 5.09735C6.91834 3.2749 9.85152 3.2749 15.7179 3.2749C21.5842 3.2749 24.5174 3.2749 26.3399 5.09735C28.1623 6.91979 28.1623 9.85297 28.1623 15.7193C28.1623 21.5858 28.1623 24.5189 26.3399 26.3414C24.5174 28.1638 21.5842 28.1638 15.7179 28.1638C9.85152 28.1638 6.91834 28.1638 5.09588 26.3414C3.27344 24.5189 3.27344 21.5858 3.27344 15.7193Z" stroke="white" stroke-width="1.96491"/>
<path d="M3.27344 11.7896H28.1623" stroke="white" stroke-width="1.96491" stroke-linejoin="round"/>
<path d="M9.16992 7.85962H9.18168" stroke="white" stroke-width="2.61988" stroke-linecap="round" stroke-linejoin="round"/>
<path d="M14.4102 7.85962H14.4219" stroke="white" stroke-width="2.61988" stroke-linecap="round" stroke-linejoin="round"/>
<path d="M22.2693 22.2692C22.2693 18.6519 19.3369 15.7195 15.7196 15.7195C12.1023 15.7195 9.16992 18.6519 9.16992 22.2692" stroke="white" stroke-width="1.96491" stroke-linecap="round"/>
<path d="M16.6435 20.033L14.791 21.8855" stroke="white" stroke-width="1.96491" stroke-linecap="round" stroke-linejoin="round"/>
</svg>
