<svg width="32" height="32" viewBox="0 0 32 32" fill="none" xmlns="http://www.w3.org/2000/svg">
<path d="M27.5087 25.5439C27.5087 27.3525 26.0425 28.8188 24.2338 28.8188C22.4252 28.8188 20.959 27.3525 20.959 25.5439C20.959 23.7353 22.4252 22.269 24.2338 22.269C26.0425 22.269 27.5087 23.7353 27.5087 25.5439Z" stroke="white" stroke-width="1.96491"/>
<path d="M27.5087 12.4445C27.5087 14.2532 26.0425 15.7194 24.2338 15.7194C22.4252 15.7194 20.959 14.2532 20.959 12.4445C20.959 10.6359 22.4252 9.16968 24.2338 9.16968C26.0425 9.16968 27.5087 10.6359 27.5087 12.4445Z" stroke="white" stroke-width="1.96491"/>
<path d="M10.4813 18.9941C10.4813 20.8027 9.01514 22.2689 7.20649 22.2689C5.39784 22.2689 3.93164 20.8027 3.93164 18.9941C3.93164 17.1855 5.39784 15.7192 7.20649 15.7192C9.01514 15.7192 10.4813 17.1855 10.4813 18.9941Z" stroke="white" stroke-width="1.96491"/>
<path d="M10.4813 5.89497C10.4813 7.70362 9.01514 9.16982 7.20649 9.16982C5.39784 9.16982 3.93164 7.70362 3.93164 5.89497C3.93164 4.08632 5.39784 2.62012 7.20649 2.62012C9.01514 2.62012 10.4813 4.08632 10.4813 5.89497Z" stroke="white" stroke-width="1.96491"/>
<path d="M10.4805 5.89478L20.305 12.4445L11.1354 18.9942L20.96 25.5439" stroke="white" stroke-width="1.96491" stroke-linecap="round" stroke-linejoin="round"/>
</svg>
