<svg width="46" height="46" viewBox="0 0 46 46" fill="none" xmlns="http://www.w3.org/2000/svg">
<path d="M37.3964 24.6212C38.8943 22.4739 39.7727 19.8621 39.7727 17.0454C39.7727 9.7235 33.8371 3.78787 26.5151 3.78787C19.1932 3.78787 13.2576 9.72348 13.2576 17.0454C13.2576 19.0788 13.7153 21.0051 14.5334 22.7273" stroke="#48484F" stroke-width="2.84091" stroke-linecap="round" stroke-linejoin="round"/>
<path d="M26.5144 11.3637C24.4224 11.3637 22.7266 12.6356 22.7266 14.2046C22.7266 15.7736 24.4224 17.0455 26.5144 17.0455C28.6065 17.0455 30.3023 18.3174 30.3023 19.8864C30.3023 21.4553 28.6065 22.7273 26.5144 22.7273M26.5144 11.3637C28.1637 11.3637 29.5667 12.1542 30.0868 13.2576M26.5144 11.3637V9.46973M26.5144 22.7273C24.8652 22.7273 23.4622 21.9368 22.9421 20.8334M26.5144 22.7273V24.6212" stroke="#48484F" stroke-width="2.84091" stroke-linecap="round"/>
<path d="M5.68176 26.5151H10.2174C10.7745 26.5151 11.324 26.6407 11.8222 26.8818L15.6896 28.753C16.1879 28.9941 16.7374 29.1195 17.2945 29.1195H19.2691C21.1789 29.1195 22.7272 30.6178 22.7272 32.4659C22.7272 32.5405 22.6761 32.6062 22.6018 32.6267L17.7895 33.9574C16.9262 34.196 16.0018 34.1129 15.1988 33.7242L11.0645 31.724M22.7272 31.25L31.4257 28.5774C32.9677 28.097 34.6346 28.6667 35.6005 30.0043C36.299 30.9714 36.0145 32.3564 34.9971 32.9435L20.763 41.1562C19.8577 41.6786 18.7896 41.806 17.7938 41.5106L5.68176 37.9165" stroke="#48484F" stroke-width="2.84091" stroke-linecap="round" stroke-linejoin="round"/>
</svg>
