<svg width="32" height="32" viewBox="0 0 32 32" fill="none" xmlns="http://www.w3.org/2000/svg">
<path d="M15.7186 28.8189C22.9532 28.8189 28.818 22.9541 28.818 15.7195C28.818 8.48492 22.9532 2.62012 15.7186 2.62012C8.48395 2.62012 2.61914 8.48492 2.61914 15.7195C2.61914 22.9541 8.48395 28.8189 15.7186 28.8189Z" stroke="white" stroke-width="1.96491" stroke-linecap="round" stroke-linejoin="round"/>
<path d="M3.93164 9.94516C11.7913 12.2087 13.7562 6.5498 24.8907 6.5498" stroke="white" stroke-width="1.96491" stroke-linecap="round" stroke-linejoin="round"/>
<path d="M2.61914 15.7196C14.4086 15.7196 17.0285 7.20317 23.5782 6.55005" stroke="white" stroke-width="1.96491" stroke-linecap="round" stroke-linejoin="round"/>
<path d="M23.5782 26.0416C16.6603 27.6981 8.4411 15.7192 2.61914 15.7192" stroke="white" stroke-width="1.96491" stroke-linecap="round" stroke-linejoin="round"/>
<path d="M5.24219 23.5789C13.7568 23.5789 19.2398 13.0994 27.5112 13.0994" stroke="white" stroke-width="1.96491" stroke-linecap="round" stroke-linejoin="round"/>
</svg>
