<svg width="32" height="32" viewBox="0 0 32 32" fill="none" xmlns="http://www.w3.org/2000/svg">
<path d="M16.8736 9.19129L23.1258 10.8571M15.5334 14.1649L18.6594 14.9978M15.6888 23.5349L16.9393 23.8682C20.476 24.8104 22.2444 25.2816 23.6376 24.4819C25.0307 23.682 25.5046 21.9236 26.4522 18.4068L27.7924 13.4332C28.7402 9.91633 29.214 8.1579 28.4097 6.77261C27.6054 5.38732 25.837 4.91615 22.3001 3.97382L21.0497 3.64065C17.5129 2.6983 15.7445 2.22714 14.3514 3.02694C12.9582 3.82674 12.4844 5.58516 11.5367 9.10202L10.1965 14.0756C9.24878 17.5924 8.77495 19.3509 9.57928 20.7361C10.3836 22.1215 12.152 22.5927 15.6888 23.5349Z" stroke="#48484F" stroke-width="1.96491" stroke-linecap="round"/>
<path d="M15.7186 27.4383L14.4711 27.778C10.9426 28.7388 9.17831 29.2192 7.78842 28.4037C6.39855 27.5883 5.92582 25.7954 4.98035 22.2095L3.64328 17.1384C2.69782 13.5525 2.22509 11.7596 3.02754 10.3471C3.72168 9.1253 5.23903 9.16979 7.20394 9.16963" stroke="#48484F" stroke-width="1.96491" stroke-linecap="round"/>
</svg>
