<svg width="21" height="21" viewBox="0 0 21 21" fill="none" xmlns="http://www.w3.org/2000/svg">
<path d="M18.3779 1.75L16.6279 3.5M16.6279 3.5L19.2529 6.125L16.1904 9.1875L13.5654 6.5625M16.6279 3.5L13.5654 6.5625M9.96918 10.1587C10.421 10.6045 10.7801 11.1353 11.026 11.7204C11.2718 12.3056 11.3994 12.9336 11.4016 13.5683C11.4037 14.203 11.2803 14.8318 11.0384 15.4186C10.7964 16.0054 10.4409 16.5386 9.99205 16.9874C9.54325 17.4362 9.01011 17.7918 8.42332 18.0337C7.83652 18.2756 7.20768 18.399 6.57298 18.3969C5.93828 18.3948 5.31028 18.2671 4.72512 18.0213C4.13996 17.7755 3.60921 17.4163 3.16343 16.9645C2.28679 16.0569 1.80172 14.8412 1.81268 13.5794C1.82365 12.3176 2.32977 11.1105 3.22205 10.2182C4.11433 9.32597 5.32136 8.81985 6.58318 8.80888C7.84501 8.79792 9.06065 9.28299 9.9683 10.1596L9.96918 10.1587ZM9.96918 10.1587L13.5654 6.5625" stroke="#0061A4" stroke-width="1.5" stroke-linecap="round" stroke-linejoin="round"/>
</svg>
