<svg width="32" height="32" viewBox="0 0 32 32" fill="none" xmlns="http://www.w3.org/2000/svg">
<path d="M22.2695 15.4632C22.2695 15.0104 22.2695 14.784 22.3376 14.5823C22.5357 13.9959 23.0579 13.7685 23.5809 13.5303C24.1689 13.2624 24.4629 13.1285 24.7542 13.1049C25.085 13.0782 25.4163 13.1495 25.699 13.3081C26.0737 13.5183 26.3351 13.918 26.6027 14.243C27.8385 15.7439 28.4563 16.4945 28.6824 17.3221C28.8648 17.9899 28.8648 18.6884 28.6824 19.3562C28.3526 20.5633 27.3108 21.5753 26.5397 22.5119C26.1453 22.9909 25.948 23.2305 25.699 23.3703C25.4163 23.5289 25.085 23.6002 24.7542 23.5734C24.4629 23.5499 24.1689 23.416 23.5809 23.1481C23.0579 22.9098 22.5357 22.6824 22.3376 22.0961C22.2695 21.8944 22.2695 21.668 22.2695 21.2152V15.4632Z" stroke="#48484F" stroke-width="1.96491"/>
<path d="M9.16885 15.4633C9.16885 14.8933 9.15284 14.3808 8.69191 13.98C8.52427 13.8342 8.30199 13.7329 7.85748 13.5304C7.26945 13.2626 6.97543 13.1288 6.6841 13.1052C5.81004 13.0344 5.33978 13.631 4.83573 14.2433C3.59996 15.7442 2.98207 16.4947 2.75598 17.3223C2.57353 17.9902 2.57353 18.6887 2.75598 19.3565C3.08574 20.5636 4.12756 21.5754 4.89871 22.5121C5.38481 23.1025 5.84916 23.6412 6.6841 23.5737C6.97543 23.5501 7.26945 23.4161 7.85748 23.1484C8.30199 22.9459 8.52427 22.8446 8.69191 22.6988C9.15284 22.298 9.16885 21.7856 9.16885 21.2154V15.4633Z" stroke="#48484F" stroke-width="1.96491"/>
<path d="M26.1993 13.7544V11.7895C26.1993 6.72526 21.5075 2.61989 15.7198 2.61989C9.93208 2.61989 5.24023 6.72526 5.24023 11.7895V13.7544" stroke="#48484F" stroke-width="1.96491" stroke-linecap="round" stroke-linejoin="round"/>
<path d="M26.1983 22.924C26.1983 28.8187 20.9585 28.8187 15.7188 28.8187" stroke="#48484F" stroke-width="1.96491" stroke-linecap="round" stroke-linejoin="round"/>
</svg>
