<svg width="32" height="32" viewBox="0 0 32 32" fill="none" xmlns="http://www.w3.org/2000/svg">
<path d="M16.6338 4.58496H14.8072C13.8712 4.58496 13.4031 4.58496 12.9834 4.73167C12.727 4.82126 12.4862 4.95016 12.2695 5.11375C11.9146 5.38162 11.6549 5.77103 11.1357 6.54987C10.8698 6.94878 10.4778 7.53674 10.3216 7.70093C9.93444 8.10775 9.42683 8.37942 8.87359 8.47587C8.65031 8.51479 8.4106 8.51479 7.93119 8.51479C6.64734 8.51479 6.00543 8.51479 5.48055 8.66336C4.16756 9.03504 3.14135 10.0612 2.76967 11.3742C2.62109 11.8991 2.62109 12.541 2.62109 13.8249V18.9943C2.62109 22.6994 2.62109 24.5519 3.77211 25.7029C4.92313 26.854 6.77568 26.854 10.4807 26.854H20.9603C24.6653 26.854 26.5179 26.854 27.6689 25.7029C28.8199 24.5519 28.8199 22.6994 28.8199 18.9943V13.8249C28.8199 12.541 28.82 11.8991 28.6714 11.3742C28.2996 10.0612 27.2734 9.03504 25.9605 8.66336C25.4356 8.51479 24.7937 8.51479 23.5098 8.51479C23.0304 8.51479 22.7907 8.51479 22.5675 8.47587C22.0141 8.37942 21.5065 8.10775 21.1195 7.70093C20.9632 7.53673 20.5712 6.94876 20.3053 6.54987C19.7861 5.77103 19.5264 5.38162 19.1716 5.11375C18.9548 4.95016 18.714 4.82126 18.4577 4.73167C18.038 4.58496 17.5699 4.58496 16.6338 4.58496Z" stroke="#48484F" stroke-width="1.96491" stroke-linecap="round" stroke-linejoin="round"/>
<path d="M20.96 17.0298C20.96 19.9236 18.6141 22.2696 15.7203 22.2696C12.8264 22.2696 10.4805 19.9236 10.4805 17.0298C10.4805 14.136 12.8264 11.79 15.7203 11.79C18.6141 11.79 20.96 14.136 20.96 17.0298Z" stroke="#48484F" stroke-width="1.96491" stroke-linecap="round" stroke-linejoin="round"/>
<path d="M25.0537 12.4447H24.89M25.2175 12.4447C25.2175 12.6255 25.0709 12.7722 24.89 12.7722C24.7091 12.7722 24.5625 12.6255 24.5625 12.4447C24.5625 12.2638 24.7091 12.1172 24.89 12.1172C25.0709 12.1172 25.2175 12.2638 25.2175 12.4447Z" stroke="#48484F" stroke-width="1.96491" stroke-linecap="round"/>
</svg>
