<svg width="32" height="32" viewBox="0 0 32 32" fill="none" xmlns="http://www.w3.org/2000/svg">
<path d="M11.1348 18.9942H20.3044M11.1348 12.4445H15.7196" stroke="#48484F" stroke-width="1.96491" stroke-linecap="round" stroke-linejoin="round"/>
<path d="M18.5619 27.3653C24.0414 27.0012 28.4061 22.5745 28.7653 17.0173C28.8355 15.9298 28.8355 14.8035 28.7653 13.716C28.4061 8.1588 24.0414 3.73218 18.5619 3.36794C16.6925 3.24368 14.7408 3.24394 12.8752 3.36794C7.3957 3.73218 3.031 8.1588 2.67185 13.716C2.60157 14.8035 2.60157 15.9298 2.67185 17.0173C2.80266 19.0413 3.69778 20.9153 4.7516 22.4977C5.36348 23.6055 4.95966 24.9882 4.32234 26.1959C3.86281 27.0668 3.63305 27.5022 3.81752 27.8167C4.00202 28.1312 4.4141 28.1413 5.23827 28.1614C6.86816 28.2011 7.96721 27.7389 8.83963 27.0956C9.33442 26.7308 9.58183 26.5483 9.75235 26.5274C9.92285 26.5064 10.2584 26.6446 10.9294 26.921C11.5325 27.1694 12.2327 27.3226 12.8752 27.3653C14.7408 27.4894 16.6925 27.4896 18.5619 27.3653Z" stroke="#48484F" stroke-width="1.96491" stroke-linejoin="round"/>
</svg>
