<svg width="46" height="46" viewBox="0 0 46 46" fill="none" xmlns="http://www.w3.org/2000/svg">
<path d="M18.4659 5.68182H10.8901C9.56854 5.68182 8.90777 5.68182 8.37008 5.84493C7.15947 6.21216 6.2121 7.15953 5.84487 8.37014C5.68176 8.90783 5.68176 9.5686 5.68176 10.8902C5.68176 12.2117 5.68176 12.8725 5.84487 13.4102C6.2121 14.6208 7.15947 15.5681 8.37008 15.9354C8.90777 16.0985 9.56854 16.0985 10.8901 16.0985H18.4659C19.7874 16.0985 20.4482 16.0985 20.9859 15.9354C22.1965 15.5681 23.1439 14.6208 23.5111 13.4102C23.6742 12.8725 23.6742 12.2117 23.6742 10.8902C23.6742 9.5686 23.6742 8.90783 23.5111 8.37014C23.1439 7.15953 22.1965 6.21216 20.9859 5.84493C20.4482 5.68182 19.7874 5.68182 18.4659 5.68182Z" stroke="white" stroke-width="2.84091" stroke-linejoin="round"/>
<path d="M39.7721 18.4659V10.8901C39.7721 9.56854 39.7721 8.90777 39.6091 8.37008C39.2418 7.15947 38.2945 6.2121 37.0839 5.84487C36.5462 5.68176 35.8854 5.68176 34.5638 5.68176C33.2422 5.68176 32.5814 5.68176 32.0437 5.84487C30.8331 6.2121 29.8858 7.15947 29.5185 8.37008C29.3555 8.90777 29.3555 9.56854 29.3555 10.8901V18.4659C29.3555 19.7874 29.3555 20.4482 29.5185 20.9859C29.8858 22.1965 30.8331 23.1439 32.0437 23.5111C32.5814 23.6742 33.2422 23.6742 34.5638 23.6742C35.8854 23.6742 36.5462 23.6742 37.0839 23.5111C38.2945 23.1439 39.2418 22.1965 39.6091 20.9859C39.7721 20.4482 39.7721 19.7874 39.7721 18.4659Z" stroke="white" stroke-width="2.84091" stroke-linejoin="round"/>
<path d="M32.0437 39.6097C32.5814 39.7727 33.2422 39.7727 34.5638 39.7727C35.8854 39.7727 36.5462 39.7727 37.0839 39.6097C38.2945 39.2424 39.2418 38.2951 39.6091 37.0845C39.7721 36.5468 39.7721 35.886 39.7721 34.5644C39.7721 33.2428 39.7721 32.582 39.6091 32.0443C39.2418 30.8337 38.2945 29.8864 37.0839 29.5191C36.5462 29.3561 35.8854 29.3561 34.5638 29.3561C33.2422 29.3561 32.5814 29.3561 32.0437 29.5191C30.8331 29.8864 29.8858 30.8337 29.5185 32.0443C29.3555 32.582 29.3555 33.2428 29.3555 34.5644C29.3555 35.886 29.3555 36.5468 29.5185 37.0845C29.8858 38.2951 30.8331 39.2424 32.0437 39.6097Z" stroke="white" stroke-width="2.84091" stroke-linejoin="round"/>
<path d="M16.0984 21.7803H13.2575C9.68627 21.7803 7.90065 21.7803 6.79121 22.8898C5.68176 23.9992 5.68176 25.7848 5.68176 29.3561V32.197C5.68176 35.7682 5.68176 37.5538 6.79121 38.6633C7.90065 39.7727 9.68627 39.7727 13.2575 39.7727H16.0984C19.6696 39.7727 21.4552 39.7727 22.5647 38.6633C23.6742 37.5538 23.6742 35.7682 23.6742 32.197V29.3561C23.6742 25.7848 23.6742 23.9992 22.5647 22.8898C21.4552 21.7803 19.6696 21.7803 16.0984 21.7803Z" stroke="white" stroke-width="2.84091" stroke-linejoin="round"/>
</svg>
