<svg width="32" height="32" viewBox="0 0 32 32" fill="none" xmlns="http://www.w3.org/2000/svg">
<path d="M6.38772 17.2362L9.18561 19.6351V6.847C9.18561 5.57933 10.2129 4.5517 11.4802 4.5517C12.7474 4.5517 13.7746 5.57933 13.7746 6.847V13.7329L17.6923 14.3593C20.221 14.7388 21.4854 14.9284 22.3759 15.4622C23.8471 16.3438 24.9129 17.6677 24.9129 19.6004C24.9129 20.9466 24.5802 21.8498 23.7716 24.2765C23.2586 25.8162 23.002 26.5861 22.5837 27.1956C21.8949 28.1989 20.8788 28.9314 19.7094 29.2678C18.9992 29.4721 18.1881 29.4721 16.5654 29.4721H15.1901C13.0331 29.4721 11.9545 29.4721 10.9943 29.0761C10.8221 29.0051 10.6539 28.925 10.4902 28.8361C9.57753 28.3403 8.89741 27.503 7.53718 25.8284L3.13363 20.4067C2.45694 19.5735 2.45243 18.3814 3.12278 17.5431C3.92851 16.5357 5.40844 16.3965 6.38772 17.2362Z" stroke="#48484F" stroke-width="1.96491" stroke-linecap="round" stroke-linejoin="round"/>
<path d="M22.1624 3.10233L23.2174 2.11002C23.3176 2.01567 23.446 1.96806 23.5745 1.96747M23.5745 1.96747C23.7017 1.96687 23.8291 2.01234 23.93 2.10407L25.0275 3.10233M23.5745 1.96747V12.4137M22.1624 11.2802L23.2599 12.2785C23.3498 12.3604 23.4612 12.4054 23.5745 12.4137C23.7164 12.424 23.8615 12.3769 23.9725 12.2725L25.0275 11.2802M27.6833 8.62478L28.6809 7.52659C28.7726 7.42567 28.8179 7.29811 28.8174 7.1708C28.8168 7.04217 28.7692 6.91381 28.6749 6.81342L27.6833 5.75776M28.8174 7.1708H18.3784M19.5111 8.62475L18.5194 7.56909C18.415 7.45804 18.368 7.31277 18.3784 7.1708M18.3784 7.1708C18.3866 7.05736 18.4315 6.94601 18.5134 6.85591L19.5111 5.75774" stroke="#48484F" stroke-width="1.96491" stroke-linecap="round" stroke-linejoin="round"/>
</svg>
