<svg width="46" height="46" viewBox="0 0 46 46" fill="none" xmlns="http://www.w3.org/2000/svg">
<path d="M5.68176 7.57575C5.68176 4.44191 6.3358 3.78787 9.46964 3.78787H17.0454C20.1793 3.78787 20.8333 4.44191 20.8333 7.57575C20.8333 10.7096 20.1793 11.3636 17.0454 11.3636H9.46964C6.3358 11.3636 5.68176 10.7096 5.68176 7.57575Z" stroke="#48484F" stroke-width="2.84091"/>
<path d="M24.6212 24.6212C24.6212 21.4873 25.2752 20.8333 28.4091 20.8333H35.9849C39.1188 20.8333 39.7727 21.4873 39.7727 24.6212C39.7727 27.7551 39.1188 28.4091 35.9849 28.4091H28.4091C25.2752 28.4091 24.6212 27.7551 24.6212 24.6212Z" stroke="#48484F" stroke-width="2.84091"/>
<path d="M7.57617 37.8788C7.57617 34.7449 8.23021 34.0909 11.3641 34.0909H18.9398C22.0737 34.0909 22.7277 34.7449 22.7277 37.8788C22.7277 41.0127 22.0737 41.6667 18.9398 41.6667H11.3641C8.23021 41.6667 7.57617 41.0127 7.57617 37.8788Z" stroke="#48484F" stroke-width="2.84091"/>
<path d="M32.197 20.8333C32.197 19.9532 32.197 19.5133 32.1242 19.1474C31.8254 17.6448 30.6507 16.4702 29.1481 16.1713C28.7822 16.0985 28.3422 16.0985 27.4621 16.0985H17.9924C17.1124 16.0985 16.6724 16.0985 16.3065 16.0257C14.8039 15.7268 13.6292 14.5522 13.3304 13.0496C13.2576 12.6837 13.2576 12.2437 13.2576 11.3636" stroke="#48484F" stroke-width="2.84091" stroke-linecap="round" stroke-linejoin="round"/>
<path d="M32.1963 28.4091V30.303C32.1963 33.8742 32.1963 35.6598 31.0868 36.7693C29.9773 37.8788 28.1917 37.8788 24.6205 37.8788H22.7266" stroke="#48484F" stroke-width="2.84091" stroke-linecap="round" stroke-linejoin="round"/>
</svg>
