<svg width="528" height="394" viewBox="0 0 528 394" fill="none" xmlns="http://www.w3.org/2000/svg">
<rect width="528" height="394" rx="20" fill="#0061A4" fill-opacity="0.05"/>
<g filter="url(#filter0_d_12796_1136)">
<circle cx="98.4944" cy="193.718" r="34.0061" fill="white"/>
<circle cx="98.4944" cy="193.718" r="35.0366" stroke="white" stroke-width="2.06097"/>
</g>
<path d="M86.4018 197.954C85.5577 197.954 84.8331 197.809 84.2278 197.519C83.6225 197.221 83.128 196.833 82.7443 196.355C82.3607 195.869 82.0751 195.349 81.8875 194.795C81.7085 194.233 81.619 193.687 81.619 193.158V192.877C81.619 192.297 81.7128 191.726 81.9003 191.163C82.0879 190.592 82.3735 190.076 82.7571 189.616C83.1493 189.156 83.6395 188.789 84.2278 188.516C84.8245 188.235 85.5279 188.094 86.3378 188.094C87.1818 188.094 87.9278 188.252 88.5757 188.567C89.2237 188.883 89.7395 189.322 90.1231 189.885C90.5153 190.439 90.7455 191.091 90.8137 191.841H88.7036C88.6439 191.466 88.5075 191.146 88.2944 190.882C88.0813 190.618 87.8042 190.413 87.4632 190.268C87.1307 190.123 86.7556 190.051 86.3378 190.051C85.9201 190.051 85.5492 190.123 85.2252 190.268C84.9013 190.413 84.6285 190.618 84.4068 190.882C84.1937 191.146 84.0274 191.462 83.9081 191.828C83.7972 192.186 83.7418 192.587 83.7418 193.03C83.7418 193.465 83.7972 193.866 83.9081 194.233C84.0274 194.591 84.1979 194.906 84.4196 195.179C84.6498 195.443 84.9311 195.648 85.2636 195.793C85.5961 195.929 85.9755 195.997 86.4018 195.997C87.0497 195.997 87.5953 195.84 88.0386 195.524C88.4905 195.209 88.7633 194.774 88.8571 194.22H90.9543C90.8776 194.902 90.6474 195.528 90.2638 196.1C89.8886 196.662 89.3729 197.114 88.7164 197.455C88.0685 197.788 87.2969 197.954 86.4018 197.954ZM92.2306 197.711V190.703H93.8547V193.708H93.8164C93.8164 192.719 94.0252 191.956 94.443 191.419C94.8693 190.882 95.4831 190.614 96.2845 190.614H96.553V192.378H96.0415C95.4788 192.378 95.044 192.532 94.7371 192.839C94.4302 193.137 94.2767 193.572 94.2767 194.143V197.711H92.2306ZM100.786 197.954C100.189 197.954 99.6602 197.852 99.1998 197.647C98.7479 197.442 98.3686 197.17 98.0616 196.829C97.7632 196.479 97.5331 196.091 97.3711 195.665C97.2176 195.23 97.1409 194.787 97.1409 194.335V194.079C97.1409 193.61 97.2176 193.163 97.3711 192.736C97.5331 192.302 97.7632 191.914 98.0616 191.573C98.36 191.232 98.7309 190.963 99.1742 190.767C99.6261 190.562 100.138 190.46 100.709 190.46C101.459 190.46 102.09 190.631 102.601 190.972C103.121 191.304 103.518 191.743 103.791 192.289C104.064 192.826 104.2 193.414 104.2 194.054V194.744H97.9977V193.58H102.959L102.295 194.117C102.295 193.7 102.235 193.342 102.115 193.043C101.996 192.745 101.817 192.519 101.578 192.365C101.348 192.204 101.058 192.123 100.709 192.123C100.351 192.123 100.048 192.204 99.8008 192.365C99.5536 192.527 99.366 192.766 99.2381 193.082C99.1103 193.389 99.0463 193.768 99.0463 194.22C99.0463 194.638 99.106 195.004 99.2254 195.32C99.3447 195.626 99.5323 195.865 99.788 196.036C100.044 196.206 100.376 196.291 100.786 196.291C101.161 196.291 101.468 196.219 101.706 196.074C101.945 195.929 102.107 195.75 102.192 195.537H104.072C103.97 196.006 103.769 196.424 103.471 196.79C103.173 197.157 102.798 197.442 102.346 197.647C101.894 197.852 101.374 197.954 100.786 197.954ZM108.064 197.711L109.343 190.933H111.58L113.064 197.711H111.478L109.956 190.984H110.864L109.496 197.711H108.064ZM107.578 197.711L107.565 196.01H108.972L108.985 197.711H107.578ZM106.657 197.711L104.777 190.703H106.785L108.537 197.711H106.657ZM112.003 197.711L112.015 196.01H113.422V197.711H112.003ZM112.578 197.711L114.138 190.703H116.018L114.33 197.711H112.578Z" fill="black"/>
<path d="M130.35 166.643C130.35 161.857 126.47 157.978 121.685 157.978C116.899 157.978 113.02 161.857 113.02 166.643C113.02 171.428 116.899 175.308 121.685 175.308C126.47 175.308 130.35 171.428 130.35 166.643Z" fill="#0CB146"/>
<path d="M118.219 167.076L120.385 169.242L125.151 164.043" stroke="white" stroke-width="1.29976" stroke-linecap="round" stroke-linejoin="round"/>
<g filter="url(#filter1_d_12796_1136)">
<circle cx="137.006" cy="86.0066" r="34.0061" fill="white"/>
<circle cx="137.006" cy="86.0066" r="35.0366" stroke="white" stroke-width="2.06097"/>
</g>
<path d="M127.303 90.201C126.595 90.201 125.981 90.0688 125.461 89.8046C124.95 89.5317 124.553 89.1396 124.272 88.628C123.999 88.1165 123.863 87.4942 123.863 86.761V86.2878H125.935V86.8761C125.935 87.2853 126.054 87.6178 126.293 87.8735C126.54 88.1208 126.877 88.2444 127.303 88.2444C127.721 88.2444 128.049 88.1208 128.288 87.8735C128.535 87.6178 128.658 87.2853 128.658 86.8761V82.1956H130.756V86.761C130.756 87.4942 130.615 88.1165 130.334 88.628C130.061 89.1396 129.664 89.5317 129.144 89.8046C128.633 90.0688 128.019 90.201 127.303 90.201ZM124.95 82.4514V80.6227H130.756V82.4514H124.95ZM135.993 90.201C135.38 90.201 134.834 90.1072 134.356 89.9196C133.879 89.7236 133.474 89.4593 133.142 89.1268C132.818 88.7943 132.57 88.4149 132.4 87.9886C132.229 87.5538 132.144 87.0977 132.144 86.6203V86.3262C132.144 85.8402 132.229 85.3799 132.4 84.9451C132.579 84.5017 132.835 84.1138 133.167 83.7813C133.508 83.4488 133.917 83.1888 134.395 83.0013C134.872 82.8052 135.405 82.7071 135.993 82.7071C136.599 82.7071 137.136 82.8052 137.605 83.0013C138.082 83.1888 138.487 83.4488 138.82 83.7813C139.152 84.1138 139.408 84.5017 139.587 84.9451C139.766 85.3799 139.855 85.8402 139.855 86.3262V86.6203C139.855 87.0977 139.77 87.5538 139.6 87.9886C139.429 88.4149 139.178 88.7943 138.845 89.1268C138.521 89.4593 138.12 89.7236 137.643 89.9196C137.166 90.1072 136.616 90.201 135.993 90.201ZM135.993 88.4746C136.394 88.4746 136.727 88.3893 136.991 88.2188C137.255 88.0483 137.455 87.8096 137.592 87.5027C137.737 87.1958 137.809 86.8548 137.809 86.4796C137.809 86.0789 137.737 85.7294 137.592 85.431C137.447 85.1241 137.238 84.8811 136.965 84.7021C136.701 84.523 136.377 84.4335 135.993 84.4335C135.618 84.4335 135.294 84.523 135.021 84.7021C134.749 84.8811 134.54 85.1241 134.395 85.431C134.258 85.7294 134.19 86.0789 134.19 86.4796C134.19 86.8548 134.258 87.1958 134.395 87.5027C134.531 87.8096 134.736 88.0483 135.009 88.2188C135.282 88.3893 135.61 88.4746 135.993 88.4746ZM145.593 90.1882C145.022 90.1882 144.519 90.0688 144.084 89.8301C143.649 89.5829 143.308 89.2291 143.061 88.7687C142.814 88.3083 142.682 87.7457 142.664 87.0807H142.907V89.958H141.283V80.6227H143.329V85.3671L142.844 85.9809C142.869 85.2733 143.001 84.6808 143.24 84.2033C143.487 83.7174 143.824 83.3551 144.25 83.1164C144.676 82.8691 145.162 82.7455 145.708 82.7455C146.185 82.7455 146.616 82.835 147 83.014C147.392 83.1846 147.724 83.4318 147.997 83.7558C148.27 84.0712 148.479 84.4463 148.624 84.8811C148.777 85.3159 148.854 85.7891 148.854 86.3006V86.5819C148.854 87.0935 148.777 87.5666 148.624 88.0014C148.479 88.4362 148.261 88.8199 147.972 89.1524C147.69 89.4763 147.349 89.7321 146.949 89.9196C146.548 90.0987 146.096 90.1882 145.593 90.1882ZM145.056 88.4746C145.405 88.4746 145.708 88.3893 145.964 88.2188C146.228 88.0483 146.433 87.8096 146.578 87.5027C146.723 87.1872 146.795 86.8334 146.795 86.4413C146.795 86.0406 146.723 85.691 146.578 85.3926C146.433 85.0943 146.228 84.8641 145.964 84.7021C145.708 84.5316 145.405 84.4463 145.056 84.4463C144.749 84.4463 144.459 84.5188 144.186 84.6637C143.913 84.8087 143.692 85.0175 143.521 85.2903C143.359 85.5546 143.278 85.8786 143.278 86.2622V86.7354C143.278 87.102 143.364 87.4174 143.534 87.6817C143.713 87.9375 143.939 88.1336 144.212 88.27C144.485 88.4064 144.766 88.4746 145.056 88.4746Z" fill="black"/>
<path d="M172.326 60.6641C172.326 55.8785 168.447 51.999 163.661 51.999C158.876 51.999 154.996 55.8785 154.996 60.6641C154.996 65.4496 158.876 69.3291 163.661 69.3291C168.447 69.3291 172.326 65.4496 172.326 60.6641Z" fill="#0CB146"/>
<path d="M160.195 61.0967L162.362 63.263L167.127 58.064" stroke="white" stroke-width="1.29976" stroke-linecap="round" stroke-linejoin="round"/>
<g filter="url(#filter2_d_12796_1136)">
<circle cx="137.006" cy="293.643" r="34.0061" fill="white"/>
<circle cx="137.006" cy="293.643" r="35.0366" stroke="white" stroke-width="2.06097"/>
</g>
<path d="M168.859 264.834C168.859 260.049 164.98 256.169 160.194 256.169C155.409 256.169 151.529 260.049 151.529 264.834C151.529 269.62 155.409 273.5 160.194 273.5C164.98 273.5 168.859 269.62 168.859 264.834Z" fill="#0CB146"/>
<path d="M156.729 265.267L158.895 267.433L163.661 262.234" stroke="white" stroke-width="1.29976" stroke-linecap="round" stroke-linejoin="round"/>
<path d="M114.876 296.986C114.262 296.986 113.736 296.881 113.296 296.67C112.856 296.454 112.496 296.172 112.218 295.825C111.939 295.472 111.731 295.094 111.595 294.691C111.465 294.282 111.4 293.886 111.4 293.501V293.297C111.4 292.876 111.468 292.461 111.604 292.052C111.741 291.637 111.948 291.262 112.227 290.927C112.512 290.593 112.868 290.326 113.296 290.128C113.729 289.924 114.241 289.821 114.829 289.821C115.442 289.821 115.985 289.936 116.455 290.165C116.926 290.394 117.301 290.713 117.58 291.122C117.865 291.525 118.032 291.999 118.082 292.544H116.548C116.505 292.272 116.406 292.039 116.251 291.847C116.096 291.655 115.895 291.506 115.647 291.401C115.405 291.296 115.133 291.243 114.829 291.243C114.525 291.243 114.256 291.296 114.021 291.401C113.785 291.506 113.587 291.655 113.426 291.847C113.271 292.039 113.15 292.269 113.063 292.535C112.983 292.795 112.943 293.086 112.943 293.408C112.943 293.724 112.983 294.016 113.063 294.282C113.15 294.542 113.274 294.771 113.435 294.97C113.602 295.162 113.807 295.311 114.048 295.416C114.29 295.515 114.566 295.565 114.876 295.565C115.346 295.565 115.743 295.45 116.065 295.221C116.393 294.991 116.592 294.675 116.66 294.273H118.184C118.128 294.768 117.961 295.224 117.682 295.639C117.409 296.048 117.035 296.376 116.558 296.624C116.087 296.866 115.526 296.986 114.876 296.986ZM120.831 296.968C120.242 296.968 119.79 296.779 119.474 296.401C119.158 296.017 119 295.441 119 294.672V291.717H120.487V294.747C120.487 295.019 120.564 295.236 120.719 295.397C120.874 295.558 121.082 295.639 121.342 295.639C121.608 295.639 121.825 295.555 121.992 295.388C122.16 295.221 122.243 294.995 122.243 294.71V291.717H123.73V296.81H122.55V294.663H122.652C122.652 295.177 122.584 295.608 122.448 295.955C122.318 296.296 122.122 296.55 121.862 296.717C121.602 296.884 121.28 296.968 120.896 296.968H120.831ZM127.034 296.968C126.309 296.968 125.742 296.819 125.334 296.522C124.925 296.224 124.708 295.806 124.683 295.267H126.003C126.027 295.428 126.123 295.574 126.291 295.704C126.464 295.828 126.721 295.89 127.062 295.89C127.322 295.89 127.536 295.846 127.703 295.76C127.877 295.667 127.964 295.537 127.964 295.369C127.964 295.221 127.898 295.103 127.768 295.016C127.638 294.923 127.406 294.858 127.071 294.821L126.672 294.784C126.058 294.722 125.597 294.552 125.287 294.273C124.984 293.994 124.832 293.638 124.832 293.204C124.832 292.845 124.922 292.544 125.101 292.303C125.281 292.061 125.529 291.878 125.845 291.754C126.167 291.63 126.532 291.568 126.941 291.568C127.598 291.568 128.128 291.714 128.53 292.005C128.933 292.29 129.144 292.705 129.162 293.251H127.843C127.818 293.083 127.731 292.944 127.583 292.832C127.434 292.715 127.214 292.656 126.923 292.656C126.693 292.656 126.511 292.699 126.374 292.786C126.238 292.873 126.17 292.99 126.17 293.139C126.17 293.281 126.229 293.39 126.347 293.464C126.464 293.539 126.656 293.591 126.923 293.622L127.322 293.659C127.948 293.728 128.434 293.901 128.781 294.18C129.128 294.459 129.302 294.833 129.302 295.304C129.302 295.645 129.209 295.942 129.023 296.196C128.837 296.444 128.574 296.636 128.233 296.773C127.892 296.903 127.493 296.968 127.034 296.968ZM132.579 296.875C132.065 296.875 131.65 296.813 131.334 296.689C131.018 296.559 130.786 296.345 130.637 296.048C130.494 295.744 130.423 295.335 130.423 294.821V290.342H131.808V294.877C131.808 295.118 131.87 295.304 131.994 295.434C132.124 295.558 132.307 295.62 132.542 295.62H133.295V296.875H132.579ZM129.652 292.804V291.717H133.295V292.804H129.652ZM136.758 296.986C136.312 296.986 135.915 296.918 135.568 296.782C135.221 296.639 134.927 296.447 134.685 296.206C134.45 295.964 134.27 295.688 134.146 295.379C134.022 295.063 133.961 294.731 133.961 294.384V294.171C133.961 293.817 134.022 293.483 134.146 293.167C134.276 292.845 134.462 292.563 134.704 292.321C134.952 292.08 135.249 291.891 135.596 291.754C135.943 291.612 136.33 291.541 136.758 291.541C137.198 291.541 137.588 291.612 137.929 291.754C138.276 291.891 138.57 292.08 138.812 292.321C139.053 292.563 139.239 292.845 139.369 293.167C139.499 293.483 139.564 293.817 139.564 294.171V294.384C139.564 294.731 139.502 295.063 139.378 295.379C139.255 295.688 139.072 295.964 138.83 296.206C138.595 296.447 138.304 296.639 137.957 296.782C137.61 296.918 137.21 296.986 136.758 296.986ZM136.758 295.732C137.049 295.732 137.291 295.67 137.483 295.546C137.675 295.422 137.82 295.249 137.919 295.026C138.025 294.802 138.077 294.555 138.077 294.282C138.077 293.991 138.025 293.737 137.919 293.52C137.814 293.297 137.662 293.12 137.464 292.99C137.272 292.86 137.037 292.795 136.758 292.795C136.485 292.795 136.25 292.86 136.051 292.99C135.853 293.12 135.701 293.297 135.596 293.52C135.497 293.737 135.447 293.991 135.447 294.282C135.447 294.555 135.497 294.802 135.596 295.026C135.695 295.249 135.844 295.422 136.042 295.546C136.24 295.67 136.479 295.732 136.758 295.732ZM140.602 296.81V291.717H141.782V293.91H141.699C141.699 293.39 141.764 292.956 141.894 292.609C142.024 292.262 142.219 292.002 142.479 291.829C142.74 291.649 143.059 291.559 143.436 291.559H143.502C143.886 291.559 144.205 291.649 144.459 291.829C144.719 292.002 144.914 292.262 145.044 292.609C145.181 292.956 145.249 293.39 145.249 293.91H144.886C144.886 293.39 144.951 292.956 145.081 292.609C145.218 292.262 145.416 292.002 145.676 291.829C145.936 291.649 146.255 291.559 146.633 291.559H146.698C147.083 291.559 147.405 291.649 147.665 291.829C147.931 292.002 148.133 292.262 148.269 292.609C148.405 292.956 148.473 293.39 148.473 293.91V296.81H146.987V293.827C146.987 293.548 146.912 293.322 146.763 293.148C146.621 292.975 146.417 292.888 146.15 292.888C145.884 292.888 145.673 292.978 145.518 293.158C145.363 293.331 145.286 293.563 145.286 293.855V296.81H143.79V293.827C143.79 293.548 143.715 293.322 143.567 293.148C143.424 292.975 143.223 292.888 142.963 292.888C142.69 292.888 142.476 292.978 142.321 293.158C142.166 293.331 142.089 293.563 142.089 293.855V296.81H140.602ZM152.074 296.986C151.64 296.986 151.256 296.912 150.921 296.763C150.593 296.615 150.317 296.416 150.094 296.169C149.877 295.915 149.71 295.633 149.592 295.323C149.481 295.007 149.425 294.685 149.425 294.356V294.171C149.425 293.83 149.481 293.505 149.592 293.195C149.71 292.879 149.877 292.597 150.094 292.349C150.311 292.101 150.581 291.906 150.903 291.764C151.231 291.615 151.603 291.541 152.018 291.541C152.563 291.541 153.022 291.664 153.393 291.912C153.771 292.154 154.059 292.473 154.258 292.869C154.456 293.26 154.555 293.687 154.555 294.152V294.654H150.048V293.808H153.653L153.17 294.198C153.17 293.895 153.127 293.635 153.04 293.418C152.953 293.201 152.823 293.037 152.65 292.925C152.483 292.808 152.272 292.749 152.018 292.749C151.758 292.749 151.538 292.808 151.358 292.925C151.178 293.043 151.042 293.216 150.949 293.446C150.856 293.669 150.81 293.944 150.81 294.273C150.81 294.576 150.853 294.843 150.94 295.072C151.027 295.295 151.163 295.468 151.349 295.592C151.535 295.716 151.776 295.778 152.074 295.778C152.346 295.778 152.569 295.726 152.743 295.62C152.916 295.515 153.034 295.385 153.096 295.23H154.462C154.388 295.571 154.242 295.874 154.025 296.141C153.808 296.407 153.536 296.615 153.207 296.763C152.879 296.912 152.501 296.986 152.074 296.986ZM155.54 296.81V291.717H156.72V293.901H156.693C156.693 293.182 156.844 292.628 157.148 292.238C157.458 291.847 157.904 291.652 158.486 291.652H158.681V292.935H158.31C157.901 292.935 157.585 293.046 157.362 293.269C157.139 293.486 157.027 293.802 157.027 294.217V296.81H155.54ZM161.385 296.968C160.66 296.968 160.093 296.819 159.684 296.522C159.275 296.224 159.058 295.806 159.034 295.267H160.353C160.378 295.428 160.474 295.574 160.641 295.704C160.815 295.828 161.072 295.89 161.413 295.89C161.673 295.89 161.887 295.846 162.054 295.76C162.227 295.667 162.314 295.537 162.314 295.369C162.314 295.221 162.249 295.103 162.119 295.016C161.989 294.923 161.756 294.858 161.422 294.821L161.022 294.784C160.409 294.722 159.947 294.552 159.638 294.273C159.334 293.994 159.182 293.638 159.182 293.204C159.182 292.845 159.272 292.544 159.452 292.303C159.631 292.061 159.879 291.878 160.195 291.754C160.517 291.63 160.883 291.568 161.292 291.568C161.949 291.568 162.478 291.714 162.881 292.005C163.284 292.29 163.494 292.705 163.513 293.251H162.193C162.168 293.083 162.082 292.944 161.933 292.832C161.784 292.715 161.564 292.656 161.273 292.656C161.044 292.656 160.861 292.699 160.725 292.786C160.589 292.873 160.52 292.99 160.52 293.139C160.52 293.281 160.579 293.39 160.697 293.464C160.815 293.539 161.007 293.591 161.273 293.622L161.673 293.659C162.299 293.728 162.785 293.901 163.132 294.18C163.479 294.459 163.652 294.833 163.652 295.304C163.652 295.645 163.559 295.942 163.373 296.196C163.188 296.444 162.924 296.636 162.584 296.773C162.243 296.903 161.843 296.968 161.385 296.968Z" fill="black"/>
<path d="M172 94L375.5 184.5M137.5 199.5H372M172 298.5L375.5 224" stroke="#FA8C3D" stroke-width="2" stroke-dasharray="6 6"/>
<circle cx="396.833" cy="189.833" r="88.8325" fill="white"/>
<g clip-path="url(#clip0_12796_1136)">
<path d="M426.893 219.643H426.106C418.629 219.058 419.337 208.237 426.922 208.656C433.843 209.039 434.168 218.964 426.98 219.593L426.893 219.643ZM430.346 214.146C430.346 212.044 428.641 210.339 426.539 210.339C424.437 210.339 422.732 212.044 422.732 214.146C422.732 216.248 424.437 217.953 426.539 217.953C428.641 217.953 430.346 216.248 430.346 214.146Z" fill="#FA8C3D"/>
<path d="M454.206 219.42H446.021V208.823H454.148V210.449H447.921V213.309H453.419V214.884H447.921V217.853H454.206V219.42Z" fill="#FA8C3D"/>
<path d="M379.333 219.644C376.544 219.572 374.847 217.882 374.796 215.072C374.76 213.15 374.905 211.178 374.847 209.242C374.847 209.091 374.804 208.968 374.789 208.823H376.696V215.245C376.696 218.871 382.302 218.763 382.302 215.411V208.823H384.209V215.13C384.05 217.853 382.497 219.572 379.723 219.637H379.333V219.644Z" fill="#1161A5"/>
<path d="M367.945 219.644C364.247 219.276 361.964 215.7 363.25 212.175C364.536 208.649 369.181 207.638 372.171 209.733L372.821 210.311L371.608 211.626C370.329 210.499 368.733 209.935 367.078 210.629C363.871 211.972 364.268 217.087 367.678 217.86C369.26 218.221 370.495 217.636 371.666 216.617L372.843 217.686L372.865 217.816C372.164 218.524 371.312 219.117 370.344 219.398C369.946 219.514 369.405 219.622 369 219.651H367.931L367.945 219.644Z" fill="#1161A5"/>
<path d="M357.737 219.644H356.726C353.222 219.341 350.954 216.206 351.77 212.76C352.796 208.433 358.546 207.335 361.544 210.311L360.33 211.626C358.914 210.412 357.166 209.849 355.433 210.817C352.955 212.196 352.991 216.083 355.433 217.484C357.13 218.452 359.081 217.889 360.388 216.567L361.594 217.773C360.85 218.575 359.882 219.218 358.806 219.464C358.488 219.536 358.048 219.622 357.73 219.651L357.737 219.644Z" fill="#1161A5"/>
<path d="M415.564 219.643H414.726C410.811 219.369 408.413 215.468 410.023 211.835C411.634 208.201 416.742 207.623 419.436 210.31L418.23 211.625C416.612 210.057 413.953 209.754 412.393 211.567C410.674 213.575 411.483 217.065 414.105 217.816C415.745 218.285 417.103 217.642 418.331 216.617C418.41 216.631 419.429 217.664 419.465 217.729C419.515 217.823 419.487 217.809 419.429 217.866C419.255 218.054 418.851 218.379 418.641 218.538C417.789 219.174 416.72 219.557 415.651 219.586L415.564 219.636V219.643Z" fill="#FA8C3D"/>
<path d="M425.263 201.65H380.23L387.49 197.388H417.577L410.296 184.905L413.85 182.543L425.263 201.65Z" fill="#1161A5"/>
<path d="M399.296 157.981L412.082 179.617L408.218 181.162L408.015 181.141L399.217 166.556L388.331 184.832L380.789 188.87L399.296 157.981Z" fill="#1161A5"/>
<path d="M373.275 201.649L373.319 201.439L379.459 191.124L386.936 186.963L387.015 186.992L383.259 193.269L383.389 193.284C390.858 189.925 398.335 186.566 405.956 183.553L422.151 176.257L410.774 183.048C399.801 189.412 388.633 195.451 377.566 201.649H373.275Z" fill="url(#paint0_linear_12796_1136)"/>
<path d="M386.906 208.823H392.31C394.52 209.047 396.008 210.254 395.828 212.608C395.712 214.089 394.672 214.978 393.328 215.382C393.263 215.404 393.227 215.346 393.249 215.469L396.167 219.478H393.921L391.197 215.722H388.842L388.756 215.809V219.478H386.906V208.83V208.823ZM388.835 210.506L388.748 210.593V214.01L388.835 214.097H392.201C392.295 214.097 392.772 213.938 392.888 213.88C394.209 213.288 394.311 211.352 392.974 210.745C392.851 210.687 392.302 210.506 392.201 210.506H388.835Z" fill="#1161A5"/>
<path d="M443.883 219.419H441.636L438.971 215.721H436.529V219.419H434.68V208.822C436.515 208.93 438.552 208.649 440.365 208.887C442.792 209.205 444.41 211.314 443.269 213.684C442.806 214.644 441.911 215.107 440.957 215.468L443.876 219.419H443.883ZM436.536 210.505V214.066L436.623 214.153H439.541C440.892 214.153 442.055 213.098 441.607 211.697C441.405 211.083 440.632 210.505 439.996 210.505H436.551H436.536Z" fill="#FA8C3D"/>
<path d="M350.848 219.477H348.832L347.684 216.898L342.533 216.913L341.377 219.484H339.463L344.31 208.771C344.808 208.822 345.401 208.714 345.885 208.771C345.964 208.779 346.029 208.771 346.073 208.865L350.848 219.484V219.477ZM343.219 215.273H346.947L347.004 215.157L345.09 211.011L343.212 215.273H343.219Z" fill="#1161A5"/>
<path d="M397.338 219.479L402.113 208.78H403.875L408.723 219.479H406.787L405.602 216.907L400.444 216.893L399.216 219.479H397.338ZM401.094 215.274H404.908L402.972 211.012L401.094 215.274Z" fill="#1161A5"/>
</g>
<defs>
<filter id="filter0_d_12796_1136" x="21.2082" y="116.431" width="154.572" height="154.573" filterUnits="userSpaceOnUse" color-interpolation-filters="sRGB">
<feFlood flood-opacity="0" result="BackgroundImageFix"/>
<feColorMatrix in="SourceAlpha" type="matrix" values="0 0 0 0 0 0 0 0 0 0 0 0 0 0 0 0 0 0 127 0" result="hardAlpha"/>
<feOffset/>
<feGaussianBlur stdDeviation="20.6097"/>
<feComposite in2="hardAlpha" operator="out"/>
<feColorMatrix type="matrix" values="0 0 0 0 0 0 0 0 0 0 0 0 0 0 0 0 0 0 0.14 0"/>
<feBlend mode="normal" in2="BackgroundImageFix" result="effect1_dropShadow_12796_1136"/>
<feBlend mode="normal" in="SourceGraphic" in2="effect1_dropShadow_12796_1136" result="shape"/>
</filter>
<filter id="filter1_d_12796_1136" x="59.72" y="8.71996" width="154.572" height="154.573" filterUnits="userSpaceOnUse" color-interpolation-filters="sRGB">
<feFlood flood-opacity="0" result="BackgroundImageFix"/>
<feColorMatrix in="SourceAlpha" type="matrix" values="0 0 0 0 0 0 0 0 0 0 0 0 0 0 0 0 0 0 127 0" result="hardAlpha"/>
<feOffset/>
<feGaussianBlur stdDeviation="20.6097"/>
<feComposite in2="hardAlpha" operator="out"/>
<feColorMatrix type="matrix" values="0 0 0 0 0 0 0 0 0 0 0 0 0 0 0 0 0 0 0.14 0"/>
<feBlend mode="normal" in2="BackgroundImageFix" result="effect1_dropShadow_12796_1136"/>
<feBlend mode="normal" in="SourceGraphic" in2="effect1_dropShadow_12796_1136" result="shape"/>
</filter>
<filter id="filter2_d_12796_1136" x="59.72" y="216.356" width="154.572" height="154.573" filterUnits="userSpaceOnUse" color-interpolation-filters="sRGB">
<feFlood flood-opacity="0" result="BackgroundImageFix"/>
<feColorMatrix in="SourceAlpha" type="matrix" values="0 0 0 0 0 0 0 0 0 0 0 0 0 0 0 0 0 0 127 0" result="hardAlpha"/>
<feOffset/>
<feGaussianBlur stdDeviation="20.6097"/>
<feComposite in2="hardAlpha" operator="out"/>
<feColorMatrix type="matrix" values="0 0 0 0 0 0 0 0 0 0 0 0 0 0 0 0 0 0 0.14 0"/>
<feBlend mode="normal" in2="BackgroundImageFix" result="effect1_dropShadow_12796_1136"/>
<feBlend mode="normal" in="SourceGraphic" in2="effect1_dropShadow_12796_1136" result="shape"/>
</filter>
<linearGradient id="paint0_linear_12796_1136" x1="440.116" y1="162.948" x2="375.825" y2="200.067" gradientUnits="userSpaceOnUse">
<stop stop-color="#AD4D32"/>
<stop offset="1" stop-color="#FA8C3D"/>
</linearGradient>
<clipPath id="clip0_12796_1136">
<rect width="114.742" height="63.8484" fill="white" transform="translate(339.463 158.372)"/>
</clipPath>
</defs>
</svg>
