<svg width="528" height="394" viewBox="0 0 528 394" fill="none" xmlns="http://www.w3.org/2000/svg">
<g clip-path="url(#clip0_12796_1089)">
<rect width="528" height="394" rx="20" fill="#0061A4" fill-opacity="0.05"/>
<g filter="url(#filter0_dddd_12796_1089)">
<g clip-path="url(#clip1_12796_1089)">
<rect x="40" y="40" width="225" height="170.97" fill="#F4F4F4"/>
<path d="M44.3251 73.8867C44.3235 68.7095 48.5201 64.5117 53.6973 64.5118L252.672 64.5133C257.848 64.5133 262.044 68.7093 262.044 73.8854V197.876C262.044 203.052 257.848 207.248 252.672 207.249L53.7351 207.256C48.56 207.256 44.3642 203.062 44.3626 197.887L44.3251 73.8867Z" fill="white"/>
<path d="M60.7249 76.6966C101.976 76.6831 143.773 76.3153 184.976 76.7684L242.19 76.7295L242.201 94.8673C236.466 96.2257 202.029 95.1244 194.539 95.1222L60.7627 95.1406C60.6385 89.0967 60.7303 82.7648 60.7249 76.6966Z" fill="#F1F2F9"/>
<path d="M184.975 76.7679L242.189 76.729L242.2 94.8667C234.564 93.8432 186.957 95.8752 184.289 94.1198L184.413 77.8773L184.975 76.7679Z" fill="#0061A4"/>
<path d="M60.7249 76.6966C101.976 76.6831 143.773 76.3153 184.976 76.7684L184.414 77.8778C170.007 77.5143 154.643 77.7855 140.139 77.7957L61.8643 77.8195V94.0042L146.117 94.0398L171 93.9869C174.284 93.9783 181.32 93.786 184.29 94.1203C186.958 95.8757 234.565 93.8437 242.201 94.8673C236.466 96.2257 202.029 95.1244 194.539 95.1222L60.7627 95.1406C60.6385 89.0967 60.7303 82.7648 60.7249 76.6966Z" fill="#0061A4"/>
<rect opacity="0.2" x="94.0879" y="169.917" width="149.004" height="4.9668" rx="2.4834" fill="#0061A4"/>
<rect opacity="0.2" x="94.0879" y="180.678" width="91.8858" height="4.9668" rx="2.4834" fill="#0061A4"/>
<rect opacity="0.2" x="94.0156" y="138.664" width="149.004" height="4.9668" rx="2.4834" fill="#0061A4"/>
<rect opacity="0.2" x="94.0156" y="149.426" width="91.8858" height="4.9668" rx="2.4834" fill="#0061A4"/>
<path opacity="0.2" d="M60.8728 170.264L85.6647 170.28L85.6485 195.121L60.8242 195.118L60.8728 170.264Z" fill="#FA8C3D"/>
<path opacity="0.2" d="M60.8512 107.442L85.6647 107.451L85.6215 132.301L60.8242 132.286L60.8512 107.442Z" fill="#FA8C3D"/>
<path opacity="0.2" d="M60.8609 138.857L85.6582 138.865L85.6474 163.697L60.834 163.706L60.8609 138.857Z" fill="#FA8C3D"/>
<rect opacity="0.2" x="94.1953" y="107.823" width="149.004" height="4.9668" rx="2.4834" fill="#0061A4"/>
<rect opacity="0.2" x="94.1953" y="118.584" width="91.8858" height="4.9668" rx="2.4834" fill="#0061A4"/>
<path d="M80.7122 48.2678C82.7156 47.7515 84.7622 48.9505 85.2968 50.9533C85.8314 52.9561 84.6489 55.0139 82.6508 55.5643C80.6312 56.1212 78.5413 54.9226 78.0013 52.895C77.4613 50.868 78.6763 48.7896 80.7122 48.2678Z" fill="#80BD28"/>
<path d="M67.0021 48.3998C68.2604 48.045 69.6104 48.3928 70.5392 49.3099C71.4681 50.227 71.8299 51.5725 71.4897 52.8331C71.1549 54.0943 70.1612 55.0757 68.903 55.4035C66.9752 55.9037 65.0096 54.7603 64.4857 52.8407C63.9673 50.9211 65.0905 48.9405 67.0021 48.3998Z" fill="#FFB566"/>
<path d="M52.9835 48.4048C54.9113 47.8538 56.9202 48.9708 57.471 50.899C58.0164 52.8273 56.8986 54.8354 54.9707 55.3826C53.0483 55.9292 51.0394 54.8122 50.494 52.8861C49.9432 50.9606 51.061 48.9546 52.9835 48.4048Z" fill="#FE5675"/>
</g>
</g>
<g filter="url(#filter1_d_12796_1089)">
<circle cx="124.031" cy="306.031" r="30.0314" fill="white"/>
</g>
<path d="M126.918 299.293C126.918 300.888 125.625 302.181 124.03 302.181C122.435 302.181 121.143 300.888 121.143 299.293C121.143 297.699 122.435 296.406 124.03 296.406C125.625 296.406 126.918 297.699 126.918 299.293Z" stroke="#141B34" stroke-width="1.44382"/>
<path d="M124.031 302.181V303.143M124.031 303.143C124.031 304.04 124.031 304.489 124.202 304.842C124.43 305.314 124.867 305.689 125.417 305.884C125.83 306.031 126.353 306.031 127.4 306.031C128.446 306.031 128.969 306.031 129.382 306.177C129.932 306.373 130.37 306.748 130.598 307.219C130.769 307.573 130.769 308.021 130.769 308.918V309.881M124.031 303.143C124.031 304.04 124.031 304.489 123.86 304.842C123.632 305.314 123.195 305.689 122.644 305.884C122.232 306.031 121.708 306.031 120.662 306.031C119.615 306.031 119.092 306.031 118.679 306.177C118.129 306.373 117.692 306.748 117.464 307.219C117.293 307.573 117.293 308.021 117.293 308.918V309.881" stroke="#141B34" stroke-width="1.44382" stroke-linecap="round" stroke-linejoin="round"/>
<path d="M120.182 312.769C120.182 314.364 118.889 315.657 117.294 315.657C115.699 315.657 114.406 314.364 114.406 312.769C114.406 311.174 115.699 309.881 117.294 309.881C118.889 309.881 120.182 311.174 120.182 312.769Z" stroke="#141B34" stroke-width="1.44382"/>
<path d="M133.656 312.769C133.656 314.364 132.363 315.657 130.768 315.657C129.174 315.657 127.881 314.364 127.881 312.769C127.881 311.174 129.174 309.881 130.768 309.881C132.363 309.881 133.656 311.174 133.656 312.769Z" stroke="#141B34" stroke-width="1.44382"/>
<path d="M168.863 311.031L173.375 299.712H175.448L179.976 311.031H177.967L176.899 308.226H171.861L170.793 311.031H168.863ZM174.38 301.673L172.498 306.568H176.261L174.38 301.673ZM181.055 307.349V302.693H182.888V307.381C182.888 308.544 183.43 309.613 184.737 309.613C186.045 309.613 186.587 308.544 186.587 307.381V302.693H188.42V307.349C188.42 309.581 187.113 311.271 184.721 311.271C182.41 311.271 181.055 309.644 181.055 307.349ZM189.679 302.693H191.145V299.872H192.979V302.693H195.402V304.176H192.979V308.273C192.979 308.991 193.266 309.66 194.079 309.66C194.27 309.66 194.477 309.629 194.701 309.565C194.924 309.517 195.131 309.437 195.322 309.326L195.737 310.713C195.498 310.888 195.211 311.016 194.892 311.127C194.557 311.223 194.206 311.271 193.84 311.271C192.086 311.271 191.145 310.187 191.145 308.465V304.176H189.679V302.693ZM196.662 306.855C196.662 304.383 198.399 302.454 200.966 302.454C203.453 302.454 205.207 304.351 205.207 306.855C205.207 309.326 203.469 311.271 200.902 311.271C198.431 311.271 196.662 309.342 196.662 306.855ZM200.934 304.112C199.42 304.112 198.543 305.42 198.543 306.855C198.543 308.242 199.42 309.613 200.934 309.613C202.449 309.613 203.326 308.273 203.326 306.855C203.326 305.436 202.481 304.112 200.934 304.112ZM206.821 302.693H208.495L208.559 303.809C209.069 302.933 210.01 302.454 211.014 302.454C212.162 302.454 213.103 303.044 213.597 304.096C214.107 303.044 215.239 302.454 216.387 302.454C218.475 302.454 219.432 304.096 219.432 306.057V311.031H217.599V306.265C217.599 305.181 217.184 304.112 215.925 304.112C214.777 304.112 214.043 305.037 214.043 306.169V311.031H212.21V306.265C212.21 305.181 211.795 304.112 210.536 304.112C209.388 304.112 208.655 305.037 208.655 306.169V311.031H206.821V302.693ZM221.011 308.656C221.011 306.791 222.733 305.994 224.407 305.994C225.108 305.994 225.794 306.121 226.447 306.392V305.866C226.447 304.814 225.858 303.985 224.726 303.985C223.96 303.985 223.291 304.415 223.004 305.133L221.314 304.75C221.728 303.251 223.275 302.454 224.758 302.454C226.798 302.454 228.265 303.841 228.265 305.946V311.031H226.591L226.527 309.931C226.001 310.856 224.981 311.271 223.96 311.271C222.43 311.271 221.011 310.314 221.011 308.656ZM222.86 308.576C222.86 309.405 223.642 309.804 224.391 309.804C225.507 309.804 226.447 309.023 226.447 307.859V307.668C226.176 307.556 225.889 307.46 225.602 307.381C225.3 307.317 224.997 307.285 224.694 307.285C223.897 307.285 222.86 307.604 222.86 308.576ZM229.255 302.693H230.722V299.872H232.555V302.693H234.979V304.176H232.555V308.273C232.555 308.991 232.842 309.66 233.655 309.66C233.847 309.66 234.054 309.629 234.277 309.565C234.5 309.517 234.708 309.437 234.899 309.326L235.313 310.713C235.074 310.888 234.787 311.016 234.468 311.127C234.134 311.223 233.783 311.271 233.416 311.271C231.662 311.271 230.722 310.187 230.722 308.465V304.176H229.255V302.693ZM238.594 311.031H236.761V302.693H238.594V311.031ZM236.713 300.924C236.601 300.748 236.553 300.573 236.553 300.366C236.553 300.159 236.601 299.983 236.713 299.808C236.808 299.632 236.936 299.505 237.111 299.393C237.287 299.298 237.462 299.25 237.669 299.25C237.877 299.25 238.052 299.298 238.227 299.393C238.403 299.505 238.53 299.632 238.642 299.808C238.738 299.983 238.785 300.159 238.785 300.366C238.785 300.573 238.738 300.748 238.642 300.924C238.53 301.099 238.403 301.227 238.227 301.322C238.052 301.434 237.877 301.482 237.669 301.482C237.462 301.482 237.287 301.434 237.111 301.322C236.936 301.227 236.808 301.099 236.713 300.924ZM240.208 306.855C240.208 304.383 241.946 302.454 244.513 302.454C247 302.454 248.754 304.351 248.754 306.855C248.754 309.326 247.016 311.271 244.449 311.271C241.978 311.271 240.208 309.342 240.208 306.855ZM244.481 304.112C242.966 304.112 242.09 305.42 242.09 306.855C242.09 308.242 242.966 309.613 244.481 309.613C245.996 309.613 246.872 308.273 246.872 306.855C246.872 305.436 246.027 304.112 244.481 304.112ZM250.368 302.693H252.042L252.106 303.841C252.616 302.917 253.62 302.454 254.657 302.454C256.729 302.454 257.749 304.112 257.749 306.073V311.031H255.916V306.281C255.916 305.149 255.47 304.112 254.194 304.112C253.014 304.112 252.201 305.005 252.201 306.185V311.031H250.368V302.693Z" fill="black"/>
<g filter="url(#filter2_dddd_12796_1089)">
<g clip-path="url(#clip2_12796_1089)">
<rect x="319.439" y="175" width="221.56" height="234.449" fill="#F4F4F4"/>
<path d="M323.738 208.161C323.737 203.067 327.867 198.936 332.962 198.936L528.708 198.938C533.802 198.938 537.932 203.068 537.932 208.162V400.214C537.932 405.308 533.803 409.437 528.709 409.438L333.001 409.448C327.907 409.449 323.778 405.32 323.777 400.227L323.738 208.161Z" fill="white"/>
<path d="M421.548 246.608C433.428 244.272 444.939 252.054 447.201 263.95C449.458 275.846 441.606 287.308 429.695 289.491C417.898 291.655 406.562 283.886 404.323 272.098C402.084 260.309 409.78 248.924 421.548 246.608Z" fill="#0061A4"/>
<path d="M433.603 260.485L434.79 260.715C435.778 261.563 435.52 261.087 435.695 262.428C434.394 265.637 426.17 272.701 423.264 275.386L419.122 271.082C418.033 270.038 416.157 268.114 417.467 266.736C420.474 266.659 421.527 268.434 423.388 270.492L433.603 260.485Z" fill="#F1F2F9"/>
<rect opacity="0.2" x="390.547" y="330.042" width="70.4718" height="19.0274" rx="9.5137" fill="#0061A4"/>
<rect opacity="0.2" x="358.107" y="301.507" width="143.763" height="4.22831" rx="2.11416" fill="#0061A4"/>
<rect opacity="0.2" x="378.533" y="311.279" width="102.889" height="4.22831" rx="2.11416" fill="#0061A4"/>
<path d="M359.507 183.137C361.479 182.628 363.493 183.808 364.019 185.779C364.545 187.75 363.381 189.776 361.415 190.317C359.427 190.865 357.371 189.686 356.839 187.69C356.308 185.695 357.503 183.65 359.507 183.137Z" fill="#80BD28"/>
<path d="M346.015 183.267C347.253 182.918 348.582 183.26 349.496 184.163C350.41 185.065 350.766 186.389 350.431 187.63C350.102 188.871 349.124 189.837 347.886 190.16C345.988 190.652 344.054 189.527 343.538 187.637C343.028 185.748 344.134 183.799 346.015 183.267Z" fill="#FFB566"/>
<path d="M332.215 183.271C334.112 182.729 336.089 183.828 336.632 185.725C337.168 187.623 336.068 189.599 334.171 190.138C332.279 190.676 330.302 189.576 329.765 187.681C329.223 185.786 330.323 183.812 332.215 183.271Z" fill="#FE5675"/>
</g>
</g>
<path d="M125 272L130.774 262H119.226L125 272ZM125 213H124V215.95H125H126V213H125ZM125 221.85H124V227.75H125H126V221.85H125ZM125 233.65H124V239.55H125H126V233.65H125ZM125 245.45H124V251.35H125H126V245.45H125ZM125 257.25H124V263.15H125H126V257.25H125Z" fill="#FA8C3D"/>
<path d="M315 306L305 300.226L305 311.774L315 306ZM267 306L267 307L270 307L270 306L270 305L267 305L267 306ZM276 306L276 307L282 307L282 306L282 305L276 305L276 306ZM288 306L288 307L294 307L294 306L294 305L288 305L288 306ZM300 306L300 307L306 307L306 306L306 305L300 305L300 306Z" fill="#FA8C3D"/>
</g>
<defs>
<filter id="filter0_dddd_12796_1089" x="-140.854" y="7.57104" width="415.832" height="275.741" filterUnits="userSpaceOnUse" color-interpolation-filters="sRGB">
<feFlood flood-opacity="0" result="BackgroundImageFix"/>
<feColorMatrix in="SourceAlpha" type="matrix" values="0 0 0 0 0 0 0 0 0 0 0 0 0 0 0 0 0 0 127 0" result="hardAlpha"/>
<feOffset dx="-8.10724" dy="1.24727"/>
<feGaussianBlur stdDeviation="9.04269"/>
<feColorMatrix type="matrix" values="0 0 0 0 0 0 0 0 0 0 0 0 0 0 0 0 0 0 0.06 0"/>
<feBlend mode="normal" in2="BackgroundImageFix" result="effect1_dropShadow_12796_1089"/>
<feColorMatrix in="SourceAlpha" type="matrix" values="0 0 0 0 0 0 0 0 0 0 0 0 0 0 0 0 0 0 127 0" result="hardAlpha"/>
<feOffset dx="-32.429" dy="4.98907"/>
<feGaussianBlur stdDeviation="16.2145"/>
<feColorMatrix type="matrix" values="0 0 0 0 0 0 0 0 0 0 0 0 0 0 0 0 0 0 0.05 0"/>
<feBlend mode="normal" in2="effect1_dropShadow_12796_1089" result="effect2_dropShadow_12796_1089"/>
<feColorMatrix in="SourceAlpha" type="matrix" values="0 0 0 0 0 0 0 0 0 0 0 0 0 0 0 0 0 0 127 0" result="hardAlpha"/>
<feOffset dx="-72.3415" dy="11.2254"/>
<feGaussianBlur stdDeviation="21.8272"/>
<feColorMatrix type="matrix" values="0 0 0 0 0 0 0 0 0 0 0 0 0 0 0 0 0 0 0.03 0"/>
<feBlend mode="normal" in2="effect2_dropShadow_12796_1089" result="effect3_dropShadow_12796_1089"/>
<feColorMatrix in="SourceAlpha" type="matrix" values="0 0 0 0 0 0 0 0 0 0 0 0 0 0 0 0 0 0 127 0" result="hardAlpha"/>
<feOffset dx="-128.469" dy="19.9563"/>
<feGaussianBlur stdDeviation="26.1926"/>
<feColorMatrix type="matrix" values="0 0 0 0 0 0 0 0 0 0 0 0 0 0 0 0 0 0 0.01 0"/>
<feBlend mode="normal" in2="effect3_dropShadow_12796_1089" result="effect4_dropShadow_12796_1089"/>
<feBlend mode="normal" in="SourceGraphic" in2="effect4_dropShadow_12796_1089" result="shape"/>
</filter>
<filter id="filter1_d_12796_1089" x="68.5888" y="250.589" width="110.885" height="110.885" filterUnits="userSpaceOnUse" color-interpolation-filters="sRGB">
<feFlood flood-opacity="0" result="BackgroundImageFix"/>
<feColorMatrix in="SourceAlpha" type="matrix" values="0 0 0 0 0 0 0 0 0 0 0 0 0 0 0 0 0 0 127 0" result="hardAlpha"/>
<feOffset/>
<feGaussianBlur stdDeviation="12.7056"/>
<feComposite in2="hardAlpha" operator="out"/>
<feColorMatrix type="matrix" values="0 0 0 0 0 0 0 0 0 0 0 0 0 0 0 0 0 0 0.15 0"/>
<feBlend mode="normal" in2="BackgroundImageFix" result="effect1_dropShadow_12796_1089"/>
<feBlend mode="normal" in="SourceGraphic" in2="effect1_dropShadow_12796_1089" result="shape"/>
</filter>
<filter id="filter2_dddd_12796_1089" x="203.444" y="122.218" width="432.072" height="342.11" filterUnits="userSpaceOnUse" color-interpolation-filters="sRGB">
<feFlood flood-opacity="0" result="BackgroundImageFix"/>
<feColorMatrix in="SourceAlpha" type="matrix" values="0 0 0 0 0 0 0 0 0 0 0 0 0 0 0 0 0 0 127 0" result="hardAlpha"/>
<feOffset dx="66.2839" dy="-24.5496"/>
<feGaussianBlur stdDeviation="14.116"/>
<feColorMatrix type="matrix" values="0 0 0 0 0 0 0 0 0 0 0 0 0 0 0 0 0 0 0.01 0"/>
<feBlend mode="normal" in2="BackgroundImageFix" result="effect1_dropShadow_12796_1089"/>
<feColorMatrix in="SourceAlpha" type="matrix" values="0 0 0 0 0 0 0 0 0 0 0 0 0 0 0 0 0 0 127 0" result="hardAlpha"/>
<feOffset dx="-8.10724" dy="1.24727"/>
<feGaussianBlur stdDeviation="9.04269"/>
<feColorMatrix type="matrix" values="0 0 0 0 0 0 0 0 0 0 0 0 0 0 0 0 0 0 0.06 0"/>
<feBlend mode="normal" in2="effect1_dropShadow_12796_1089" result="effect2_dropShadow_12796_1089"/>
<feColorMatrix in="SourceAlpha" type="matrix" values="0 0 0 0 0 0 0 0 0 0 0 0 0 0 0 0 0 0 127 0" result="hardAlpha"/>
<feOffset dx="-32.429" dy="4.98907"/>
<feGaussianBlur stdDeviation="16.2145"/>
<feColorMatrix type="matrix" values="0 0 0 0 0 0 0 0 0 0 0 0 0 0 0 0 0 0 0.05 0"/>
<feBlend mode="normal" in2="effect2_dropShadow_12796_1089" result="effect3_dropShadow_12796_1089"/>
<feColorMatrix in="SourceAlpha" type="matrix" values="0 0 0 0 0 0 0 0 0 0 0 0 0 0 0 0 0 0 127 0" result="hardAlpha"/>
<feOffset dx="-72.3415" dy="11.2254"/>
<feGaussianBlur stdDeviation="21.8272"/>
<feColorMatrix type="matrix" values="0 0 0 0 0 0 0 0 0 0 0 0 0 0 0 0 0 0 0.03 0"/>
<feBlend mode="normal" in2="effect3_dropShadow_12796_1089" result="effect4_dropShadow_12796_1089"/>
<feBlend mode="normal" in="SourceGraphic" in2="effect4_dropShadow_12796_1089" result="shape"/>
</filter>
<clipPath id="clip0_12796_1089">
<rect width="528" height="394" rx="20" fill="white"/>
</clipPath>
<clipPath id="clip1_12796_1089">
<rect x="40" y="40" width="225" height="170.97" rx="10.093" fill="white"/>
</clipPath>
<clipPath id="clip2_12796_1089">
<rect x="319.439" y="175" width="221.56" height="234.449" rx="9.93293" fill="white"/>
</clipPath>
</defs>
</svg>
