<svg width="686" height="544" viewBox="0 0 686 544" fill="none" xmlns="http://www.w3.org/2000/svg">
<rect width="686" height="544" rx="30" fill="white"/>
<path d="M247.412 101.422L240.294 87.7314L242.845 86.4051L249.963 100.096L247.412 101.422ZM235.923 90.5437L234.752 88.2903L246.508 82.1787L247.68 84.4321L235.923 90.5437ZM261.095 94.4883L254.58 78.2561L257.182 77.2119L261.028 86.7956L260.494 87.0098C260.018 85.8239 259.759 84.7489 259.716 83.785C259.683 82.8002 259.888 81.9606 260.332 81.266C260.785 80.5506 261.493 79.9996 262.457 79.6128L262.568 79.5682C263.976 79.003 265.227 79.052 266.319 79.7151C267.426 80.3723 268.337 81.5904 269.051 83.3693L271.79 90.1957L269.189 91.2399L266.297 84.0354C265.952 83.1756 265.429 82.6023 264.729 82.3154C264.038 82.0077 263.299 82.0115 262.513 82.3268C261.668 82.6659 261.1 83.2213 260.807 83.9928C260.514 84.7644 260.552 85.6097 260.921 86.5288L263.696 93.4442L261.095 94.4883ZM285.284 86.0181C284.21 86.3296 283.221 86.4169 282.316 86.2801C281.412 86.1433 280.62 85.8492 279.94 85.3977C279.256 84.931 278.674 84.3595 278.195 83.6835C277.727 82.9876 277.378 82.2408 277.146 81.4431L277.019 81.0059C276.784 80.1928 276.679 79.3748 276.707 78.5519C276.745 77.7092 276.931 76.9153 277.263 76.1701C277.592 75.4097 278.088 74.7417 278.753 74.1664C279.428 73.5713 280.28 73.1246 281.308 72.8265C282.643 72.4394 283.839 72.4082 284.898 72.7331C285.957 73.058 286.845 73.6238 287.561 74.4305C288.273 75.222 288.785 76.1546 289.096 77.2285L289.41 78.31L278.41 81.5005L277.883 79.6826L287.065 77.0194L286.595 78.1535C286.355 77.325 286.018 76.6495 285.583 76.1269C285.144 75.5889 284.625 75.2322 284.025 75.0569C283.421 74.8662 282.736 74.8822 281.969 75.1046C281.171 75.336 280.557 75.7137 280.127 76.2376C279.697 76.7616 279.445 77.3835 279.371 78.1035C279.297 78.8234 279.387 79.6206 279.64 80.4951C279.881 81.3235 280.227 82.0297 280.679 82.6137C281.127 83.1824 281.682 83.5784 282.346 83.8017C283.005 84.0097 283.764 83.9891 284.623 83.7399C285.482 83.4907 286.134 83.102 286.58 82.5736C287.021 82.0299 287.229 81.4871 287.205 80.9452L289.714 80.2177C289.79 81.1104 289.658 81.9469 289.319 82.7272C288.995 83.503 288.491 84.1731 287.806 84.7376C287.122 85.302 286.281 85.7288 285.284 86.0181ZM312.313 79.3378L310.195 64.0536L313.043 63.659L315.161 78.9432L312.313 79.3378ZM305.134 65.2385L304.786 62.7228L317.91 60.9043L318.259 63.42L305.134 65.2385ZM331.68 77.7572C330.563 77.8093 329.581 77.6633 328.733 77.3191C327.886 76.9749 327.184 76.504 326.628 75.9063C326.072 75.2926 325.64 74.6012 325.332 73.832C325.04 73.0461 324.874 72.2383 324.835 71.4086L324.814 70.9539C324.775 70.1082 324.864 69.2885 325.083 68.4947C325.317 67.6843 325.683 66.9556 326.18 66.3087C326.677 65.6459 327.316 65.1124 328.096 64.7082C328.892 64.2872 329.825 64.0518 330.894 64.0019C332.282 63.9371 333.453 64.1862 334.407 64.7494C335.36 65.3125 336.091 66.0699 336.6 67.0216C337.107 67.9574 337.387 68.9837 337.439 70.1006L337.491 71.2255L326.051 71.7596L325.963 69.8688L335.512 69.423L334.791 70.4161C334.751 69.5545 334.581 68.8189 334.28 68.2093C333.979 67.5837 333.558 67.1156 333.016 66.8052C332.473 66.4787 331.802 66.3341 331.004 66.3714C330.175 66.4101 329.49 66.634 328.949 67.043C328.408 67.452 328.018 67.9979 327.778 68.6807C327.538 69.3635 327.44 70.1597 327.482 71.0692C327.522 71.9308 327.694 72.6983 327.997 73.3718C328.3 74.0293 328.748 74.544 329.341 74.9161C329.933 75.2723 330.676 75.4295 331.569 75.3877C332.463 75.346 333.188 75.1203 333.744 74.7105C334.3 74.2848 334.63 73.8057 334.733 73.2732L337.342 73.1514C337.207 74.0372 336.884 74.8198 336.372 75.4993C335.876 76.1781 335.229 76.712 334.432 77.101C333.634 77.4901 332.717 77.7088 331.68 77.7572ZM351.022 77.5456C349.922 77.4915 348.965 77.2607 348.154 76.853C347.359 76.4302 346.706 75.8864 346.195 75.2216C345.7 74.5416 345.337 73.8041 345.104 73.009C344.888 72.1988 344.8 71.3868 344.84 70.5732L344.861 70.1424C344.902 69.2968 345.078 68.4898 345.388 67.7214C345.698 66.937 346.14 66.239 346.714 65.6275C347.288 65.016 347.982 64.5463 348.798 64.2185C349.63 63.8756 350.589 63.7307 351.674 63.784C352.775 63.838 353.746 64.0936 354.587 64.5507C355.444 65.0086 356.117 65.6334 356.606 66.425C357.096 67.2007 357.348 68.0927 357.362 69.1009L354.658 68.9681C354.598 68.2455 354.3 67.6232 353.766 67.1012C353.248 66.58 352.51 66.2959 351.553 66.2489C350.723 66.2082 350.028 66.3659 349.467 66.7222C348.906 67.0785 348.473 67.585 348.169 68.2418C347.865 68.8826 347.693 69.6337 347.65 70.4952C347.61 71.3249 347.7 72.081 347.923 72.7636C348.161 73.447 348.542 73.9934 349.066 74.4029C349.605 74.8133 350.298 75.0392 351.143 75.0807C351.798 75.1128 352.361 75.0285 352.835 74.8279C353.325 74.6121 353.724 74.3198 354.03 73.951C354.336 73.5662 354.526 73.1197 354.599 72.6116L357.327 72.7455C357.228 73.7801 356.889 74.6671 356.309 75.4062C355.73 76.1294 354.983 76.6845 354.068 77.0714C353.155 77.4424 352.139 77.6004 351.022 77.5456ZM364.636 77.9409L367.183 60.6366L369.956 61.0449L368.452 71.2615L367.883 71.1778C368.07 69.9135 368.387 68.8543 368.836 68.0001C369.302 67.1323 369.903 66.5103 370.636 66.1339C371.388 65.7441 372.277 65.6248 373.304 65.776L373.423 65.7934C374.924 66.0144 375.98 66.6865 376.589 67.8096C377.215 68.9349 377.388 70.4458 377.109 72.3422L376.037 79.6195L373.264 79.2112L374.395 71.5309C374.53 70.6143 374.367 69.8557 373.906 69.2551C373.464 68.6411 372.824 68.2724 371.986 68.1491C371.086 68.0164 370.314 68.2097 369.673 68.7288C369.031 69.2479 368.639 69.9973 368.494 70.9771L367.409 78.3492L364.636 77.9409ZM394.642 83.4595L400.071 66.8326L403.761 68.0374L404.888 80.0248L405.275 80.1512L413.213 71.1237L416.948 72.3434L411.519 88.9703L408.809 88.0853L413.442 73.8955L413.701 74.0303L405.597 83.2558L402.59 82.2741L401.447 70.0292L401.78 70.0877L397.147 84.2776L394.642 83.4595ZM424.824 94.6374C423.808 94.17 423.003 93.5886 422.409 92.8931C421.814 92.1976 421.408 91.4567 421.19 90.6705C420.978 89.8697 420.912 89.057 420.993 88.2325C421.094 87.4001 421.319 86.6066 421.666 85.8521L421.856 85.4385C422.21 84.6695 422.667 83.9828 423.226 83.3787C423.807 82.7666 424.467 82.2878 425.206 81.9423C425.952 81.5822 426.765 81.4022 427.644 81.4023C428.544 81.3946 429.48 81.6145 430.452 82.0618C431.715 82.6428 432.64 83.4026 433.228 84.3413C433.816 85.28 434.116 86.2887 434.13 87.3675C434.15 88.4318 433.927 89.4718 433.459 90.4875L432.988 91.5105L422.584 86.7229L423.375 85.0034L432.06 88.9998L430.963 89.5499C431.324 88.7663 431.511 88.0348 431.524 87.3554C431.545 86.6614 431.386 86.0519 431.047 85.5269C430.715 84.9873 430.186 84.5505 429.461 84.2167C428.706 83.8695 427.995 83.7531 427.327 83.8677C426.659 83.9822 426.061 84.2875 425.534 84.7834C425.007 85.2793 424.553 85.9409 424.172 86.768C423.812 87.5515 423.611 88.3121 423.571 89.0496C423.537 89.7725 423.698 90.4356 424.053 91.0387C424.415 91.6274 425.003 92.1086 425.815 92.4826C426.628 92.8565 427.376 92.9895 428.058 92.8817C428.748 92.7593 429.26 92.4854 429.597 92.0599L431.969 93.1517C431.443 93.8763 430.796 94.4226 430.028 94.7905C429.276 95.1651 428.456 95.3417 427.569 95.3204C426.682 95.2991 425.767 95.0714 424.824 94.6374ZM441.162 102.722C439.654 101.851 438.662 100.854 438.186 99.7307C437.723 98.6151 437.795 97.4851 438.4 96.3408L440.641 97.6349C440.429 98.0659 440.424 98.5701 440.625 99.1476C440.827 99.725 441.384 100.277 442.297 100.805C443.071 101.252 443.768 101.451 444.386 101.403C445.005 101.354 445.446 101.102 445.709 100.645C445.949 100.23 445.971 99.8092 445.774 99.3823C445.6 98.9496 445.15 98.468 444.423 97.9377L443.383 97.1988C442.307 96.4113 441.59 95.5451 441.232 94.6004C440.887 93.6636 440.987 92.725 441.53 91.7844C441.961 91.0375 442.512 90.5159 443.181 90.2198C443.85 89.9238 444.589 89.8251 445.399 89.924C446.223 90.0308 447.063 90.3318 447.921 90.8271C449.249 91.5941 450.149 92.5106 450.622 93.5767C451.102 94.629 451.029 95.7302 450.401 96.8804L448.181 95.5982C448.401 95.1535 448.408 94.678 448.203 94.1718C447.997 93.6657 447.528 93.2009 446.795 92.7775C446.103 92.378 445.49 92.2088 444.957 92.2697C444.438 92.3387 444.054 92.5875 443.807 93.0163C443.583 93.4036 443.546 93.7878 443.694 94.1689C443.843 94.55 444.209 94.9549 444.791 95.3835L445.831 96.1224C447.01 96.9877 447.802 97.9156 448.208 98.9061C448.635 99.8908 448.561 100.881 447.986 101.877C447.571 102.596 447.006 103.11 446.294 103.418C445.581 103.725 444.777 103.824 443.882 103.713C443.009 103.596 442.102 103.266 441.162 102.722ZM456.337 112.031C454.9 111.048 453.988 109.978 453.599 108.821C453.223 107.673 453.381 106.552 454.072 105.458L456.207 106.919C455.963 107.333 455.919 107.835 456.076 108.426C456.232 109.017 456.746 109.611 457.616 110.206C458.354 110.711 459.033 110.963 459.653 110.962C460.274 110.961 460.733 110.743 461.03 110.308C461.301 109.912 461.355 109.494 461.192 109.054C461.051 108.609 460.639 108.094 459.955 107.51L458.975 106.694C457.962 105.826 457.313 104.908 457.028 103.939C456.756 102.978 456.927 102.05 457.541 101.154C458.028 100.442 458.616 99.964 459.306 99.7199C459.996 99.4758 460.741 99.434 461.54 99.5945C462.354 99.7639 463.169 100.128 463.986 100.688C465.251 101.554 466.079 102.537 466.469 103.636C466.867 104.722 466.71 105.814 465.997 106.913L463.881 105.465C464.134 105.038 464.178 104.565 464.011 104.044C463.845 103.524 463.412 103.024 462.714 102.546C462.055 102.095 461.457 101.88 460.921 101.9C460.398 101.929 459.996 102.147 459.716 102.556C459.464 102.925 459.397 103.305 459.516 103.697C459.636 104.088 459.969 104.52 460.517 104.992L461.498 105.808C462.607 106.761 463.326 107.746 463.654 108.765C464.005 109.779 463.856 110.761 463.206 111.71C462.737 112.396 462.135 112.865 461.401 113.117C460.667 113.369 459.858 113.406 458.974 113.227C458.113 113.043 457.234 112.645 456.337 112.031Z" fill="black"/>
<path opacity="0.34" d="M192.785 304.834L345.026 407.967L415.007 231.049M345.026 407.967L247.908 225.407M345.026 407.967L327.335 185.042" stroke="#0061A4" stroke-width="0.868056"/>
<rect x="285.998" y="270" width="96" height="21.6" fill="white"/>
<g filter="url(#filter0_d_12547_10135)">
<circle cx="231.218" cy="199.597" r="34.0615" fill="white"/>
<circle cx="231.218" cy="199.597" r="35.0936" stroke="white" stroke-width="2.06433"/>
</g>
<path d="M220.202 203.82C219.357 203.82 218.631 203.674 218.025 203.384C217.418 203.085 216.923 202.697 216.539 202.218C216.154 201.732 215.868 201.211 215.68 200.656C215.501 200.092 215.411 199.546 215.411 199.016V198.734C215.411 198.154 215.505 197.582 215.693 197.018C215.881 196.446 216.167 195.929 216.551 195.468C216.944 195.007 217.435 194.64 218.025 194.367C218.622 194.085 219.327 193.944 220.138 193.944C220.983 193.944 221.731 194.102 222.38 194.418C223.029 194.734 223.545 195.173 223.929 195.737C224.322 196.292 224.553 196.945 224.621 197.697H222.508C222.448 197.321 222.311 197.001 222.098 196.736C221.884 196.471 221.607 196.267 221.265 196.121C220.932 195.976 220.556 195.904 220.138 195.904C219.72 195.904 219.348 195.976 219.024 196.121C218.699 196.267 218.426 196.471 218.204 196.736C217.99 197.001 217.824 197.317 217.704 197.684C217.593 198.043 217.538 198.444 217.538 198.888C217.538 199.324 217.593 199.725 217.704 200.092C217.824 200.451 217.995 200.767 218.217 201.04C218.447 201.305 218.729 201.51 219.062 201.655C219.395 201.791 219.775 201.86 220.202 201.86C220.851 201.86 221.398 201.702 221.842 201.386C222.294 201.07 222.567 200.634 222.661 200.079H224.762C224.685 200.762 224.455 201.39 224.07 201.962C223.695 202.526 223.178 202.978 222.52 203.32C221.871 203.653 221.099 203.82 220.202 203.82ZM230.28 203.576V201.501H229.934V199.247C229.934 198.888 229.849 198.619 229.678 198.44C229.507 198.26 229.234 198.171 228.858 198.171C228.671 198.171 228.423 198.175 228.115 198.184C227.808 198.192 227.492 198.205 227.168 198.222C226.843 198.239 226.549 198.256 226.284 198.273V196.544C226.48 196.527 226.711 196.51 226.975 196.493C227.24 196.476 227.513 196.463 227.795 196.454C228.077 196.446 228.342 196.442 228.589 196.442C229.307 196.442 229.909 196.544 230.395 196.749C230.891 196.954 231.266 197.266 231.523 197.684C231.779 198.094 231.907 198.623 231.907 199.272V203.576H230.28ZM228.039 203.755C227.535 203.755 227.091 203.666 226.706 203.487C226.331 203.307 226.036 203.051 225.823 202.718C225.609 202.376 225.502 201.971 225.502 201.501C225.502 200.989 225.635 200.57 225.9 200.246C226.164 199.913 226.536 199.669 227.014 199.516C227.492 199.353 228.043 199.272 228.666 199.272H230.165V200.412H228.653C228.295 200.412 228.017 200.502 227.821 200.681C227.633 200.852 227.539 201.087 227.539 201.386C227.539 201.668 227.633 201.898 227.821 202.078C228.017 202.248 228.295 202.334 228.653 202.334C228.884 202.334 229.089 202.295 229.268 202.218C229.456 202.133 229.61 201.992 229.729 201.796C229.849 201.599 229.917 201.326 229.934 200.976L230.421 201.488C230.378 201.975 230.259 202.385 230.062 202.718C229.875 203.051 229.61 203.307 229.268 203.487C228.935 203.666 228.525 203.755 228.039 203.755ZM233.735 203.576V194.226H235.798V203.576H233.735ZM232.903 195.737V194.226H235.798V195.737H232.903ZM237.776 203.576V194.226H239.838V203.576H237.776ZM236.943 195.737V194.226H239.838V195.737H236.943ZM244.391 203.794C243.392 203.794 242.61 203.589 242.047 203.179C241.483 202.769 241.184 202.193 241.15 201.45H242.969C243.003 201.672 243.135 201.873 243.366 202.052C243.605 202.223 243.959 202.308 244.429 202.308C244.788 202.308 245.082 202.248 245.313 202.129C245.552 202.001 245.672 201.821 245.672 201.591C245.672 201.386 245.582 201.224 245.403 201.104C245.223 200.976 244.903 200.886 244.442 200.835L243.891 200.784C243.046 200.698 242.41 200.464 241.983 200.079C241.564 199.695 241.355 199.204 241.355 198.606C241.355 198.111 241.479 197.697 241.726 197.364C241.974 197.031 242.316 196.779 242.751 196.608C243.195 196.437 243.699 196.352 244.263 196.352C245.168 196.352 245.898 196.553 246.453 196.954C247.008 197.347 247.298 197.919 247.324 198.67H245.505C245.471 198.44 245.351 198.248 245.146 198.094C244.941 197.932 244.638 197.851 244.237 197.851C243.921 197.851 243.669 197.91 243.481 198.03C243.293 198.149 243.199 198.312 243.199 198.517C243.199 198.713 243.281 198.862 243.443 198.965C243.605 199.067 243.87 199.14 244.237 199.183L244.788 199.234C245.65 199.328 246.321 199.567 246.799 199.951C247.277 200.336 247.516 200.852 247.516 201.501C247.516 201.971 247.388 202.381 247.132 202.731C246.876 203.072 246.513 203.337 246.043 203.525C245.573 203.704 245.023 203.794 244.391 203.794Z" fill="black"/>
<path d="M263.124 172.478C263.124 167.685 259.238 163.799 254.445 163.799C249.651 163.799 245.766 167.685 245.766 172.478C245.766 177.271 249.651 181.157 254.445 181.157C259.238 181.157 263.124 177.271 263.124 172.478Z" fill="#0CB146"/>
<path d="M250.975 172.912L253.144 175.082L257.918 169.874" stroke="white" stroke-width="1.30187" stroke-linecap="round" stroke-linejoin="round"/>
<path d="M294.851 285.835C294.096 285.835 293.453 285.715 292.923 285.474C292.401 285.224 292.003 284.887 291.73 284.461C291.456 284.027 291.32 283.537 291.32 282.991H292.742C292.742 283.24 292.81 283.485 292.947 283.726C293.084 283.967 293.305 284.168 293.61 284.328C293.915 284.481 294.329 284.557 294.851 284.557C295.326 284.557 295.715 284.489 296.021 284.353C296.334 284.216 296.563 284.035 296.708 283.81C296.86 283.585 296.937 283.336 296.937 283.063C296.937 282.725 296.792 282.452 296.503 282.243C296.214 282.026 295.78 281.894 295.201 281.846L294.321 281.761C293.51 281.697 292.863 281.448 292.381 281.014C291.898 280.572 291.657 279.993 291.657 279.278C291.657 278.732 291.786 278.258 292.043 277.856C292.308 277.454 292.678 277.141 293.152 276.916C293.626 276.683 294.177 276.566 294.803 276.566C295.446 276.566 296.005 276.683 296.479 276.916C296.953 277.141 297.318 277.462 297.576 277.88C297.841 278.29 297.973 278.78 297.973 279.35H296.551C296.551 279.093 296.487 278.852 296.358 278.627C296.238 278.394 296.049 278.205 295.792 278.061C295.535 277.916 295.205 277.844 294.803 277.844C294.418 277.844 294.096 277.912 293.839 278.049C293.59 278.185 293.401 278.362 293.273 278.579C293.144 278.796 293.08 279.029 293.08 279.278C293.08 279.575 293.192 279.841 293.417 280.074C293.642 280.299 293.988 280.431 294.454 280.471L295.322 280.544C295.94 280.592 296.475 280.725 296.925 280.942C297.383 281.15 297.736 281.432 297.985 281.785C298.242 282.139 298.371 282.565 298.371 283.063C298.371 283.609 298.222 284.091 297.925 284.509C297.636 284.927 297.226 285.253 296.696 285.486C296.173 285.719 295.559 285.835 294.851 285.835ZM304.176 285.835C303.381 285.835 302.694 285.699 302.115 285.425C301.545 285.144 301.071 284.774 300.693 284.316C300.315 283.858 300.034 283.368 299.849 282.846C299.672 282.316 299.584 281.809 299.584 281.327V281.062C299.584 280.532 299.676 280.001 299.861 279.471C300.054 278.941 300.339 278.459 300.717 278.025C301.103 277.583 301.581 277.229 302.151 276.964C302.73 276.699 303.405 276.566 304.176 276.566C304.948 276.566 305.619 276.699 306.189 276.964C306.76 277.229 307.238 277.583 307.624 278.025C308.009 278.459 308.295 278.941 308.479 279.471C308.672 280.001 308.769 280.532 308.769 281.062V281.327C308.769 281.809 308.676 282.316 308.491 282.846C308.307 283.368 308.025 283.858 307.648 284.316C307.278 284.774 306.804 285.144 306.225 285.425C305.647 285.699 304.964 285.835 304.176 285.835ZM304.176 284.497C304.658 284.497 305.092 284.409 305.478 284.232C305.864 284.055 306.193 283.814 306.466 283.509C306.74 283.204 306.945 282.854 307.081 282.46C307.226 282.066 307.298 281.649 307.298 281.207C307.298 280.741 307.226 280.311 307.081 279.917C306.937 279.515 306.728 279.166 306.454 278.868C306.189 278.563 305.864 278.326 305.478 278.157C305.092 277.988 304.658 277.904 304.176 277.904C303.694 277.904 303.26 277.988 302.875 278.157C302.489 278.326 302.159 278.563 301.886 278.868C301.613 279.166 301.404 279.515 301.259 279.917C301.123 280.311 301.055 280.741 301.055 281.207C301.055 281.649 301.123 282.066 301.259 282.46C301.404 282.854 301.613 283.204 301.886 283.509C302.159 283.814 302.489 284.055 302.875 284.232C303.26 284.409 303.694 284.497 304.176 284.497ZM310.567 285.618V276.759H312.014V285.618H310.567ZM315.967 285.618L313.171 281.749H314.81L317.691 285.618H315.967ZM311.544 282.557V281.339H313.834C314.179 281.339 314.477 281.271 314.726 281.134C314.975 280.99 315.164 280.793 315.292 280.544C315.429 280.295 315.497 280.005 315.497 279.676C315.497 279.355 315.429 279.069 315.292 278.82C315.164 278.571 314.975 278.374 314.726 278.23C314.477 278.085 314.179 278.013 313.834 278.013H311.544V276.759H313.641C314.316 276.759 314.903 276.864 315.401 277.072C315.899 277.273 316.285 277.579 316.558 277.988C316.831 278.398 316.968 278.925 316.968 279.567V279.76C316.968 280.403 316.827 280.929 316.546 281.339C316.273 281.749 315.887 282.054 315.389 282.255C314.898 282.456 314.316 282.557 313.641 282.557H311.544ZM320.648 285.618V277.856H322.095V285.618H320.648ZM318.045 278.097V276.819H324.71V278.097H318.045ZM326.175 285.618V276.819H327.61V285.618H326.175ZM327.369 285.618V284.365H331.491V285.618H327.369ZM327.369 281.773V280.52H331.153V281.773H327.369ZM327.369 278.073V276.819H331.382V278.073H327.369ZM334.584 285.666V284.328H336.597C337.087 284.328 337.525 284.252 337.911 284.099C338.297 283.939 338.626 283.718 338.899 283.437C339.173 283.155 339.378 282.826 339.514 282.448C339.659 282.062 339.731 281.649 339.731 281.207C339.731 280.733 339.659 280.307 339.514 279.929C339.378 279.551 339.173 279.226 338.899 278.953C338.626 278.68 338.297 278.471 337.911 278.326C337.525 278.173 337.087 278.097 336.597 278.097H334.584V276.759H336.477C337.272 276.759 337.963 276.88 338.55 277.121C339.144 277.362 339.639 277.687 340.032 278.097C340.426 278.507 340.719 278.969 340.912 279.483C341.105 279.997 341.202 280.528 341.202 281.074V281.339C341.202 281.854 341.105 282.372 340.912 282.894C340.719 283.408 340.426 283.874 340.032 284.292C339.639 284.702 339.144 285.036 338.55 285.293C337.963 285.542 337.272 285.666 336.477 285.666H334.584ZM333.379 285.666V276.759H334.825V285.666H333.379ZM346.996 285.618L344.694 276.819H346.189L348.129 284.666L347.611 284.377H348.925L348.358 284.666L349.913 277.169H351.191L349.347 285.618H346.996ZM352.276 285.618L350.251 277.169H351.589L353.36 284.666L352.806 284.377H354.12L353.577 284.666L355.301 276.819H356.723L354.65 285.618H352.276ZM358.251 285.618V276.819H359.697V285.618H358.251ZM363.811 285.618V277.856H365.258V285.618H363.811ZM361.208 278.097V276.819H367.873V278.097H361.208ZM375.208 285.618V276.819H376.655V285.618H375.208ZM369.339 285.618V276.819H370.785V285.618H369.339ZM370.508 281.87V280.58H375.486V281.87H370.508Z" fill="black"/>
<g filter="url(#filter1_d_12547_10135)">
<circle cx="333.647" cy="157.061" r="34.0615" fill="white"/>
<circle cx="333.647" cy="157.061" r="35.0936" stroke="white" stroke-width="2.06433"/>
</g>
<path d="M312.901 158.323V156.504H314.579C314.904 156.504 315.181 156.44 315.412 156.312C315.651 156.184 315.835 156.005 315.963 155.774C316.091 155.535 316.155 155.262 316.155 154.954C316.155 154.63 316.091 154.352 315.963 154.122C315.835 153.882 315.651 153.703 315.412 153.584C315.181 153.456 314.904 153.391 314.579 153.391H312.901V151.573H314.477C315.271 151.573 315.95 151.705 316.514 151.97C317.086 152.234 317.521 152.61 317.82 153.097C318.127 153.584 318.281 154.169 318.281 154.852V155.057C318.281 155.723 318.127 156.303 317.82 156.799C317.521 157.285 317.086 157.661 316.514 157.926C315.95 158.191 315.271 158.323 314.477 158.323H312.901ZM311.057 161V151.573H313.158V161H311.057ZM319.485 161V151.649H321.535V157.042H321.227C321.227 156.333 321.317 155.736 321.496 155.249C321.675 154.762 321.94 154.395 322.29 154.147C322.64 153.891 323.08 153.763 323.61 153.763H323.699C324.476 153.763 325.07 154.04 325.48 154.596C325.89 155.142 326.095 155.945 326.095 157.004V161H324.045V156.876C324.045 156.491 323.93 156.184 323.699 155.953C323.477 155.714 323.183 155.595 322.815 155.595C322.431 155.595 322.12 155.718 321.88 155.966C321.65 156.214 321.535 156.542 321.535 156.952V161H319.485ZM331.261 161.243C330.646 161.243 330.1 161.149 329.621 160.962C329.143 160.765 328.738 160.5 328.405 160.167C328.08 159.834 327.832 159.454 327.662 159.027C327.491 158.592 327.405 158.135 327.405 157.657V157.362C327.405 156.876 327.491 156.414 327.662 155.979C327.841 155.535 328.097 155.146 328.43 154.813C328.772 154.48 329.182 154.22 329.66 154.032C330.138 153.836 330.672 153.737 331.261 153.737C331.867 153.737 332.405 153.836 332.875 154.032C333.353 154.22 333.759 154.48 334.092 154.813C334.425 155.146 334.681 155.535 334.86 155.979C335.04 156.414 335.129 156.876 335.129 157.362V157.657C335.129 158.135 335.044 158.592 334.873 159.027C334.702 159.454 334.45 159.834 334.117 160.167C333.793 160.5 333.392 160.765 332.913 160.962C332.435 161.149 331.884 161.243 331.261 161.243ZM331.261 159.514C331.662 159.514 331.995 159.429 332.26 159.258C332.525 159.087 332.725 158.848 332.862 158.541C333.007 158.233 333.08 157.892 333.08 157.516C333.08 157.115 333.007 156.765 332.862 156.466C332.717 156.158 332.508 155.915 332.234 155.736C331.97 155.556 331.645 155.467 331.261 155.467C330.885 155.467 330.561 155.556 330.287 155.736C330.014 155.915 329.805 156.158 329.66 156.466C329.523 156.765 329.455 157.115 329.455 157.516C329.455 157.892 329.523 158.233 329.66 158.541C329.796 158.848 330.001 159.087 330.275 159.258C330.548 159.429 330.877 159.514 331.261 159.514ZM339.749 161.09C339.04 161.09 338.468 161.004 338.033 160.833C337.597 160.654 337.277 160.36 337.072 159.95C336.876 159.531 336.777 158.968 336.777 158.259V152.085H338.686V158.336C338.686 158.669 338.771 158.925 338.942 159.104C339.121 159.275 339.373 159.36 339.698 159.36H340.735V161.09H339.749ZM335.714 155.479V153.981H340.735V155.479H335.714ZM345.508 161.243C344.894 161.243 344.347 161.149 343.869 160.962C343.391 160.765 342.985 160.5 342.652 160.167C342.328 159.834 342.08 159.454 341.909 159.027C341.738 158.592 341.653 158.135 341.653 157.657V157.362C341.653 156.876 341.738 156.414 341.909 155.979C342.088 155.535 342.345 155.146 342.678 154.813C343.019 154.48 343.429 154.22 343.907 154.032C344.386 153.836 344.919 153.737 345.508 153.737C346.115 153.737 346.653 153.836 347.122 154.032C347.601 154.22 348.006 154.48 348.339 154.813C348.672 155.146 348.928 155.535 349.108 155.979C349.287 156.414 349.377 156.876 349.377 157.362V157.657C349.377 158.135 349.291 158.592 349.121 159.027C348.95 159.454 348.698 159.834 348.365 160.167C348.04 160.5 347.639 160.765 347.161 160.962C346.683 161.149 346.132 161.243 345.508 161.243ZM345.508 159.514C345.91 159.514 346.243 159.429 346.508 159.258C346.772 159.087 346.973 158.848 347.11 158.541C347.255 158.233 347.327 157.892 347.327 157.516C347.327 157.115 347.255 156.765 347.11 156.466C346.964 156.158 346.755 155.915 346.482 155.736C346.217 155.556 345.893 155.467 345.508 155.467C345.133 155.467 344.808 155.556 344.535 155.736C344.262 155.915 344.053 156.158 343.907 156.466C343.771 156.765 343.702 157.115 343.702 157.516C343.702 157.892 343.771 158.233 343.907 158.541C344.044 158.848 344.249 159.087 344.522 159.258C344.795 159.429 345.124 159.514 345.508 159.514ZM353.471 161.218C352.472 161.218 351.691 161.013 351.127 160.603C350.564 160.193 350.265 159.617 350.231 158.874H352.05C352.084 159.096 352.216 159.296 352.447 159.476C352.686 159.647 353.04 159.732 353.51 159.732C353.868 159.732 354.163 159.672 354.394 159.553C354.633 159.424 354.752 159.245 354.752 159.015C354.752 158.81 354.663 158.647 354.483 158.528C354.304 158.4 353.984 158.31 353.523 158.259L352.972 158.208C352.126 158.122 351.49 157.887 351.063 157.503C350.645 157.119 350.436 156.628 350.436 156.03C350.436 155.535 350.559 155.121 350.807 154.788C351.055 154.455 351.396 154.203 351.832 154.032C352.276 153.861 352.78 153.776 353.343 153.776C354.248 153.776 354.979 153.976 355.534 154.378C356.089 154.771 356.379 155.343 356.405 156.094H354.586C354.552 155.864 354.432 155.671 354.227 155.518C354.022 155.356 353.719 155.274 353.318 155.274C353.002 155.274 352.75 155.334 352.562 155.454C352.374 155.573 352.28 155.736 352.28 155.94C352.28 156.137 352.361 156.286 352.523 156.389C352.686 156.491 352.95 156.564 353.318 156.607L353.868 156.658C354.731 156.752 355.401 156.991 355.879 157.375C356.358 157.759 356.597 158.276 356.597 158.925C356.597 159.395 356.469 159.804 356.212 160.155C355.956 160.496 355.593 160.761 355.124 160.949C354.654 161.128 354.103 161.218 353.471 161.218Z" fill="black"/>
<path d="M369.028 131.679C369.028 126.886 365.142 123 360.349 123C355.556 123 351.67 126.886 351.67 131.679C351.67 136.472 355.556 140.358 360.349 140.358C365.142 140.358 369.028 136.472 369.028 131.679Z" fill="#0CB146"/>
<path d="M356.879 132.113L359.049 134.283L363.822 129.075" stroke="white" stroke-width="1.30187" stroke-linecap="round" stroke-linejoin="round"/>
<g filter="url(#filter2_d_12547_10135)">
<circle cx="428.267" cy="199.597" r="34.0615" fill="white"/>
<circle cx="428.267" cy="199.597" r="35.0936" stroke="white" stroke-width="2.06433"/>
</g>
<path d="M406.723 202.94V195.183H408.465V202.94H406.723ZM410.134 202.94V197.117H411.483V199.614H411.387C411.387 199.019 411.462 198.523 411.61 198.127C411.766 197.73 412 197.432 412.312 197.234C412.623 197.036 413.002 196.937 413.449 196.937H413.523C414.203 196.937 414.72 197.16 415.074 197.606C415.436 198.045 415.616 198.715 415.616 199.614V202.94H413.916V199.519C413.916 199.207 413.824 198.952 413.64 198.754C413.456 198.555 413.208 198.456 412.896 198.456C412.577 198.456 412.319 198.559 412.12 198.764C411.929 198.963 411.834 199.225 411.834 199.55V202.94H410.134ZM418.15 202.94L416.407 197.117H418.16L419.797 202.94H418.15ZM418.681 202.94V201.527H420.392V202.94H418.681ZM419.308 202.94L420.721 197.117H422.357L420.849 202.94H419.308ZM426.065 203.142C425.555 203.142 425.102 203.064 424.705 202.908C424.309 202.745 423.972 202.526 423.696 202.249C423.427 201.973 423.221 201.658 423.08 201.304C422.938 200.942 422.867 200.563 422.867 200.167V199.922C422.867 199.519 422.938 199.136 423.08 198.775C423.228 198.406 423.441 198.084 423.717 197.808C424.001 197.532 424.341 197.316 424.737 197.16C425.134 196.997 425.577 196.915 426.065 196.915C426.568 196.915 427.015 196.997 427.404 197.16C427.801 197.316 428.137 197.532 428.414 197.808C428.69 198.084 428.902 198.406 429.051 198.775C429.2 199.136 429.274 199.519 429.274 199.922V200.167C429.274 200.563 429.203 200.942 429.062 201.304C428.92 201.658 428.711 201.973 428.435 202.249C428.166 202.526 427.833 202.745 427.436 202.908C427.039 203.064 426.582 203.142 426.065 203.142ZM426.065 201.707C426.398 201.707 426.675 201.637 426.894 201.495C427.114 201.353 427.28 201.155 427.394 200.9C427.514 200.645 427.574 200.362 427.574 200.05C427.574 199.717 427.514 199.427 427.394 199.179C427.273 198.924 427.1 198.722 426.873 198.573C426.653 198.424 426.384 198.35 426.065 198.35C425.754 198.35 425.485 198.424 425.258 198.573C425.031 198.722 424.858 198.924 424.737 199.179C424.624 199.427 424.567 199.717 424.567 200.05C424.567 200.362 424.624 200.645 424.737 200.9C424.851 201.155 425.021 201.353 425.247 201.495C425.474 201.637 425.747 201.707 426.065 201.707ZM430.737 202.94V197.117H432.437V202.94H430.737ZM429.961 198.371V197.117H432.437V198.371H429.961ZM431.396 196.544C431.077 196.544 430.84 196.462 430.684 196.299C430.535 196.129 430.461 195.917 430.461 195.662C430.461 195.4 430.535 195.187 430.684 195.024C430.84 194.854 431.077 194.769 431.396 194.769C431.714 194.769 431.948 194.854 432.097 195.024C432.253 195.187 432.331 195.4 432.331 195.662C432.331 195.917 432.253 196.129 432.097 196.299C431.948 196.462 431.714 196.544 431.396 196.544ZM436.623 203.142C436.12 203.142 435.681 203.06 435.306 202.897C434.937 202.727 434.629 202.501 434.381 202.217C434.133 201.934 433.949 201.615 433.829 201.261C433.708 200.9 433.648 200.528 433.648 200.145V199.944C433.648 199.547 433.712 199.168 433.839 198.807C433.967 198.438 434.155 198.113 434.402 197.829C434.65 197.546 434.959 197.323 435.327 197.16C435.702 196.997 436.131 196.915 436.613 196.915C437.137 196.915 437.601 197.018 438.004 197.224C438.408 197.422 438.731 197.702 438.971 198.063C439.212 198.424 439.347 198.839 439.375 199.306H437.707C437.679 199.044 437.572 198.824 437.388 198.647C437.211 198.463 436.953 198.371 436.613 198.371C436.329 198.371 436.092 198.442 435.901 198.584C435.716 198.725 435.578 198.92 435.486 199.168C435.394 199.416 435.348 199.71 435.348 200.05C435.348 200.362 435.391 200.645 435.476 200.9C435.561 201.148 435.695 201.343 435.879 201.484C436.071 201.619 436.319 201.686 436.623 201.686C436.85 201.686 437.041 201.647 437.197 201.569C437.36 201.484 437.487 201.371 437.579 201.229C437.679 201.081 437.739 200.911 437.76 200.719H439.418C439.396 201.201 439.262 201.626 439.014 201.994C438.766 202.356 438.437 202.639 438.026 202.844C437.615 203.043 437.147 203.142 436.623 203.142ZM443.172 203.142C442.676 203.142 442.237 203.057 441.854 202.887C441.479 202.717 441.164 202.49 440.909 202.207C440.661 201.916 440.469 201.594 440.335 201.24C440.207 200.879 440.144 200.51 440.144 200.135V199.922C440.144 199.533 440.207 199.161 440.335 198.807C440.469 198.445 440.661 198.123 440.909 197.84C441.157 197.556 441.465 197.333 441.833 197.17C442.208 197 442.633 196.915 443.108 196.915C443.731 196.915 444.256 197.057 444.681 197.34C445.113 197.617 445.442 197.981 445.669 198.435C445.895 198.881 446.009 199.37 446.009 199.901V200.475H440.856V199.508H444.978L444.426 199.954C444.426 199.607 444.376 199.31 444.277 199.062C444.178 198.814 444.029 198.626 443.831 198.499C443.639 198.364 443.399 198.297 443.108 198.297C442.811 198.297 442.559 198.364 442.354 198.499C442.148 198.633 441.992 198.831 441.886 199.094C441.78 199.349 441.727 199.664 441.727 200.039C441.727 200.386 441.776 200.691 441.876 200.953C441.975 201.208 442.131 201.406 442.343 201.548C442.556 201.69 442.832 201.761 443.172 201.761C443.484 201.761 443.739 201.7 443.937 201.58C444.135 201.459 444.27 201.311 444.341 201.134H445.903C445.818 201.523 445.651 201.87 445.403 202.175C445.155 202.48 444.844 202.717 444.468 202.887C444.093 203.057 443.661 203.142 443.172 203.142ZM449.345 203.121C448.517 203.121 447.868 202.951 447.401 202.611C446.933 202.271 446.686 201.792 446.657 201.176H448.166C448.194 201.36 448.304 201.527 448.495 201.676C448.694 201.817 448.988 201.888 449.377 201.888C449.675 201.888 449.919 201.838 450.11 201.739C450.309 201.633 450.408 201.484 450.408 201.293C450.408 201.123 450.334 200.988 450.185 200.889C450.036 200.783 449.77 200.709 449.388 200.666L448.931 200.624C448.23 200.553 447.702 200.358 447.348 200.039C447.001 199.72 446.827 199.313 446.827 198.817C446.827 198.406 446.93 198.063 447.135 197.787C447.341 197.51 447.624 197.301 447.985 197.16C448.354 197.018 448.772 196.947 449.239 196.947C449.99 196.947 450.596 197.114 451.056 197.447C451.516 197.773 451.757 198.247 451.779 198.87H450.27C450.241 198.679 450.142 198.52 449.972 198.392C449.802 198.258 449.551 198.19 449.218 198.19C448.956 198.19 448.747 198.24 448.591 198.339C448.435 198.438 448.357 198.573 448.357 198.743C448.357 198.906 448.425 199.03 448.559 199.115C448.694 199.2 448.913 199.26 449.218 199.295L449.675 199.338C450.39 199.416 450.946 199.614 451.343 199.933C451.74 200.252 451.938 200.68 451.938 201.219C451.938 201.608 451.832 201.948 451.619 202.239C451.407 202.522 451.106 202.742 450.716 202.897C450.326 203.046 449.87 203.121 449.345 203.121Z" fill="black"/>
<path d="M467.118 180.29C467.118 175.497 463.232 171.611 458.439 171.611C453.646 171.611 449.76 175.497 449.76 180.29C449.76 185.084 453.646 188.97 458.439 188.97C463.232 188.97 467.118 185.084 467.118 180.29Z" fill="#0CB146"/>
<path d="M454.969 180.724L457.139 182.894L461.912 177.687" stroke="white" stroke-width="1.30187" stroke-linecap="round" stroke-linejoin="round"/>
<g filter="url(#filter3_d_12547_10135)">
<circle cx="173.06" cy="289.874" r="34.0615" fill="white"/>
<circle cx="173.06" cy="289.874" r="35.0936" stroke="white" stroke-width="2.06433"/>
</g>
<path d="M204.966 261.02C204.966 256.227 201.08 252.341 196.287 252.341C191.493 252.341 187.607 256.227 187.607 261.02C187.607 265.813 191.493 269.699 196.287 269.699C201.08 269.699 204.966 265.813 204.966 261.02Z" fill="#0CB146"/>
<path d="M192.816 261.454L194.986 263.624L199.76 258.416" stroke="white" stroke-width="1.30187" stroke-linecap="round" stroke-linejoin="round"/>
<path d="M156.343 293.854V284.503H159.238L161.377 289.755H161.62L163.734 284.503H166.68V293.854H164.605V285.874L164.899 285.899L162.427 291.958H160.429L157.944 285.899L158.264 285.874V293.854H156.343ZM171.326 294.071C170.327 294.071 169.545 293.866 168.982 293.456C168.418 293.047 168.119 292.47 168.085 291.727H169.904C169.938 291.949 170.07 292.15 170.301 292.329C170.54 292.5 170.894 292.585 171.364 292.585C171.723 292.585 172.017 292.526 172.248 292.406C172.487 292.278 172.607 292.099 172.607 291.868C172.607 291.663 172.517 291.501 172.338 291.381C172.158 291.253 171.838 291.164 171.377 291.112L170.826 291.061C169.981 290.976 169.345 290.741 168.918 290.357C168.499 289.972 168.29 289.481 168.29 288.884C168.29 288.388 168.414 287.974 168.661 287.641C168.909 287.308 169.251 287.056 169.686 286.885C170.13 286.715 170.634 286.629 171.198 286.629C172.103 286.629 172.833 286.83 173.388 287.231C173.943 287.624 174.233 288.196 174.259 288.948H172.44C172.406 288.717 172.286 288.525 172.081 288.371C171.876 288.209 171.573 288.128 171.172 288.128C170.856 288.128 170.604 288.188 170.416 288.307C170.228 288.427 170.134 288.589 170.134 288.794C170.134 288.99 170.216 289.14 170.378 289.242C170.54 289.345 170.805 289.417 171.172 289.46L171.723 289.511C172.585 289.605 173.256 289.844 173.734 290.229C174.212 290.613 174.451 291.129 174.451 291.778C174.451 292.248 174.323 292.658 174.067 293.008C173.811 293.35 173.448 293.614 172.978 293.802C172.508 293.982 171.958 294.071 171.326 294.071ZM178.546 296.646C178.204 296.646 177.854 296.633 177.495 296.607C177.137 296.582 176.808 296.548 176.509 296.505V294.776C176.808 294.818 177.137 294.853 177.495 294.878C177.863 294.912 178.196 294.929 178.494 294.929C179.049 294.929 179.498 294.865 179.839 294.737C180.189 294.609 180.446 294.413 180.608 294.148C180.77 293.892 180.851 293.559 180.851 293.149V291.753L181.223 290.933C181.206 291.556 181.082 292.09 180.851 292.534C180.629 292.978 180.318 293.32 179.916 293.559C179.515 293.789 179.037 293.905 178.482 293.905C178.003 293.905 177.568 293.819 177.175 293.649C176.791 293.469 176.462 293.222 176.189 292.906C175.916 292.59 175.706 292.223 175.561 291.804C175.416 291.377 175.343 290.916 175.343 290.421V290.126C175.343 289.631 175.42 289.17 175.574 288.743C175.728 288.316 175.95 287.944 176.24 287.628C176.53 287.312 176.876 287.069 177.278 286.898C177.679 286.719 178.123 286.629 178.61 286.629C179.173 286.629 179.66 286.753 180.07 287.001C180.488 287.248 180.817 287.611 181.056 288.089C181.295 288.568 181.423 289.144 181.44 289.819L181.159 289.896V286.834H182.785V293.021C182.785 293.883 182.632 294.579 182.324 295.109C182.017 295.638 181.547 296.027 180.915 296.274C180.292 296.522 179.502 296.646 178.546 296.646ZM179.122 292.176C179.438 292.176 179.724 292.107 179.98 291.971C180.236 291.825 180.437 291.62 180.582 291.356C180.736 291.091 180.813 290.771 180.813 290.395V290.024C180.813 289.656 180.732 289.349 180.569 289.101C180.416 288.845 180.211 288.653 179.955 288.525C179.698 288.388 179.425 288.32 179.135 288.32C178.793 288.32 178.49 288.401 178.225 288.563C177.961 288.726 177.756 288.952 177.611 289.242C177.465 289.533 177.393 289.874 177.393 290.267C177.393 290.668 177.465 291.014 177.611 291.305C177.764 291.586 177.969 291.804 178.225 291.958C178.49 292.103 178.789 292.176 179.122 292.176ZM187.224 294.071C186.225 294.071 185.444 293.866 184.88 293.456C184.317 293.047 184.018 292.47 183.984 291.727H185.803C185.837 291.949 185.969 292.15 186.2 292.329C186.439 292.5 186.793 292.585 187.263 292.585C187.621 292.585 187.916 292.526 188.147 292.406C188.386 292.278 188.505 292.099 188.505 291.868C188.505 291.663 188.416 291.501 188.236 291.381C188.057 291.253 187.737 291.164 187.276 291.112L186.725 291.061C185.879 290.976 185.243 290.741 184.816 290.357C184.398 289.972 184.189 289.481 184.189 288.884C184.189 288.388 184.312 287.974 184.56 287.641C184.808 287.308 185.149 287.056 185.585 286.885C186.029 286.715 186.533 286.629 187.096 286.629C188.001 286.629 188.732 286.83 189.287 287.231C189.842 287.624 190.132 288.196 190.158 288.948H188.339C188.305 288.717 188.185 288.525 187.98 288.371C187.775 288.209 187.472 288.128 187.071 288.128C186.755 288.128 186.503 288.188 186.315 288.307C186.127 288.427 186.033 288.589 186.033 288.794C186.033 288.99 186.114 289.14 186.276 289.242C186.439 289.345 186.703 289.417 187.071 289.46L187.621 289.511C188.484 289.605 189.154 289.844 189.632 290.229C190.111 290.613 190.35 291.129 190.35 291.778C190.35 292.248 190.222 292.658 189.965 293.008C189.709 293.35 189.346 293.614 188.877 293.802C188.407 293.982 187.856 294.071 187.224 294.071Z" fill="black"/>
<g filter="url(#filter4_d_12547_10135)">
<circle cx="487.296" cy="289.874" r="34.0615" fill="white"/>
<circle cx="487.296" cy="289.874" r="35.0936" stroke="white" stroke-width="2.06433"/>
</g>
<path d="M469.523 294.097C468.678 294.097 467.952 293.952 467.346 293.661C466.74 293.363 466.244 292.974 465.86 292.496C465.476 292.009 465.19 291.488 465.002 290.933C464.822 290.369 464.733 289.823 464.733 289.294V289.012C464.733 288.431 464.827 287.859 465.015 287.295C465.202 286.723 465.489 286.207 465.873 285.745C466.266 285.284 466.757 284.917 467.346 284.644C467.944 284.362 468.648 284.221 469.459 284.221C470.305 284.221 471.052 284.379 471.701 284.695C472.35 285.011 472.866 285.451 473.251 286.014C473.644 286.569 473.874 287.223 473.942 287.974H471.829C471.769 287.598 471.633 287.278 471.419 287.014C471.206 286.749 470.928 286.544 470.586 286.399C470.253 286.254 469.878 286.181 469.459 286.181C469.041 286.181 468.669 286.254 468.345 286.399C468.02 286.544 467.747 286.749 467.525 287.014C467.312 287.278 467.145 287.594 467.026 287.961C466.915 288.32 466.859 288.721 466.859 289.165C466.859 289.601 466.915 290.002 467.026 290.369C467.145 290.728 467.316 291.044 467.538 291.317C467.768 291.582 468.05 291.787 468.383 291.932C468.716 292.069 469.096 292.137 469.523 292.137C470.172 292.137 470.719 291.979 471.163 291.663C471.615 291.347 471.889 290.912 471.983 290.357H474.083C474.006 291.04 473.776 291.667 473.392 292.24C473.016 292.803 472.499 293.256 471.842 293.597C471.193 293.93 470.42 294.097 469.523 294.097ZM475.451 293.854V284.503H477.514V293.854H475.451ZM474.619 286.014V284.503H477.514V286.014H474.619ZM483.642 293.854V291.778H483.296V289.524C483.296 289.165 483.211 288.896 483.04 288.717C482.869 288.538 482.596 288.448 482.22 288.448C482.032 288.448 481.785 288.452 481.477 288.461C481.17 288.469 480.854 288.482 480.529 288.499C480.205 288.516 479.91 288.534 479.645 288.551V286.821C479.842 286.804 480.072 286.787 480.337 286.77C480.602 286.753 480.875 286.74 481.157 286.732C481.439 286.723 481.703 286.719 481.951 286.719C482.668 286.719 483.27 286.821 483.757 287.026C484.252 287.231 484.628 287.543 484.884 287.961C485.14 288.371 485.269 288.901 485.269 289.55V293.854H483.642ZM481.4 294.033C480.896 294.033 480.452 293.943 480.068 293.764C479.692 293.585 479.398 293.328 479.184 292.995C478.971 292.654 478.864 292.248 478.864 291.778C478.864 291.266 478.996 290.848 479.261 290.523C479.526 290.19 479.897 289.947 480.376 289.793C480.854 289.631 481.405 289.55 482.028 289.55H483.527V290.69H482.015C481.656 290.69 481.379 290.779 481.182 290.959C480.995 291.129 480.901 291.364 480.901 291.663C480.901 291.945 480.995 292.176 481.182 292.355C481.379 292.526 481.656 292.611 482.015 292.611C482.246 292.611 482.451 292.573 482.63 292.496C482.818 292.41 482.971 292.269 483.091 292.073C483.211 291.877 483.279 291.603 483.296 291.253L483.783 291.766C483.74 292.252 483.62 292.662 483.424 292.995C483.236 293.328 482.971 293.585 482.63 293.764C482.297 293.943 481.887 294.033 481.4 294.033ZM487.34 293.854V286.834H489.39V293.854H487.34ZM486.405 288.346V286.834H489.39V288.346H486.405ZM488.135 286.143C487.75 286.143 487.464 286.044 487.276 285.848C487.097 285.643 487.007 285.387 487.007 285.079C487.007 284.763 487.097 284.507 487.276 284.311C487.464 284.106 487.75 284.003 488.135 284.003C488.519 284.003 488.801 284.106 488.98 284.311C489.168 284.507 489.262 284.763 489.262 285.079C489.262 285.387 489.168 285.643 488.98 285.848C488.801 286.044 488.519 286.143 488.135 286.143ZM491.285 293.854V286.834H492.912V289.857H492.797C492.797 289.14 492.886 288.542 493.066 288.064C493.245 287.586 493.514 287.227 493.873 286.988C494.231 286.74 494.671 286.616 495.192 286.616H495.282C495.811 286.616 496.251 286.74 496.601 286.988C496.96 287.227 497.229 287.586 497.408 288.064C497.596 288.542 497.69 289.14 497.69 289.857H497.19C497.19 289.14 497.28 288.542 497.459 288.064C497.647 287.586 497.92 287.227 498.279 286.988C498.638 286.74 499.077 286.616 499.598 286.616H499.688C500.217 286.616 500.662 286.74 501.02 286.988C501.387 287.227 501.665 287.586 501.853 288.064C502.041 288.542 502.135 289.14 502.135 289.857V293.854H500.085V289.742C500.085 289.358 499.983 289.046 499.778 288.807C499.581 288.568 499.3 288.448 498.932 288.448C498.565 288.448 498.275 288.572 498.061 288.82C497.848 289.059 497.741 289.379 497.741 289.78V293.854H495.679V289.742C495.679 289.358 495.576 289.046 495.371 288.807C495.175 288.568 494.897 288.448 494.539 288.448C494.163 288.448 493.869 288.572 493.655 288.82C493.442 289.059 493.335 289.379 493.335 289.78V293.854H491.285ZM506.546 294.071C505.547 294.071 504.765 293.866 504.202 293.456C503.638 293.047 503.339 292.47 503.305 291.727H505.124C505.158 291.949 505.291 292.15 505.521 292.329C505.76 292.5 506.115 292.585 506.584 292.585C506.943 292.585 507.238 292.526 507.468 292.406C507.707 292.278 507.827 292.099 507.827 291.868C507.827 291.663 507.737 291.501 507.558 291.381C507.379 291.253 507.058 291.164 506.597 291.112L506.046 291.061C505.201 290.976 504.565 290.741 504.138 290.357C503.719 289.972 503.51 289.481 503.51 288.884C503.51 288.388 503.634 287.974 503.882 287.641C504.129 287.308 504.471 287.056 504.906 286.885C505.35 286.715 505.854 286.629 506.418 286.629C507.323 286.629 508.053 286.83 508.608 287.231C509.163 287.624 509.454 288.196 509.479 288.948H507.66C507.626 288.717 507.507 288.525 507.302 288.371C507.097 288.209 506.794 288.128 506.392 288.128C506.076 288.128 505.824 288.188 505.637 288.307C505.449 288.427 505.355 288.589 505.355 288.794C505.355 288.99 505.436 289.14 505.598 289.242C505.76 289.345 506.025 289.417 506.392 289.46L506.943 289.511C507.805 289.605 508.476 289.844 508.954 290.229C509.432 290.613 509.671 291.129 509.671 291.778C509.671 292.248 509.543 292.658 509.287 293.008C509.031 293.35 508.668 293.614 508.198 293.802C507.729 293.982 507.178 294.071 506.546 294.071Z" fill="black"/>
<path opacity="0.34" d="M467.033 318.312L365.561 379.077" stroke="#0061A4" stroke-width="0.868056"/>
<path d="M526.145 269.701C526.145 264.907 522.26 261.021 517.466 261.021C512.673 261.021 508.787 264.907 508.787 269.701C508.787 274.494 512.673 278.38 517.466 278.38C522.26 278.38 526.145 274.494 526.145 269.701Z" fill="#0CB146"/>
<path d="M513.996 270.134L516.166 272.304L520.939 267.097" stroke="white" stroke-width="1.30187" stroke-linecap="round" stroke-linejoin="round"/>
<circle cx="333.441" cy="414.666" r="83.3333" fill="#EEF4FA"/>
<g clip-path="url(#clip0_12547_10135)">
<path d="M361.64 442.631H360.902C353.888 442.082 354.552 431.931 361.668 432.324C368.159 432.683 368.464 441.994 361.722 442.583L361.64 442.631ZM364.88 437.474C364.88 435.502 363.28 433.903 361.308 433.903C359.336 433.903 357.737 435.502 357.737 437.474C357.737 439.446 359.336 441.045 361.308 441.045C363.28 441.045 364.88 439.446 364.88 437.474Z" fill="#FA8C3D"/>
<path d="M387.262 442.422H379.584V432.48H387.208V434.005H381.366V436.689H386.523V438.166H381.366V440.951H387.262V442.422Z" fill="#FA8C3D"/>
<path d="M317.024 442.632C314.408 442.564 312.816 440.978 312.768 438.342C312.735 436.54 312.87 434.69 312.816 432.874C312.816 432.731 312.775 432.616 312.762 432.48H314.551V438.505C314.551 441.907 319.809 441.805 319.809 438.661V432.48H321.598V438.396C321.449 440.951 319.992 442.564 317.39 442.625H317.024V442.632Z" fill="#1161A5"/>
<path d="M306.343 442.631C302.874 442.286 300.732 438.931 301.938 435.624C303.145 432.317 307.502 431.369 310.308 433.334L310.917 433.876L309.779 435.109C308.58 434.052 307.082 433.524 305.53 434.174C302.521 435.435 302.894 440.232 306.093 440.957C307.577 441.296 308.735 440.747 309.833 439.792L310.938 440.795L310.958 440.917C310.301 441.581 309.501 442.137 308.593 442.401C308.22 442.509 307.712 442.611 307.333 442.638H306.33L306.343 442.631Z" fill="#1161A5"/>
<path d="M296.765 442.632H295.817C292.53 442.347 290.402 439.406 291.168 436.174C292.13 432.114 297.524 431.084 300.337 433.876L299.198 435.11C297.87 433.971 296.23 433.443 294.604 434.351C292.279 435.645 292.313 439.291 294.604 440.605C296.196 441.514 298.026 440.985 299.252 439.745L300.384 440.877C299.686 441.629 298.778 442.232 297.768 442.462C297.47 442.53 297.057 442.611 296.759 442.638L296.765 442.632Z" fill="#1161A5"/>
<path d="M351.014 442.631H350.228C346.555 442.373 344.305 438.714 345.816 435.306C347.327 431.897 352.118 431.355 354.646 433.876L353.514 435.109C351.996 433.638 349.503 433.354 348.039 435.055C346.426 436.939 347.185 440.212 349.645 440.917C351.183 441.357 352.457 440.754 353.609 439.792C353.684 439.805 354.639 440.774 354.673 440.835C354.721 440.923 354.694 440.91 354.639 440.964C354.477 441.14 354.097 441.445 353.901 441.594C353.101 442.191 352.098 442.55 351.095 442.577L351.014 442.624V442.631Z" fill="#FA8C3D"/>
<path d="M360.112 425.751H317.867L324.678 421.753H352.902L346.071 410.043L349.405 407.827L360.112 425.751Z" fill="#1161A5"/>
<path d="M335.754 384.786L347.749 405.082L344.123 406.532L343.933 406.512L335.68 392.83L325.467 409.975L318.393 413.763L335.754 384.786Z" fill="#1161A5"/>
<path d="M311.344 425.75L311.384 425.554L317.144 415.877L324.158 411.974L324.233 412.001L320.709 417.889L320.831 417.903C327.838 414.752 334.852 411.601 342.001 408.775L357.194 401.931L346.521 408.301C336.227 414.271 325.751 419.936 315.369 425.75H311.344Z" fill="url(#paint0_linear_12547_10135)"/>
<path d="M324.129 432.48H329.198C331.271 432.691 332.667 433.822 332.498 436.031C332.39 437.421 331.414 438.254 330.153 438.634C330.092 438.654 330.058 438.6 330.079 438.715L332.816 442.476H330.709L328.154 438.952H325.945L325.864 439.033V442.476H324.129V432.487V432.48ZM325.938 434.059L325.857 434.141V437.346L325.938 437.427H329.096C329.184 437.427 329.631 437.278 329.74 437.224C330.98 436.668 331.075 434.852 329.821 434.283C329.706 434.229 329.191 434.059 329.096 434.059H325.938Z" fill="#1161A5"/>
<path d="M377.579 442.421H375.471L372.971 438.952H370.68V442.421H368.945V432.48C370.667 432.582 372.578 432.317 374.278 432.541C376.555 432.839 378.073 434.818 377.003 437.041C376.569 437.942 375.729 438.376 374.834 438.714L377.572 442.421H377.579ZM370.687 434.059V437.4L370.768 437.481H373.506C374.773 437.481 375.864 436.492 375.444 435.177C375.254 434.601 374.529 434.059 373.933 434.059H370.7H370.687Z" fill="#FA8C3D"/>
<path d="M290.303 442.475H288.412L287.335 440.056L282.503 440.07L281.419 442.482H279.623L284.17 432.432C284.638 432.48 285.193 432.378 285.647 432.432C285.722 432.439 285.783 432.432 285.824 432.521L290.303 442.482V442.475ZM283.147 438.531H286.644L286.698 438.423L284.902 434.533L283.14 438.531H283.147Z" fill="#1161A5"/>
<path d="M333.914 442.477L338.393 432.44H340.047L344.594 442.477H342.778L341.666 440.064L336.828 440.051L335.676 442.477H333.914ZM337.438 438.533H341.016L339.2 434.534L337.438 438.533Z" fill="#1161A5"/>
</g>
<defs>
<filter id="filter0_d_12547_10135" x="153.805" y="122.184" width="154.825" height="154.825" filterUnits="userSpaceOnUse" color-interpolation-filters="sRGB">
<feFlood flood-opacity="0" result="BackgroundImageFix"/>
<feColorMatrix in="SourceAlpha" type="matrix" values="0 0 0 0 0 0 0 0 0 0 0 0 0 0 0 0 0 0 127 0" result="hardAlpha"/>
<feOffset/>
<feGaussianBlur stdDeviation="20.6433"/>
<feComposite in2="hardAlpha" operator="out"/>
<feColorMatrix type="matrix" values="0 0 0 0 0 0 0 0 0 0 0 0 0 0 0 0 0 0 0.14 0"/>
<feBlend mode="normal" in2="BackgroundImageFix" result="effect1_dropShadow_12547_10135"/>
<feBlend mode="normal" in="SourceGraphic" in2="effect1_dropShadow_12547_10135" result="shape"/>
</filter>
<filter id="filter1_d_12547_10135" x="256.235" y="79.649" width="154.825" height="154.825" filterUnits="userSpaceOnUse" color-interpolation-filters="sRGB">
<feFlood flood-opacity="0" result="BackgroundImageFix"/>
<feColorMatrix in="SourceAlpha" type="matrix" values="0 0 0 0 0 0 0 0 0 0 0 0 0 0 0 0 0 0 127 0" result="hardAlpha"/>
<feOffset/>
<feGaussianBlur stdDeviation="20.6433"/>
<feComposite in2="hardAlpha" operator="out"/>
<feColorMatrix type="matrix" values="0 0 0 0 0 0 0 0 0 0 0 0 0 0 0 0 0 0 0.14 0"/>
<feBlend mode="normal" in2="BackgroundImageFix" result="effect1_dropShadow_12547_10135"/>
<feBlend mode="normal" in="SourceGraphic" in2="effect1_dropShadow_12547_10135" result="shape"/>
</filter>
<filter id="filter2_d_12547_10135" x="350.854" y="122.184" width="154.825" height="154.825" filterUnits="userSpaceOnUse" color-interpolation-filters="sRGB">
<feFlood flood-opacity="0" result="BackgroundImageFix"/>
<feColorMatrix in="SourceAlpha" type="matrix" values="0 0 0 0 0 0 0 0 0 0 0 0 0 0 0 0 0 0 127 0" result="hardAlpha"/>
<feOffset/>
<feGaussianBlur stdDeviation="20.6433"/>
<feComposite in2="hardAlpha" operator="out"/>
<feColorMatrix type="matrix" values="0 0 0 0 0 0 0 0 0 0 0 0 0 0 0 0 0 0 0.14 0"/>
<feBlend mode="normal" in2="BackgroundImageFix" result="effect1_dropShadow_12547_10135"/>
<feBlend mode="normal" in="SourceGraphic" in2="effect1_dropShadow_12547_10135" result="shape"/>
</filter>
<filter id="filter3_d_12547_10135" x="95.647" y="212.461" width="154.825" height="154.825" filterUnits="userSpaceOnUse" color-interpolation-filters="sRGB">
<feFlood flood-opacity="0" result="BackgroundImageFix"/>
<feColorMatrix in="SourceAlpha" type="matrix" values="0 0 0 0 0 0 0 0 0 0 0 0 0 0 0 0 0 0 127 0" result="hardAlpha"/>
<feOffset/>
<feGaussianBlur stdDeviation="20.6433"/>
<feComposite in2="hardAlpha" operator="out"/>
<feColorMatrix type="matrix" values="0 0 0 0 0 0 0 0 0 0 0 0 0 0 0 0 0 0 0.14 0"/>
<feBlend mode="normal" in2="BackgroundImageFix" result="effect1_dropShadow_12547_10135"/>
<feBlend mode="normal" in="SourceGraphic" in2="effect1_dropShadow_12547_10135" result="shape"/>
</filter>
<filter id="filter4_d_12547_10135" x="409.883" y="212.461" width="154.825" height="154.825" filterUnits="userSpaceOnUse" color-interpolation-filters="sRGB">
<feFlood flood-opacity="0" result="BackgroundImageFix"/>
<feColorMatrix in="SourceAlpha" type="matrix" values="0 0 0 0 0 0 0 0 0 0 0 0 0 0 0 0 0 0 127 0" result="hardAlpha"/>
<feOffset/>
<feGaussianBlur stdDeviation="20.6433"/>
<feComposite in2="hardAlpha" operator="out"/>
<feColorMatrix type="matrix" values="0 0 0 0 0 0 0 0 0 0 0 0 0 0 0 0 0 0 0.14 0"/>
<feBlend mode="normal" in2="BackgroundImageFix" result="effect1_dropShadow_12547_10135"/>
<feBlend mode="normal" in="SourceGraphic" in2="effect1_dropShadow_12547_10135" result="shape"/>
</filter>
<linearGradient id="paint0_linear_12547_10135" x1="374.047" y1="389.445" x2="313.735" y2="424.266" gradientUnits="userSpaceOnUse">
<stop stop-color="#AD4D32"/>
<stop offset="1" stop-color="#FA8C3D"/>
</linearGradient>
<clipPath id="clip0_12547_10135">
<rect width="107.639" height="59.8958" fill="white" transform="translate(279.623 385.152)"/>
</clipPath>
</defs>
</svg>
