<svg width="27" height="27" viewBox="0 0 27 27" fill="none" xmlns="http://www.w3.org/2000/svg">
<path d="M16.8203 7.87659C16.8203 7.87659 17.3817 8.438 17.9431 9.5608C17.9431 9.5608 19.7264 6.75379 21.3115 6.19238" stroke="white" stroke-width="1.68421" stroke-linecap="round" stroke-linejoin="round"/>
<path d="M11.2228 2.26951C8.41747 2.15074 6.25016 2.47391 6.25016 2.47391C4.88163 2.57176 2.25896 3.339 2.25898 7.81977C2.25901 12.2624 2.22997 17.7395 2.25898 19.9229C2.25898 21.2569 3.08494 24.3686 5.94379 24.5353C9.4187 24.7381 15.6779 24.7812 18.5497 24.5353C19.3185 24.492 21.878 23.8884 22.2019 21.1038C22.5375 18.2189 22.4707 16.2141 22.4707 15.7369" stroke="white" stroke-width="1.68421" stroke-linecap="round" stroke-linejoin="round"/>
<path d="M24.7017 7.87673C24.7017 10.9773 22.1859 13.4908 19.0823 13.4908C15.9788 13.4908 13.4629 10.9773 13.4629 7.87673C13.4629 4.77619 15.9788 2.2627 19.0823 2.2627C22.1859 2.2627 24.7017 4.77619 24.7017 7.87673Z" stroke="white" stroke-width="1.68421" stroke-linecap="round"/>
<path d="M7.83789 14.614H12.3291" stroke="white" stroke-width="1.68421" stroke-linecap="round"/>
<path d="M7.83789 19.1052H16.8203" stroke="white" stroke-width="1.68421" stroke-linecap="round"/>
</svg>
