<svg width="27" height="27" viewBox="0 0 27 27" fill="none" xmlns="http://www.w3.org/2000/svg">
<path d="M19.6487 12.3505V8.19611C19.6487 5.65549 19.6487 4.38518 18.7782 3.59591C17.9077 2.80664 16.5067 2.80664 13.7045 2.80664H8.75092C5.94876 2.80664 4.54768 2.80664 3.67716 3.59591C2.80664 4.38518 2.80664 5.65549 2.80664 8.19611V15.3821C2.80664 17.9227 2.80664 19.193 3.67716 19.9823C4.54768 20.7716 5.94876 20.7716 8.75092 20.7716H12.3505" stroke="white" stroke-width="1.68421" stroke-linecap="round"/>
<path d="M6.17578 7.29785H16.281" stroke="white" stroke-width="1.68421" stroke-linecap="round" stroke-linejoin="round"/>
<path d="M6.17578 11.7891H7.29859" stroke="white" stroke-width="1.68421" stroke-linecap="round" stroke-linejoin="round"/>
<path d="M10.666 11.7891H11.7888" stroke="white" stroke-width="1.68421" stroke-linecap="round" stroke-linejoin="round"/>
<path d="M15.1582 11.7891H16.281" stroke="white" stroke-width="1.68421" stroke-linecap="round" stroke-linejoin="round"/>
<path d="M6.17578 16.2803H7.29859" stroke="white" stroke-width="1.68421" stroke-linecap="round" stroke-linejoin="round"/>
<path d="M10.666 16.2803H11.7888" stroke="white" stroke-width="1.68421" stroke-linecap="round" stroke-linejoin="round"/>
<path d="M19.6494 24.1407C22.1299 24.1407 24.1407 22.1299 24.1407 19.6494C24.1407 17.169 22.1299 15.1582 19.6494 15.1582C17.169 15.1582 15.1582 17.169 15.1582 19.6494C15.1582 22.1299 17.169 24.1407 19.6494 24.1407Z" stroke="white" stroke-width="1.68421"/>
<path d="M20.7712 20.2105L19.6484 19.6491V17.9648" stroke="white" stroke-width="1.68421" stroke-linecap="round" stroke-linejoin="round"/>
</svg>
