<svg width="27" height="27" viewBox="0 0 27 27" fill="none" xmlns="http://www.w3.org/2000/svg">
<path d="M5.61426 11.2042C5.61426 12.4575 7.62505 13.4736 10.1055 13.4736V11.2042C10.1055 10.0879 10.1055 9.52973 9.65919 9.18923C9.2129 8.84872 8.77047 8.97608 7.88561 9.2308C6.529 9.62132 5.61426 10.3588 5.61426 11.2042Z" stroke="white" stroke-width="1.68421" stroke-linejoin="round"/>
<path d="M17.9654 9.54408C17.9654 11.7145 14.4465 13.4739 10.1057 13.4739C5.76498 13.4739 2.24609 11.7145 2.24609 9.54408C2.24609 7.3737 5.76498 5.61426 10.1057 5.61426C14.4465 5.61426 17.9654 7.3737 17.9654 9.54408Z" stroke="white" stroke-width="1.68421"/>
<path d="M2.24609 10.1052V17.5906C2.24609 19.6576 5.76498 21.3333 10.1057 21.3333H22.4566C23.5152 21.3333 24.0445 21.3333 24.3734 21.0044C24.7022 20.6756 24.7022 20.1463 24.7022 19.0877V15.7193C24.7022 14.6607 24.7022 14.1314 24.3734 13.8025C24.0445 13.4736 23.5152 13.4736 22.4566 13.4736H10.1057" stroke="white" stroke-width="1.68421"/>
<path d="M20.211 21.3334V19.0878M15.7198 21.3334V19.0878M11.2285 21.3334V19.0878M6.7373 20.772V18.5264" stroke="white" stroke-width="1.68421" stroke-linecap="round" stroke-linejoin="round"/>
</svg>
