<svg width="27" height="27" viewBox="0 0 27 27" fill="none" xmlns="http://www.w3.org/2000/svg">
<path d="M13.4746 21.333V24.7014" stroke="white" stroke-width="1.68421" stroke-linecap="round" stroke-linejoin="round"/>
<path d="M13.4746 11.2285V15.7197" stroke="white" stroke-width="1.68421" stroke-linecap="round" stroke-linejoin="round"/>
<path d="M13.4746 2.24609V5.61451" stroke="white" stroke-width="1.68421" stroke-linecap="round" stroke-linejoin="round"/>
<path d="M8.98307 8.42103C8.98307 7.47351 8.88946 6.37989 9.82518 5.83965C10.216 5.61401 10.7407 5.61401 11.7901 5.61401H15.1586C16.2079 5.61401 16.7326 5.61401 17.1235 5.83965C18.0591 6.37989 17.9656 7.47351 17.9656 8.42103C17.9656 9.36856 18.0591 10.4622 17.1235 11.0024C16.7326 11.228 16.2079 11.228 15.1586 11.228H11.7901C10.7407 11.228 10.216 11.228 9.82518 11.0024C8.88946 10.4622 8.98307 9.36856 8.98307 8.42103Z" stroke="white" stroke-width="1.68421" stroke-linecap="round" stroke-linejoin="round"/>
<path d="M4.49088 18.5267C4.49088 17.5792 4.39727 16.4856 5.33299 15.9454C5.72382 15.7197 6.24851 15.7197 7.2979 15.7197H19.6488C20.6982 15.7197 21.2229 15.7197 21.6137 15.9454C22.5494 16.4856 22.4558 17.5792 22.4558 18.5267C22.4558 19.4743 22.5494 20.5679 21.6137 21.1081C21.2229 21.3338 20.6982 21.3338 19.6488 21.3338H7.2979C6.24851 21.3338 5.72382 21.3338 5.33299 21.1081C4.39727 20.5679 4.49088 19.4743 4.49088 18.5267Z" stroke="white" stroke-width="1.68421" stroke-linecap="round" stroke-linejoin="round"/>
</svg>
