<svg width="27" height="27" viewBox="0 0 27 27" fill="none" xmlns="http://www.w3.org/2000/svg">
<path d="M12.3587 24.1398H10.7856C6.76001 24.1398 4.74725 24.1398 3.49667 22.8655C2.24609 21.5912 2.24609 19.5401 2.24609 15.4381C2.24609 11.336 2.24609 9.28501 3.49667 8.01067C4.74725 6.73633 6.76001 6.73633 10.7856 6.73633H15.0553C19.0808 6.73633 21.0936 6.73633 22.3442 8.01067C23.3064 8.99114 23.5282 10.4314 23.5794 12.9118V14.596" stroke="white" stroke-width="1.68421" stroke-linecap="round"/>
<path d="M21.3325 20.7717H17.9641M17.9641 24.1402C16.1037 24.1402 14.5957 22.6321 14.5957 20.7717C14.5957 18.9114 16.1037 17.4033 17.9641 17.4033M21.3325 24.1402C23.1929 24.1402 24.701 22.6321 24.701 20.7717C24.701 18.9114 23.1929 17.4033 21.3325 17.4033" stroke="white" stroke-width="1.68421" stroke-linecap="round"/>
<path d="M17.9647 6.73647L17.8531 6.38945C17.2973 4.66027 17.0194 3.79569 16.3577 3.30116C15.6962 2.80664 14.8173 2.80664 13.0597 2.80664H12.7643C11.0066 2.80664 10.1278 2.80664 9.46624 3.30116C8.80462 3.79569 8.52672 4.66027 7.97091 6.38945L7.85938 6.73647" stroke="white" stroke-width="1.68421"/>
</svg>
