<svg width="27" height="27" viewBox="0 0 27 27" fill="none" xmlns="http://www.w3.org/2000/svg">
<path d="M17.4026 7.29799C17.4026 9.46837 15.6432 11.2278 13.4728 11.2278C11.3024 11.2278 9.54297 9.46837 9.54297 7.29799C9.54297 5.1276 11.3024 3.36816 13.4728 3.36816C15.6432 3.36816 17.4026 5.1276 17.4026 7.29799Z" stroke="white" stroke-width="1.68421"/>
<path d="M24.7014 19.6486C24.7014 21.819 22.942 23.5784 20.7716 23.5784C18.6012 23.5784 16.8418 21.819 16.8418 19.6486C16.8418 17.4782 18.6012 15.7188 20.7716 15.7188C22.942 15.7188 24.7014 17.4782 24.7014 19.6486Z" stroke="white" stroke-width="1.68421"/>
<path d="M10.1057 19.6486C10.1057 21.819 8.3463 23.5784 6.17592 23.5784C4.00553 23.5784 2.24609 21.819 2.24609 19.6486C2.24609 17.4782 4.00553 15.7188 6.17592 15.7188C8.3463 15.7188 10.1057 17.4782 10.1057 19.6486Z" stroke="white" stroke-width="1.68421"/>
</svg>
