<svg width="32" height="32" viewBox="0 0 32 32" fill="none" xmlns="http://www.w3.org/2000/svg">
<path d="M22.5959 3.92981V13.7544M27.5082 8.84209H17.6836" stroke="white" stroke-width="1.96491" stroke-linecap="round" stroke-linejoin="round"/>
<path d="M17.9329 25.4871C17.6836 24.8853 17.6836 24.1224 17.6836 22.5965C17.6836 21.0705 17.6836 20.3076 17.9329 19.7058C18.2652 18.9034 18.9028 18.2658 19.7052 17.9335C20.307 17.6842 21.0699 17.6842 22.5959 17.6842C24.1218 17.6842 24.8847 17.6842 25.4865 17.9335C26.289 18.2658 26.9265 18.9034 27.2589 19.7058C27.5082 20.3076 27.5082 21.0705 27.5082 22.5965C27.5082 24.1224 27.5082 24.8853 27.2589 25.4871C26.9265 26.2896 26.289 26.9272 25.4865 27.2595C24.8847 27.5088 24.1218 27.5088 22.5959 27.5088C21.0699 27.5088 20.307 27.5088 19.7052 27.2595C18.9028 26.9272 18.2652 26.2896 17.9329 25.4871Z" stroke="white" stroke-width="1.96491" stroke-linecap="round" stroke-linejoin="round"/>
<path d="M4.17897 25.4871C3.92969 24.8853 3.92969 24.1224 3.92969 22.5965C3.92969 21.0705 3.92969 20.3076 4.17897 19.7058C4.51135 18.9034 5.14888 18.2658 5.95131 17.9335C6.55313 17.6842 7.31608 17.6842 8.84197 17.6842C10.3679 17.6842 11.1308 17.6842 11.7326 17.9335C12.5351 18.2658 13.1726 18.9034 13.505 19.7058C13.7542 20.3076 13.7542 21.0705 13.7542 22.5965C13.7542 24.1224 13.7542 24.8853 13.505 25.4871C13.1726 26.2896 12.5351 26.9272 11.7326 27.2595C11.1308 27.5088 10.3679 27.5088 8.84197 27.5088C7.31608 27.5088 6.55313 27.5088 5.95131 27.2595C5.14888 26.9272 4.51135 26.2896 4.17897 25.4871Z" stroke="white" stroke-width="1.96491" stroke-linecap="round" stroke-linejoin="round"/>
<path d="M4.17897 11.7328C3.92969 11.1309 3.92969 10.368 3.92969 8.84209C3.92969 7.3162 3.92969 6.55326 4.17897 5.95143C4.51135 5.149 5.14888 4.51148 5.95131 4.17909C6.55313 3.92981 7.31608 3.92981 8.84197 3.92981C10.3679 3.92981 11.1308 3.92981 11.7326 4.17909C12.5351 4.51148 13.1726 5.149 13.505 5.95143C13.7542 6.55326 13.7542 7.3162 13.7542 8.84209C13.7542 10.368 13.7542 11.1309 13.505 11.7328C13.1726 12.5352 12.5351 13.1728 11.7326 13.5051C11.1308 13.7544 10.3679 13.7544 8.84197 13.7544C7.31608 13.7544 6.55313 13.7544 5.95131 13.5051C5.14888 13.1728 4.51135 12.5352 4.17897 11.7328Z" stroke="white" stroke-width="1.96491" stroke-linecap="round" stroke-linejoin="round"/>
</svg>
