<svg width="32" height="32" viewBox="0 0 32 32" fill="none" xmlns="http://www.w3.org/2000/svg">
<path d="M15.5249 13.754L4.75394 24.525C4.37034 24.9086 4.17852 25.1004 4.07599 25.3073C3.88092 25.701 3.88092 26.1631 4.07599 26.5569C4.17852 26.7637 4.37034 26.9555 4.75394 27.3392C5.13755 27.7227 5.32935 27.9145 5.53625 28.0171C5.92992 28.2121 6.39212 28.2121 6.78578 28.0171C6.99268 27.9145 7.1845 27.7227 7.5681 27.3392L18.339 16.5682L21.4447 13.4626C21.8282 13.079 22.02 12.8872 22.1225 12.6803C22.3176 12.2866 22.3176 11.8244 22.1225 11.4308C22.02 11.2239 21.8282 11.0321 21.4447 10.6485C21.061 10.2649 20.8692 10.0731 20.6624 9.97053C20.2686 9.77545 19.8064 9.77545 19.4128 9.97053C19.2058 10.0731 19.0141 10.2649 18.6305 10.6485L15.5249 13.754ZM18.339 16.5682L15.5249 13.754" stroke="white" stroke-width="1.96491" stroke-linecap="round" stroke-linejoin="round"/>
<path d="M25.543 3.27539L25.3983 3.66671C25.2083 4.17983 25.1134 4.43638 24.9263 4.62354C24.7391 4.81069 24.4825 4.90564 23.9694 5.0955L23.5781 5.2403L23.9694 5.3851C24.4825 5.57497 24.7391 5.66991 24.9263 5.85706C25.1134 6.04423 25.2083 6.30078 25.3983 6.8139L25.543 7.20522L25.6878 6.8139C25.8777 6.30078 25.9727 6.04423 26.1598 5.85706C26.3469 5.66991 26.6036 5.57497 27.1167 5.3851L27.5079 5.2403L27.1167 5.0955C26.6036 4.90564 26.3469 4.81069 26.1598 4.62354C25.9727 4.43638 25.8777 4.17983 25.6878 3.66671L25.543 3.27539Z" stroke="white" stroke-width="1.96491" stroke-linejoin="round"/>
<path d="M25.543 16.375L25.3983 16.7663C25.2083 17.2794 25.1134 17.536 24.9263 17.7232C24.7391 17.9103 24.4825 18.0052 23.9694 18.1952L23.5781 18.3399L23.9694 18.4847C24.4825 18.6746 24.7391 18.7696 24.9263 18.9566C25.1134 19.1438 25.2083 19.4004 25.3983 19.9135L25.543 20.3048L25.6878 19.9135C25.8777 19.4004 25.9727 19.1438 26.1598 18.9566C26.3469 18.7696 26.6036 18.6746 27.1167 18.4847L27.5079 18.3399L27.1167 18.1952C26.6036 18.0052 26.3469 17.9103 26.1598 17.7232C25.9727 17.536 25.8777 17.2794 25.6878 16.7663L25.543 16.375Z" stroke="white" stroke-width="1.96491" stroke-linejoin="round"/>
<path d="M13.754 3.27539L13.6092 3.66671C13.4193 4.17983 13.3243 4.43638 13.1373 4.62354C12.9501 4.81069 12.6935 4.90564 12.1804 5.0955L11.7891 5.2403L12.1804 5.3851C12.6935 5.57497 12.9501 5.66991 13.1373 5.85706C13.3243 6.04423 13.4193 6.30078 13.6092 6.8139L13.754 7.20522L13.8987 6.8139C14.0887 6.30078 14.1836 6.04423 14.3707 5.85706C14.5579 5.66991 14.8145 5.57497 15.3276 5.3851L15.7189 5.2403L15.3276 5.0955C14.8145 4.90564 14.5579 4.81069 14.3707 4.62354C14.1836 4.43638 14.0887 4.17983 13.8987 3.66671L13.754 3.27539Z" fill="#D9D9D9" stroke="white" stroke-width="1.96491" stroke-linejoin="round"/>
</svg>
