<svg width="27" height="27" viewBox="0 0 27 27" fill="none" xmlns="http://www.w3.org/2000/svg">
<path d="M19.6245 9.76514C19.6328 9.7651 19.6412 9.76509 19.6496 9.76509C22.4401 9.76509 24.7022 11.9131 24.7022 14.5628C24.7022 16.6518 23.2963 18.4288 21.3338 19.0875M19.6245 9.76514C19.6411 9.58955 19.6496 9.41172 19.6496 9.232C19.6496 5.9935 16.8848 3.36816 13.4742 3.36816C10.2441 3.36816 7.59327 5.72289 7.32165 8.72313M19.6245 9.76514C19.5096 10.9746 19.008 12.0782 18.238 12.9636M7.32165 8.72313C4.47372 8.98047 2.24609 11.258 2.24609 14.0297C2.24609 15.7737 3.12811 17.3222 4.49171 18.2946M7.32165 8.72313C7.49888 8.70712 7.67849 8.69893 7.86013 8.69893C9.12421 8.69893 10.2907 9.09564 11.2291 9.76509" stroke="white" stroke-width="1.68421" stroke-linecap="round" stroke-linejoin="round"/>
<path d="M10.193 15.1582L8.20109 18.1716C7.93443 18.575 7.80108 18.7767 7.88369 18.9324C7.96629 19.088 8.20667 19.088 8.68741 19.088H10.3998C10.8805 19.088 11.1209 19.088 11.2035 19.2436C11.2861 19.3994 11.1527 19.601 10.8861 20.0045L8.89416 23.0179" stroke="white" stroke-width="1.68421" stroke-linecap="round" stroke-linejoin="round"/>
<path d="M17.9646 20.7715L16.8418 23.0171" stroke="white" stroke-width="1.68421" stroke-linecap="round" stroke-linejoin="round"/>
<path d="M14.5974 20.7715L13.4746 23.0171" stroke="white" stroke-width="1.68421" stroke-linecap="round" stroke-linejoin="round"/>
</svg>
