<svg width="32" height="32" viewBox="0 0 32 32" fill="none" xmlns="http://www.w3.org/2000/svg">
<path d="M16.8755 9.19129L23.1277 10.8571M15.5353 14.1649L18.6614 14.9978M15.6908 23.5349L16.9413 23.8682C20.478 24.8104 22.2464 25.2816 23.6395 24.4819C25.0326 23.682 25.5066 21.9236 26.4542 18.4068L27.7944 13.4332C28.7421 9.91633 29.2159 8.1579 28.4116 6.77261C27.6073 5.38732 25.8389 4.91615 22.3021 3.97382L21.0516 3.64065C17.5149 2.6983 15.7465 2.22714 14.3533 3.02694C12.9602 3.82674 12.4863 5.58516 11.5387 9.10202L10.1984 14.0756C9.25073 17.5924 8.7769 19.3509 9.58123 20.7361C10.3856 22.1215 12.154 22.5927 15.6908 23.5349Z" stroke="white" stroke-width="1.96491" stroke-linecap="round"/>
<path d="M15.7166 27.4383L14.4691 27.778C10.9406 28.7388 9.17636 29.2192 7.78647 28.4037C6.39659 27.5883 5.92386 25.7954 4.9784 22.2095L3.64133 17.1384C2.69587 13.5525 2.22313 11.7596 3.02559 10.3471C3.71973 9.1253 5.23707 9.16979 7.20199 9.16963" stroke="white" stroke-width="1.96491" stroke-linecap="round"/>
</svg>
