<svg width="32" height="32" viewBox="0 0 32 32" fill="none" xmlns="http://www.w3.org/2000/svg">
<path d="M6.38967 17.2362L9.18756 19.6351V6.847C9.18756 5.57933 10.2149 4.5517 11.4821 4.5517C12.7493 4.5517 13.7766 5.57933 13.7766 6.847V13.7329L17.6942 14.3593C20.2229 14.7388 21.4874 14.9284 22.3779 15.4622C23.8491 16.3438 24.9149 17.6677 24.9149 19.6004C24.9149 20.9466 24.5821 21.8498 23.7735 24.2765C23.2605 25.8162 23.0039 26.5861 22.5857 27.1956C21.8969 28.1989 20.8808 28.9314 19.7114 29.2678C19.0011 29.4721 18.19 29.4721 16.5674 29.4721H15.1921C13.035 29.4721 11.9565 29.4721 10.9963 29.0761C10.8241 29.0051 10.6558 28.925 10.4921 28.8361C9.57948 28.3403 8.89936 27.503 7.53913 25.8284L3.13558 20.4067C2.45889 19.5735 2.45438 18.3814 3.12473 17.5431C3.93046 16.5357 5.4104 16.3965 6.38967 17.2362Z" stroke="white" stroke-width="1.96491" stroke-linecap="round" stroke-linejoin="round"/>
<path d="M22.1604 3.10234L23.2155 2.11003C23.3157 2.01567 23.444 1.96807 23.5725 1.96748M23.5725 1.96748C23.6997 1.96688 23.8272 2.01235 23.9281 2.10408L25.0255 3.10234M23.5725 1.96748V12.4137M22.1604 11.2802L23.2579 12.2785C23.3479 12.3604 23.4592 12.4054 23.5725 12.4137C23.7144 12.424 23.8596 12.3769 23.9705 12.2725L25.0255 11.2802M27.6813 8.62479L28.679 7.5266C28.7707 7.42568 28.816 7.29812 28.8155 7.17081C28.8148 7.04218 28.7672 6.91382 28.6729 6.81343L27.6813 5.75777M28.8155 7.17081H18.3764M19.5091 8.62476L18.5175 7.56909C18.4131 7.45805 18.3661 7.31278 18.3764 7.17081M18.3764 7.17081C18.3847 7.05736 18.4296 6.94602 18.5115 6.85592L19.5091 5.75775" stroke="white" stroke-width="1.96491" stroke-linecap="round" stroke-linejoin="round"/>
</svg>
