<svg width="27" height="27" viewBox="0 0 27 27" fill="none" xmlns="http://www.w3.org/2000/svg">
<path d="M18.4015 3.36841L19.5276 4.46398C20.0306 4.95342 20.2821 5.19815 20.1935 5.40609C20.105 5.61402 19.7493 5.61402 19.0379 5.61402H10.3238C5.86261 5.61402 2.24609 9.13291 2.24609 13.4737C2.24609 15.1435 2.78131 16.6919 3.69395 17.9649" stroke="white" stroke-width="1.68421" stroke-linecap="round" stroke-linejoin="round"/>
<path d="M8.5458 23.579L7.41984 22.4835C6.91681 21.9939 6.66529 21.7492 6.75381 21.5413C6.84233 21.3334 7.19803 21.3334 7.90942 21.3334H16.6235C21.0847 21.3334 24.7012 17.8145 24.7012 13.4737C24.7012 11.8039 24.166 10.2556 23.2534 8.98248" stroke="white" stroke-width="1.68421" stroke-linecap="round" stroke-linejoin="round"/>
</svg>
