<svg width="27" height="27" viewBox="0 0 27 27" fill="none" xmlns="http://www.w3.org/2000/svg">
<path d="M13.4729 2.24561C9.13217 2.24561 5.61328 5.76448 5.61328 10.1053C5.61328 14.446 9.13217 17.9649 13.4729 17.9649C17.8137 17.9649 21.3326 14.446 21.3326 10.1053C21.3326 5.76449 17.8137 2.24561 13.4729 2.24561Z" stroke="white" stroke-width="1.68421" stroke-linecap="round" stroke-linejoin="round"/>
<path d="M16.843 20.2106C14.5974 20.2106 13.4746 21.8948 13.4746 21.8948C13.4746 21.8948 14.5974 23.579 16.843 23.579C19.0886 23.579 20.2115 21.8948 20.2115 21.8948C20.2115 21.8948 19.0886 20.2106 16.843 20.2106Z" stroke="white" stroke-width="1.68421" stroke-linecap="round" stroke-linejoin="round"/>
<path d="M10.1047 20.2106C7.85914 20.2106 6.73633 21.8948 6.73633 21.8948C6.73633 21.8948 7.85914 23.579 10.1047 23.579C12.3504 23.579 13.4732 21.8948 13.4732 21.8948C13.4732 21.8948 12.3504 20.2106 10.1047 20.2106Z" stroke="white" stroke-width="1.68421" stroke-linecap="round" stroke-linejoin="round"/>
<path d="M13.4746 24.7018V17.965" stroke="white" stroke-width="1.68421" stroke-linecap="round" stroke-linejoin="round"/>
<path d="M11.7186 13.0994V7.11109M13.473 7.11109V5.61401M13.473 14.5965V13.0994M11.7186 10.1052H15.2274M15.2274 10.1052C15.8088 10.1052 16.2801 10.6079 16.2801 11.228V11.9766C16.2801 12.5968 15.8088 13.0994 15.2274 13.0994H10.666M15.2274 10.1052C15.8088 10.1052 16.2801 9.60254 16.2801 8.98243V8.23389C16.2801 7.61379 15.8088 7.11109 15.2274 7.11109H10.666" stroke="white" stroke-width="1.68421" stroke-linecap="round" stroke-linejoin="round"/>
</svg>
