<svg width="32" height="32" viewBox="0 0 32 32" fill="none" xmlns="http://www.w3.org/2000/svg">
<path d="M22.2695 15.4632C22.2695 15.0104 22.2695 14.784 22.3376 14.5823C22.5357 13.9959 23.0579 13.7685 23.5809 13.5303C24.1689 13.2624 24.4629 13.1285 24.7542 13.1049C25.085 13.0782 25.4163 13.1495 25.699 13.3081C26.0737 13.5183 26.3351 13.918 26.6027 14.243C27.8385 15.7439 28.4563 16.4945 28.6824 17.3221C28.8648 17.9899 28.8648 18.6884 28.6824 19.3562C28.3526 20.5633 27.3108 21.5753 26.5397 22.5119C26.1453 22.9909 25.948 23.2305 25.699 23.3703C25.4163 23.5289 25.085 23.6002 24.7542 23.5734C24.4629 23.5499 24.1689 23.416 23.5809 23.1481C23.0579 22.9098 22.5357 22.6824 22.3376 22.0961C22.2695 21.8944 22.2695 21.668 22.2695 21.2152V15.4632Z" stroke="white" stroke-width="1.96491"/>
<path d="M9.1669 15.4633C9.1669 14.8933 9.15089 14.3808 8.68996 13.98C8.52231 13.8342 8.30004 13.7329 7.85553 13.5304C7.26749 13.2626 6.97348 13.1288 6.68215 13.1052C5.80809 13.0344 5.33783 13.631 4.83378 14.2433C3.59801 15.7442 2.98012 16.4947 2.75402 17.3223C2.57158 17.9902 2.57158 18.6887 2.75402 19.3565C3.08379 20.5636 4.12561 21.5754 4.89676 22.5121C5.38285 23.1025 5.8472 23.6412 6.68215 23.5737C6.97348 23.5501 7.26749 23.4161 7.85553 23.1484C8.30004 22.9459 8.52231 22.8446 8.68996 22.6988C9.15089 22.298 9.1669 21.7856 9.1669 21.2154V15.4633Z" stroke="white" stroke-width="1.96491"/>
<path d="M26.2013 13.7544V11.7895C26.2013 6.72526 21.5094 2.61989 15.7217 2.61989C9.93403 2.61989 5.24219 6.72526 5.24219 11.7895V13.7544" stroke="white" stroke-width="1.96491" stroke-linecap="round" stroke-linejoin="round"/>
<path d="M26.1983 22.924C26.1983 28.8187 20.9585 28.8187 15.7188 28.8187" stroke="white" stroke-width="1.96491" stroke-linecap="round" stroke-linejoin="round"/>
</svg>
