<svg width="32" height="32" viewBox="0 0 32 32" fill="none" xmlns="http://www.w3.org/2000/svg">
<path d="M11.1328 18.9942H20.3024M11.1328 12.4445H15.7176" stroke="white" stroke-width="1.96491" stroke-linecap="round" stroke-linejoin="round"/>
<path d="M18.56 27.3653C24.0394 27.0012 28.4042 22.5745 28.7634 17.0173C28.8336 15.9298 28.8336 14.8035 28.7634 13.716C28.4042 8.1588 24.0394 3.73218 18.56 3.36794C16.6905 3.24368 14.7389 3.24394 12.8732 3.36794C7.39374 3.73218 3.02904 8.1588 2.6699 13.716C2.59962 14.8035 2.59962 15.9298 2.6699 17.0173C2.80071 19.0413 3.69583 20.9153 4.74965 22.4977C5.36152 23.6055 4.95771 24.9882 4.32038 26.1959C3.86086 27.0668 3.63109 27.5022 3.81557 27.8167C4.00006 28.1312 4.41214 28.1413 5.23632 28.1614C6.8662 28.2011 7.96526 27.7389 8.83768 27.0956C9.33247 26.7308 9.57988 26.5483 9.75039 26.5274C9.92089 26.5064 10.2565 26.6446 10.9275 26.921C11.5306 27.1694 12.2308 27.3226 12.8732 27.3653C14.7389 27.4894 16.6905 27.4896 18.56 27.3653Z" stroke="white" stroke-width="1.96491" stroke-linejoin="round"/>
</svg>
