<svg width="27" height="27" viewBox="0 0 27 27" fill="none" xmlns="http://www.w3.org/2000/svg">
<path d="M3.36914 5.61403H9.46557C10.2164 5.61403 10.9175 5.23878 11.334 4.61405L12.2464 3.24558C12.6628 2.62085 13.364 2.24561 14.1149 2.24561H19.1541C20.1206 2.24561 20.9788 2.86411 21.2844 3.78109L21.8955 5.61403M23.5797 5.61403H8.98318" stroke="white" stroke-width="1.68421" stroke-linecap="round"/>
<path d="M21.8948 5.61401L21.3334 12.9123M5.05273 5.61401L5.73159 17.4441C5.90545 20.3305 5.99239 21.7738 6.71301 22.8116C7.0693 23.3247 7.5283 23.7578 8.06079 24.0833C8.71451 24.4829 9.5029 24.64 10.6668 24.7017" stroke="white" stroke-width="1.68421" stroke-linecap="round"/>
<path d="M12.3516 17.4013L13.6274 19.0471C14.2693 16.6511 16.7321 15.2293 19.1279 15.8712C20.3544 16.1999 21.3256 17.0056 21.8954 18.0352M23.5796 23.0153L22.3038 21.3719C21.6618 23.7678 19.1991 25.1896 16.8032 24.5476C15.6052 24.2267 14.6507 23.4505 14.0761 22.455" stroke="white" stroke-width="1.68421" stroke-linecap="round" stroke-linejoin="round"/>
</svg>
