<svg width="27" height="27" viewBox="0 0 27 27" fill="none" xmlns="http://www.w3.org/2000/svg">
<path d="M24.6571 12.3177C24.7173 13.2499 24.7173 14.2153 24.6571 15.1474C24.3492 19.9107 20.608 23.705 15.9113 24.0171C14.309 24.1237 12.6361 24.1235 11.037 24.0171C10.4863 23.9805 9.88612 23.8492 9.36919 23.6363C8.79404 23.3994 8.50641 23.2809 8.36027 23.2989C8.21411 23.3169 8.00205 23.4733 7.57794 23.786C6.83015 24.3374 5.88811 24.7335 4.49106 24.6995C3.78463 24.6823 3.43142 24.6737 3.27328 24.4041C3.11515 24.1345 3.3121 23.7613 3.70598 23.0148C4.25226 21.9796 4.59838 20.7945 4.07392 19.8449C3.17064 18.4886 2.4034 16.8823 2.29127 15.1474C2.23103 14.2153 2.23103 13.2499 2.29127 12.3177C2.59911 7.55442 6.34028 3.76017 11.037 3.44796C12.3871 3.35822 12.6671 3.34409 14.0356 3.40598" stroke="white" stroke-width="1.68421" stroke-linecap="round" stroke-linejoin="round"/>
<path d="M9.54297 16.8426H17.4026M9.54297 11.2285H13.4728" stroke="white" stroke-width="1.68421" stroke-linecap="round" stroke-linejoin="round"/>
<path d="M24.7014 6.17592C24.7014 8.3463 22.942 10.1057 20.7716 10.1057C18.6012 10.1057 16.8418 8.3463 16.8418 6.17592C16.8418 4.00553 18.6012 2.24609 20.7716 2.24609C22.942 2.24609 24.7014 4.00553 24.7014 6.17592Z" stroke="white" stroke-width="1.68421"/>
</svg>
