<svg width="27" height="27" viewBox="0 0 27 27" fill="none" xmlns="http://www.w3.org/2000/svg">
<path d="M19.1138 3.4066L18.042 3.12103C15.0105 2.3133 13.4947 1.90945 12.3006 2.59499C11.1065 3.28054 10.7003 4.78776 9.88804 7.8022L8.73927 12.0653C7.92697 15.0797 7.52083 16.5869 8.21025 17.7743C8.89968 18.9618 10.4155 19.3655 13.447 20.1733L14.5189 20.4589C17.5503 21.2666 19.0661 21.6704 20.2602 20.985C21.4543 20.2994 21.8606 18.7921 22.6728 15.7777L23.8215 11.5146C24.6339 8.50018 25.04 6.99296 24.3506 5.80557C23.6612 4.61818 22.1454 4.21432 19.1138 3.4066Z" stroke="white" stroke-width="1.68421"/>
<path d="M18.9226 8.34547C18.9226 9.25952 18.1774 10.0005 17.2582 10.0005C16.339 10.0005 15.5938 9.25952 15.5938 8.34547C15.5938 7.43141 16.339 6.69043 17.2582 6.69043C18.1774 6.69043 18.9226 7.43141 18.9226 8.34547Z" stroke="white" stroke-width="1.68421"/>
<path d="M13.4742 23.5184L12.4049 23.8095C9.38045 24.6331 7.86824 25.0449 6.67691 24.3459C5.48559 23.6469 5.08039 22.1101 4.26999 19.0366L3.12393 14.6898C2.31353 11.6163 1.90833 10.0795 2.59615 8.86881C3.19113 7.82153 4.49171 7.85966 6.17592 7.85953" stroke="white" stroke-width="1.68421" stroke-linecap="round"/>
</svg>
