<svg width="27" height="27" viewBox="0 0 27 27" fill="none" xmlns="http://www.w3.org/2000/svg">
<path d="M21.3231 21.3338H21.3338M21.3231 21.3338C20.624 22.0271 19.3569 21.8545 18.4683 21.8545C17.3776 21.8545 16.8524 22.0678 16.0739 22.8462C15.4111 23.5091 14.5225 24.7022 13.4742 24.7022C12.4258 24.7022 11.5372 23.5091 10.8744 22.8462C10.096 22.0678 9.57071 21.8545 8.47999 21.8545C7.59142 21.8545 6.32433 22.0271 5.62517 21.3338C4.92041 20.635 5.09385 19.3626 5.09385 18.4683C5.09385 17.3382 4.84669 16.8186 4.04189 16.0137C2.84471 14.8166 2.24612 14.2179 2.24609 13.4742C2.2461 12.7303 2.84468 12.1317 4.04186 10.9346C4.76028 10.2161 5.09385 9.50423 5.09385 8.47999C5.09385 7.59139 4.92117 6.32429 5.61451 5.62511C6.31338 4.92037 7.58572 5.09382 8.48001 5.09382C9.50422 5.09382 10.2161 4.76028 10.9345 4.04188C12.1317 2.84468 12.7303 2.24609 13.4742 2.24609C14.218 2.24609 14.8166 2.84468 16.0137 4.04188C16.732 4.76014 17.4438 5.09382 18.4683 5.09382C19.3569 5.09382 20.6241 4.92115 21.3233 5.61451C22.0279 6.31338 21.8545 7.5857 21.8545 8.47999C21.8545 9.61011 22.1017 10.1297 22.9064 10.9346C24.1037 12.1317 24.7022 12.7303 24.7022 13.4742C24.7022 14.2179 24.1037 14.8166 22.9064 16.0137C22.1016 16.8186 21.8545 17.3382 21.8545 18.4683C21.8545 19.3626 22.0279 20.635 21.3231 21.3338Z" stroke="white" stroke-width="1.68421"/>
<path d="M10.1055 14.4766L12.1265 16.281L16.8423 10.667" stroke="white" stroke-width="1.68421" stroke-linecap="round" stroke-linejoin="round"/>
</svg>
