<svg width="27" height="27" viewBox="0 0 27 27" fill="none" xmlns="http://www.w3.org/2000/svg">
<path d="M12.3587 23.5793H10.7856C6.76001 23.5793 4.74725 23.5793 3.49667 22.3049C2.24609 21.0306 2.24609 18.9796 2.24609 14.8775C2.24609 10.7755 2.24609 8.72446 3.49667 7.45012C4.74725 6.17578 6.76001 6.17578 10.7856 6.17578H15.0553C19.0808 6.17578 21.0936 6.17578 22.3442 7.45012C23.3064 8.43059 23.5282 9.87083 23.5794 12.3512" stroke="white" stroke-width="1.68421" stroke-linecap="round"/>
<path d="M19.2115 14.8829C19.4188 14.6919 19.5224 14.5964 19.6483 14.5964C19.7742 14.5964 19.8778 14.6919 20.0851 14.8829L20.8853 15.6201C20.982 15.7091 21.0303 15.7537 21.0903 15.7757C21.1504 15.7978 21.2161 15.7953 21.3475 15.7901L22.4286 15.7476C22.7069 15.7366 22.8462 15.7313 22.9416 15.8114C23.0371 15.8916 23.0556 16.0297 23.0927 16.3058L23.2417 17.4121C23.2589 17.54 23.2676 17.6039 23.2987 17.6584C23.3299 17.713 23.3805 17.7529 23.4819 17.8327L24.3526 18.5182C24.5681 18.6878 24.6759 18.7726 24.6972 18.8939C24.7186 19.0151 24.6463 19.1316 24.5016 19.3647L23.911 20.3164C23.8434 20.4253 23.8098 20.4797 23.799 20.5412C23.7882 20.6027 23.8016 20.6654 23.8283 20.7907L24.0626 21.8893C24.1201 22.1592 24.149 22.2942 24.0871 22.4014C24.0253 22.5085 23.8941 22.5513 23.6317 22.6367L22.5923 22.9753C22.4685 23.0156 22.4065 23.0358 22.3581 23.0768C22.3097 23.1179 22.2797 23.1757 22.2198 23.2913L21.712 24.2699C21.5826 24.5192 21.5179 24.6439 21.4 24.6869C21.2821 24.7299 21.1523 24.6761 20.8928 24.5684L19.8953 24.1547C19.7734 24.1041 19.7125 24.0789 19.6483 24.0789C19.5841 24.0789 19.5232 24.1041 19.4013 24.1547L18.4038 24.5684C18.1443 24.6761 18.0145 24.7299 17.8966 24.6869C17.7787 24.6439 17.714 24.5192 17.5846 24.2699L17.0769 23.2913C17.0169 23.1757 16.9869 23.1179 16.9385 23.0768C16.8901 23.0358 16.8282 23.0156 16.7043 22.9753L15.6649 22.6367C15.4025 22.5513 15.2713 22.5085 15.2095 22.4014C15.1476 22.2942 15.1765 22.1592 15.234 21.8893L15.4683 20.7907C15.495 20.6654 15.5084 20.6027 15.4976 20.5412C15.4868 20.4797 15.4532 20.4253 15.3856 20.3164L14.795 19.3647C14.6504 19.1316 14.578 19.0151 14.5994 18.8939C14.6207 18.7726 14.7285 18.6878 14.944 18.5182L15.8147 17.8327C15.9161 17.7529 15.9667 17.713 15.9979 17.6584C16.0291 17.6039 16.0377 17.54 16.0549 17.4121L16.2039 16.3058C16.241 16.0297 16.2596 15.8916 16.355 15.8114C16.4504 15.7313 16.5897 15.7366 16.868 15.7476L17.9492 15.7901C18.0805 15.7953 18.1462 15.7978 18.2063 15.7757C18.2664 15.7537 18.3146 15.7091 18.4113 15.6201L19.2115 14.8829Z" stroke="white" stroke-width="1.68421"/>
<path d="M17.9647 6.17592L17.8531 5.8289C17.2973 4.09972 17.0194 3.23514 16.3577 2.74061C15.6962 2.24609 14.8173 2.24609 13.0597 2.24609H12.7643C11.0066 2.24609 10.1278 2.24609 9.46624 2.74061C8.80462 3.23514 8.52672 4.09972 7.97091 5.8289L7.85938 6.17592" stroke="white" stroke-width="1.68421"/>
</svg>
