<svg width="27" height="27" viewBox="0 0 27 27" fill="none" xmlns="http://www.w3.org/2000/svg">
<path d="M2.24609 8.9822C2.24609 8.9822 7.27307 3.36816 13.4742 3.36816C19.6752 3.36816 24.7022 8.9822 24.7022 8.9822" stroke="white" stroke-width="1.68421" stroke-linecap="round"/>
<path d="M24.1902 14.6467C24.5316 15.1254 24.7022 15.3648 24.7022 15.719C24.7022 16.0733 24.5316 16.3127 24.1902 16.7913C22.6564 18.9422 18.7392 23.5787 13.4742 23.5787C8.20907 23.5787 4.29196 18.9422 2.75814 16.7913C2.41677 16.3127 2.24609 16.0733 2.24609 15.719C2.24609 15.3648 2.41677 15.1254 2.75814 14.6467C4.29196 12.4959 8.20907 7.85938 13.4742 7.85938C18.7392 7.85938 22.6564 12.4959 24.1902 14.6467Z" stroke="white" stroke-width="1.68421"/>
<path d="M16.8423 15.719C16.8423 13.8586 15.3343 12.3506 13.4739 12.3506C11.6135 12.3506 10.1055 13.8586 10.1055 15.719C10.1055 17.5794 11.6135 19.0874 13.4739 19.0874C15.3343 19.0874 16.8423 17.5794 16.8423 15.719Z" stroke="white" stroke-width="1.68421"/>
</svg>
