<svg width="27" height="27" viewBox="0 0 27 27" fill="none" xmlns="http://www.w3.org/2000/svg">
<path d="M21.3341 13.4741V8.98294C21.3341 5.80715 21.3341 4.21927 20.3474 3.23268C19.3608 2.24609 17.773 2.24609 14.5972 2.24609H10.106C6.9302 2.24609 5.34232 2.24609 4.35573 3.23268C3.36914 4.21927 3.36914 5.80715 3.36914 8.98294V17.9653C3.36914 21.1412 3.36914 22.7291 4.35573 23.7157C5.34232 24.7022 6.9302 24.7022 10.106 24.7022H12.3516" stroke="white" stroke-width="1.68421" stroke-linecap="round" stroke-linejoin="round"/>
<path d="M16.2815 2.24609H8.42188C8.42188 3.83398 8.42188 4.62793 8.91517 5.12122C9.40846 5.61451 10.2024 5.61451 11.7903 5.61451H12.9131C14.501 5.61451 15.2949 5.61451 15.7883 5.12122C16.2815 4.62793 16.2815 3.83398 16.2815 2.24609Z" stroke="white" stroke-width="1.68421" stroke-linecap="round" stroke-linejoin="round"/>
<path d="M7.85938 16.8418H12.3506M7.85938 12.3506H16.8418" stroke="white" stroke-width="1.68421" stroke-linecap="round" stroke-linejoin="round"/>
<path d="M17.6687 24.3114L15.7188 24.7014L16.1087 22.7515C16.188 22.3554 16.3827 21.9917 16.6682 21.7061L21.233 17.1414C21.6324 16.7419 22.2801 16.7419 22.6796 17.1414L23.2788 17.7407C23.6782 18.1402 23.6782 18.7878 23.2788 19.1873L18.7141 23.7519C18.4285 24.0376 18.0647 24.2323 17.6687 24.3114Z" stroke="white" stroke-width="1.68421" stroke-linecap="round" stroke-linejoin="round"/>
</svg>
