<svg width="159" height="86" viewBox="0 0 159 86" fill="none" xmlns="http://www.w3.org/2000/svg">
<path d="M121.03 85.36H119.94C109.59 84.55 110.57 69.57 121.07 70.15C130.65 70.68 131.1 84.42 121.15 85.29L121.03 85.36ZM125.81 77.75C125.81 74.84 123.45 72.48 120.54 72.48C117.63 72.48 115.27 74.84 115.27 77.75C115.27 80.66 117.63 83.02 120.54 83.02C123.45 83.02 125.81 80.66 125.81 77.75Z" fill="#FA8C3D"/>
<path d="M158.84 85.05H147.51V70.38H158.76V72.63H150.14V76.59H157.75V78.77H150.14V82.88H158.84V85.05Z" fill="#FA8C3D"/>
<path d="M55.1904 85.36C51.3304 85.26 48.9804 82.92 48.9104 79.03C48.8604 76.37 49.0604 73.64 48.9804 70.96C48.9804 70.75 48.9204 70.58 48.9004 70.38H51.5404V79.27C51.5404 84.29 59.3004 84.14 59.3004 79.5V70.38H61.9404V79.11C61.7204 82.88 59.5704 85.26 55.7304 85.35H55.1904V85.36Z" fill="#1161A5"/>
<path d="M39.4297 85.3601C34.3097 84.8501 31.1497 79.9001 32.9297 75.0201C34.7097 70.1401 41.1397 68.7401 45.2797 71.6401L46.1797 72.4401L44.4997 74.2601C42.7297 72.7001 40.5197 71.9201 38.2297 72.8801C33.7897 74.7401 34.3397 81.8201 39.0597 82.8901C41.2497 83.3901 42.9597 82.5801 44.5797 81.1701L46.2097 82.6501L46.2397 82.8301C45.2697 83.8101 44.0897 84.6301 42.7497 85.0201C42.1997 85.1801 41.4497 85.3301 40.8897 85.3701H39.4097L39.4297 85.3601Z" fill="#1161A5"/>
<path d="M25.2992 85.3599H23.8992C19.0492 84.9399 15.9092 80.5999 17.0392 75.8299C18.4592 69.8399 26.4192 68.3199 30.5692 72.4399L28.8892 74.2599C26.9292 72.5799 24.5092 71.7999 22.1092 73.1399C18.6792 75.0499 18.7292 80.4299 22.1092 82.3699C24.4592 83.7099 27.1592 82.9299 28.9692 81.0999L30.6392 82.7699C29.6092 83.8799 28.2692 84.7699 26.7792 85.1099C26.3392 85.2099 25.7292 85.3299 25.2892 85.3699L25.2992 85.3599Z" fill="#1161A5"/>
<path d="M105.35 85.36H104.19C98.7696 84.98 95.4496 79.58 97.6796 74.55C99.9096 69.52 106.98 68.72 110.71 72.44L109.04 74.26C106.8 72.09 103.12 71.67 100.96 74.18C98.5796 76.96 99.6996 81.79 103.33 82.83C105.6 83.48 107.48 82.59 109.18 81.17C109.29 81.19 110.7 82.62 110.75 82.71C110.82 82.84 110.78 82.82 110.7 82.9C110.46 83.16 109.9 83.61 109.61 83.83C108.43 84.71 106.95 85.24 105.47 85.28L105.35 85.35V85.36Z" fill="#FA8C3D"/>
<path d="M118.779 60.45H56.4395L66.4895 54.55H108.139L98.0595 37.27L102.979 34L118.779 60.45Z" fill="#1161A5"/>
<path d="M82.8309 0L100.531 29.95L95.1809 32.09L94.9009 32.06L82.7209 11.87L67.6509 37.17L57.2109 42.76L82.8309 0Z" fill="#1161A5"/>
<path d="M46.8105 60.4501L46.8705 60.16L55.3705 45.8801L65.7205 40.12L65.8305 40.16L60.6305 48.85L60.8105 48.87C71.1505 44.22 81.5005 39.5701 92.0505 35.4001L114.471 25.3L98.7205 34.7001C83.5305 43.5101 68.0705 51.8701 52.7505 60.4501H46.8105Z" fill="url(#paint0_linear_12461_9157)"/>
<path d="M65.6797 70.38H73.1597C76.2197 70.69 78.2797 72.36 78.0297 75.62C77.8697 77.67 76.4297 78.9 74.5697 79.46C74.4797 79.49 74.4297 79.41 74.4597 79.58L78.4997 85.13H75.3897L71.6197 79.93H68.3597L68.2397 80.05V85.13H65.6797V70.39V70.38ZM68.3497 72.71L68.2297 72.83V77.56L68.3497 77.68H73.0097C73.1397 77.68 73.7997 77.46 73.9597 77.38C75.7897 76.56 75.9297 73.88 74.0797 73.04C73.9097 72.96 73.1497 72.71 73.0097 72.71H68.3497Z" fill="#1161A5"/>
<path d="M144.551 85.05H141.441L137.751 79.93H134.371V85.05H131.811V70.38C134.351 70.53 137.171 70.14 139.681 70.47C143.041 70.91 145.281 73.83 143.701 77.11C143.061 78.44 141.821 79.08 140.501 79.58L144.541 85.05H144.551ZM134.381 72.71V77.64L134.501 77.76H138.541C140.411 77.76 142.021 76.3 141.401 74.36C141.121 73.51 140.051 72.71 139.171 72.71H134.401H134.381Z" fill="#FA8C3D"/>
<path d="M15.76 85.13H12.97L11.38 81.56L4.25 81.58L2.65 85.14H0L6.71 70.31C7.4 70.38 8.22 70.23 8.89 70.31C9 70.32 9.09 70.31 9.15 70.44L15.76 85.14V85.13ZM5.2 79.31H10.36L10.44 79.15L7.79 73.41L5.19 79.31H5.2Z" fill="#1161A5"/>
<path d="M80.1191 85.1299L86.7291 70.3199H89.1691L95.8791 85.1299H93.1991L91.5591 81.5699L84.4191 81.5499L82.7191 85.1299H80.1191ZM85.3191 79.3099H90.5991L87.9191 73.41L85.3191 79.3099Z" fill="#1161A5"/>
<defs>
<linearGradient id="paint0_linear_12461_9157" x1="139.34" y1="6.87584" x2="50.3398" y2="58.26" gradientUnits="userSpaceOnUse">
<stop stop-color="#AD4D32"/>
<stop offset="1" stop-color="#FA8C3D"/>
</linearGradient>
</defs>
</svg>
