<svg width="534" height="287" viewBox="0 0 534 287" fill="none" xmlns="http://www.w3.org/2000/svg">
<path d="M406.887 286.97H403.223C368.427 284.247 371.722 233.886 407.022 235.836C439.229 237.617 440.741 283.81 407.291 286.734L406.887 286.97ZM422.957 261.386C422.957 251.603 415.023 243.669 405.24 243.669C395.457 243.669 387.523 251.603 387.523 261.386C387.523 271.169 395.457 279.103 405.24 279.103C415.023 279.103 422.957 271.169 422.957 261.386Z" fill="#FA8C3D"/>
<path d="M534 285.928H495.91V236.609H533.731V244.173H504.752V257.486H530.336V264.815H504.752V278.632H534V285.928Z" fill="#FA8C3D"/>
<path d="M185.543 286.97C172.567 286.634 164.666 278.767 164.431 265.689C164.263 256.747 164.935 247.569 164.666 238.559C164.666 237.853 164.464 237.281 164.397 236.609H173.273V266.496C173.273 283.373 199.361 282.868 199.361 267.269V236.609H208.236V265.958C207.496 278.632 200.268 286.634 187.359 286.936H185.543V286.97Z" fill="#1161A5"/>
<path d="M132.558 286.97C115.345 285.256 104.722 268.614 110.706 252.208C116.69 235.802 138.307 231.096 152.225 240.845L155.251 243.535L149.603 249.653C143.652 244.409 136.222 241.786 128.524 245.014C113.597 251.267 115.446 275.069 131.314 278.666C138.677 280.347 144.425 277.624 149.872 272.884L155.352 277.859L155.452 278.465C152.191 281.759 148.224 284.516 143.719 285.827C141.87 286.365 139.349 286.869 137.466 287.004H132.491L132.558 286.97Z" fill="#1161A5"/>
<path d="M85.0528 286.97H80.3461C64.041 285.558 53.4847 270.967 57.2837 254.931C62.0575 234.793 88.8181 229.683 102.77 243.534L97.1219 249.653C90.5326 244.005 82.3969 241.383 74.3284 245.888C62.7971 252.309 62.9652 270.396 74.3284 276.918C82.2288 281.423 91.3059 278.8 97.3909 272.648L103.005 278.263C99.5425 281.994 95.0376 284.986 90.0284 286.129C88.5491 286.466 86.4984 286.869 85.0192 287.003L85.0528 286.97Z" fill="#1161A5"/>
<path d="M354.172 286.97H350.273C332.051 285.692 320.89 267.538 328.387 250.628C335.884 233.718 359.652 231.028 372.192 243.535L366.578 249.653C359.047 242.358 346.675 240.946 339.414 249.384C331.413 258.73 335.178 274.968 347.381 278.464C355.013 280.65 361.333 277.658 367.048 272.884C367.418 272.951 372.158 277.758 372.327 278.061C372.562 278.498 372.427 278.431 372.158 278.7C371.352 279.574 369.469 281.087 368.494 281.826C364.527 284.785 359.551 286.567 354.576 286.701L354.172 286.936V286.97Z" fill="#FA8C3D"/>
<path d="M399.322 203.226H189.743L223.53 183.39H363.552L329.664 125.297L346.204 114.304L399.322 203.226Z" fill="#1161A5"/>
<path d="M278.468 0L337.973 100.688L319.987 107.883L319.045 107.782L278.098 39.9055L227.434 124.961L192.336 143.754L278.468 0Z" fill="#1161A5"/>
<path d="M157.371 203.226L157.573 202.251L186.149 154.243L220.944 134.879L221.314 135.013L203.833 164.228L204.438 164.295C239.199 148.662 273.995 133.03 309.463 119.011L384.836 85.0557L331.886 116.657C280.82 146.276 228.845 174.381 177.341 203.226H157.371Z" fill="url(#paint0_linear_493_45)"/>
<path d="M220.807 236.609H245.954C256.241 237.651 263.167 243.265 262.326 254.225C261.788 261.117 256.947 265.252 250.694 267.135C250.392 267.236 250.224 266.967 250.324 267.538L263.906 286.197H253.451L240.777 268.715H229.817L229.414 269.118V286.197H220.807V236.643V236.609ZM229.783 244.442L229.38 244.846V260.747L229.783 261.151H245.45C245.887 261.151 248.106 260.411 248.644 260.142C254.796 257.385 255.266 248.376 249.047 245.552C248.475 245.283 245.92 244.442 245.45 244.442H229.783Z" fill="#1161A5"/>
<path d="M485.961 285.928H475.506L463.101 268.715H451.737V285.928H443.131V236.609C451.67 237.113 461.151 235.802 469.589 236.912C480.885 238.391 488.416 248.208 483.104 259.235C480.952 263.706 476.783 265.858 472.346 267.538L485.928 285.928H485.961ZM451.771 244.442V261.016L452.175 261.42H465.756C472.043 261.42 477.456 256.512 475.371 249.989C474.43 247.132 470.833 244.442 467.874 244.442H451.838H451.771Z" fill="#FA8C3D"/>
<path d="M52.9832 286.197H43.6036L38.2582 274.195L14.288 274.262L8.90898 286.23H0L22.5582 236.374C24.8779 236.609 27.6346 236.105 29.8871 236.374C30.2569 236.407 30.5595 236.374 30.7612 236.811L52.9832 286.23V286.197ZM17.4818 266.631H34.8291L35.098 266.093L26.189 246.795L17.4482 266.631H17.4818Z" fill="#1161A5"/>
<path d="M269.351 286.197L291.573 236.407H299.776L322.334 286.197H313.324L307.811 274.228L283.807 274.161L278.092 286.197H269.351ZM286.833 266.63H304.583L295.573 246.795L286.833 266.63Z" fill="#FA8C3D"/>
<defs>
<linearGradient id="paint0_linear_493_45" x1="468.444" y1="23.1158" x2="169.236" y2="195.863" gradientUnits="userSpaceOnUse">
<stop stop-color="#AD4D32"/>
<stop offset="1" stop-color="#FA8C3D"/>
</linearGradient>
</defs>
</svg>
