<svg width="534" height="298" viewBox="0 0 534 298" fill="none" xmlns="http://www.w3.org/2000/svg">
<path d="M403.989 210.468H186.941L221.932 189.926H366.944L331.849 129.763L348.979 118.377L403.989 210.468Z" fill="#1161A5"/>
<path d="M278.83 0L340.455 104.276L321.828 111.727L320.853 111.623L278.447 41.3275L225.978 129.414L189.629 148.877L278.83 0Z" fill="#1161A5"/>
<path d="M153.418 210.468L153.627 209.458L183.221 159.739L219.257 139.685L219.64 139.824L201.535 170.08L202.161 170.15C238.162 153.96 274.197 137.77 310.929 123.251L388.988 88.0864L334.152 120.814C281.265 151.488 227.438 180.595 174.099 210.468H153.418Z" fill="url(#paint0_linear_493_30)"/>
<path d="M4.0284 291.22V251.88H9.4005L25.3489 277.398H22.2711L38.1636 251.88H43.5357V291.22H35.9812V264.919L37.4361 265.367L26.3562 283.162H21.2079L10.128 265.367L11.6389 264.919V291.22H4.0284ZM69.367 276.055L54.1461 251.88H62.9317L74.7391 271.242H69.7028L81.5102 251.88H90.1839L74.7951 276.055H69.367ZM68.3598 291.22V271.97H76.0262V291.22H68.3598Z" fill="#FA8C3D"/>
<path d="M111.19 291.22L127.027 251.88H133.238L149.019 291.22H140.905L128.705 258.931H131.503L119.136 291.22H111.19ZM119.584 283.889V277.51H140.737V283.889H119.584ZM175.263 291.779C172.391 291.779 169.723 291.276 167.261 290.269C164.799 289.224 162.635 287.788 160.77 285.96C158.942 284.094 157.524 281.931 156.517 279.468C155.547 277.006 155.062 274.357 155.062 271.522C155.062 268.687 155.547 266.038 156.517 263.576C157.524 261.114 158.942 258.969 160.77 257.141C162.635 255.313 164.78 253.876 167.205 252.832C169.667 251.787 172.353 251.265 175.263 251.265C178.397 251.265 181.157 251.787 183.545 252.832C185.933 253.839 188.04 255.238 189.868 257.029L184.72 262.177C183.638 260.983 182.314 260.05 180.747 259.379C179.18 258.707 177.352 258.372 175.263 258.372C173.435 258.372 171.756 258.689 170.227 259.323C168.735 259.92 167.429 260.815 166.31 262.009C165.19 263.166 164.332 264.565 163.735 266.206C163.139 267.81 162.84 269.582 162.84 271.522C162.84 273.499 163.139 275.29 163.735 276.894C164.332 278.498 165.19 279.897 166.31 281.091C167.429 282.248 168.735 283.143 170.227 283.777C171.756 284.411 173.435 284.729 175.263 284.729C177.464 284.729 179.348 284.393 180.915 283.721C182.519 283.05 183.862 282.098 184.944 280.867L190.092 286.016C188.264 287.844 186.138 289.261 183.713 290.269C181.288 291.276 178.471 291.779 175.263 291.779ZM217.637 291.779C214.764 291.779 212.097 291.276 209.635 290.269C207.173 289.224 205.009 287.788 203.144 285.96C201.316 284.094 199.898 281.931 198.891 279.468C197.921 277.006 197.436 274.357 197.436 271.522C197.436 268.687 197.921 266.038 198.891 263.576C199.898 261.114 201.316 258.969 203.144 257.141C205.009 255.313 207.154 253.876 209.579 252.832C212.041 251.787 214.727 251.265 217.637 251.265C220.771 251.265 223.531 251.787 225.919 252.832C228.307 253.839 230.414 255.238 232.242 257.029L227.094 262.177C226.012 260.983 224.688 260.05 223.121 259.379C221.554 258.707 219.726 258.372 217.637 258.372C215.809 258.372 214.13 258.689 212.601 259.323C211.108 259.92 209.803 260.815 208.684 262.009C207.564 263.166 206.706 264.565 206.109 266.206C205.512 267.81 205.214 269.582 205.214 271.522C205.214 273.499 205.512 275.29 206.109 276.894C206.706 278.498 207.564 279.897 208.684 281.091C209.803 282.248 211.108 283.143 212.601 283.777C214.13 284.411 215.809 284.729 217.637 284.729C219.838 284.729 221.722 284.393 223.289 283.721C224.893 283.05 226.236 282.098 227.318 280.867L232.466 286.016C230.638 287.844 228.512 289.261 226.087 290.269C223.662 291.276 220.845 291.779 217.637 291.779ZM258.854 291.779C255.757 291.779 252.997 291.108 250.572 289.765C248.184 288.385 246.3 286.501 244.92 284.113C243.539 281.725 242.849 279.021 242.849 275.999V251.88H250.46V276.223C250.46 277.976 250.814 279.487 251.523 280.755C252.269 282.024 253.276 283.012 254.545 283.721C255.851 284.393 257.287 284.729 258.854 284.729C260.458 284.729 261.875 284.393 263.107 283.721C264.338 283.012 265.308 282.024 266.016 280.755C266.763 279.487 267.136 277.995 267.136 276.279V251.88H274.802V276.055C274.802 279.077 274.112 281.781 272.732 284.169C271.351 286.519 269.467 288.385 267.08 289.765C264.729 291.108 261.987 291.779 258.854 291.779ZM293.509 274.768V268.836H302.63C304.495 268.836 305.932 268.37 306.939 267.437C307.983 266.467 308.506 265.143 308.506 263.464C308.506 261.934 307.983 260.666 306.939 259.659C305.932 258.614 304.495 258.092 302.63 258.092H293.509V251.88H303.302C305.838 251.88 308.058 252.384 309.961 253.391C311.901 254.361 313.393 255.704 314.437 257.42C315.519 259.136 316.06 261.114 316.06 263.352C316.06 265.665 315.519 267.68 314.437 269.396C313.393 271.074 311.901 272.399 309.961 273.369C308.021 274.301 305.764 274.768 303.19 274.768H293.509ZM287.913 291.22V251.88H295.523V291.22H287.913ZM309.401 291.22L296.419 274.208L303.413 272.026L318.634 291.22H309.401ZM324.371 291.22L340.208 251.88H346.419L362.2 291.22H354.086L341.886 258.931H344.684L332.317 291.22H324.371ZM332.765 283.889V277.51H353.918V283.889H332.765ZM388.444 291.779C385.572 291.779 382.904 291.276 380.442 290.269C377.98 289.224 375.816 287.788 373.951 285.96C372.123 284.094 370.705 281.931 369.698 279.468C368.728 277.006 368.243 274.357 368.243 271.522C368.243 268.687 368.728 266.038 369.698 263.576C370.705 261.114 372.123 258.969 373.951 257.141C375.816 255.313 377.961 253.876 380.386 252.832C382.848 251.787 385.534 251.265 388.444 251.265C391.578 251.265 394.339 251.787 396.726 252.832C399.114 253.839 401.222 255.238 403.05 257.029L397.901 262.177C396.819 260.983 395.495 260.05 393.928 259.379C392.361 258.707 390.533 258.372 388.444 258.372C386.616 258.372 384.937 258.689 383.408 259.323C381.916 259.92 380.61 260.815 379.491 262.009C378.371 263.166 377.513 264.565 376.917 266.206C376.32 267.81 376.021 269.582 376.021 271.522C376.021 273.499 376.32 275.29 376.917 276.894C377.513 278.498 378.371 279.897 379.491 281.091C380.61 282.248 381.916 283.143 383.408 283.777C384.937 284.411 386.616 284.729 388.444 284.729C390.645 284.729 392.529 284.393 394.096 283.721C395.7 283.05 397.043 282.098 398.125 280.867L403.273 286.016C401.445 287.844 399.319 289.261 396.894 290.269C394.469 291.276 391.652 291.779 388.444 291.779ZM430.986 291.835C428.113 291.835 425.427 291.313 422.928 290.269C420.466 289.224 418.302 287.788 416.437 285.96C414.608 284.094 413.172 281.931 412.128 279.468C411.083 276.969 410.561 274.301 410.561 271.466C410.561 268.631 411.064 266.001 412.072 263.576C413.116 261.114 414.553 258.969 416.381 257.141C418.246 255.275 420.41 253.839 422.872 252.832C425.334 251.787 428.001 251.265 430.874 251.265C433.784 251.265 436.47 251.787 438.932 252.832C441.394 253.839 443.539 255.275 445.367 257.141C447.233 258.969 448.688 261.114 449.732 263.576C450.777 266.038 451.299 268.687 451.299 271.522C451.299 274.357 450.777 277.006 449.732 279.468C448.688 281.931 447.233 284.094 445.367 285.96C443.539 287.788 441.394 289.224 438.932 290.269C436.507 291.313 433.859 291.835 430.986 291.835ZM430.874 284.729C433.411 284.729 435.612 284.169 437.477 283.05C439.343 281.931 440.797 280.382 441.842 278.405C442.924 276.428 443.465 274.115 443.465 271.466C443.465 269.526 443.166 267.754 442.57 266.15C441.973 264.546 441.115 263.166 439.995 262.009C438.876 260.815 437.552 259.901 436.022 259.267C434.493 258.633 432.777 258.316 430.874 258.316C428.412 258.316 426.229 258.875 424.327 259.995C422.461 261.076 420.988 262.606 419.906 264.583C418.861 266.56 418.339 268.855 418.339 271.466C418.339 273.443 418.638 275.253 419.234 276.894C419.869 278.536 420.727 279.935 421.809 281.091C422.928 282.248 424.252 283.143 425.782 283.777C427.349 284.411 429.046 284.729 430.874 284.729ZM468.524 274.768V268.836H477.645C479.51 268.836 480.947 268.37 481.954 267.437C482.999 266.467 483.521 265.143 483.521 263.464C483.521 261.934 482.999 260.666 481.954 259.659C480.947 258.614 479.51 258.092 477.645 258.092H468.524V251.88H478.317C480.853 251.88 483.073 252.384 484.976 253.391C486.916 254.361 488.408 255.704 489.453 257.42C490.534 259.136 491.075 261.114 491.075 263.352C491.075 265.665 490.534 267.68 489.453 269.396C488.408 271.074 486.916 272.399 484.976 273.369C483.036 274.301 480.779 274.768 478.205 274.768H468.524ZM462.928 291.22V251.88H470.538V291.22H462.928ZM484.416 291.22L471.434 274.208L478.429 272.026L493.649 291.22H484.416ZM503.553 291.22V251.88H511.163V291.22H503.553ZM509.149 291.22V284.505H530.917V291.22H509.149ZM509.149 274.376V267.885H528.958V274.376H509.149ZM509.149 258.596V251.88H530.637V258.596H509.149Z" fill="#1161A5"/>
<defs>
<linearGradient id="paint0_linear_493_30" x1="475.575" y1="23.9392" x2="165.706" y2="202.842" gradientUnits="userSpaceOnUse">
<stop stop-color="#AD4D32"/>
<stop offset="1" stop-color="#FA8C3D"/>
</linearGradient>
</defs>
</svg>
