<svg width="27" height="27" viewBox="0 0 27 27" fill="none" xmlns="http://www.w3.org/2000/svg">
<path d="M21.3331 11.79V11.2285C21.3331 6.99418 21.3331 4.877 20.0176 3.56154C18.7022 2.24609 16.585 2.24609 12.3506 2.24609C8.11625 2.24609 5.99907 2.24609 4.68361 3.56154C3.36816 4.877 3.36816 6.99418 3.36816 11.2285V17.9654C3.36816 20.0581 3.36816 21.1043 3.71004 21.9297C4.16587 23.0302 5.04019 23.9045 6.14068 24.3603C6.96603 24.7022 8.01235 24.7022 10.105 24.7022" stroke="white" stroke-width="1.68421" stroke-linecap="round" stroke-linejoin="round"/>
<path d="M7.85938 7.85938H16.8418M7.85938 12.3506H12.3506" stroke="white" stroke-width="1.68421" stroke-linecap="round"/>
<path d="M17.1592 21.3379C17.093 20.3401 16.9745 19.2735 16.4847 18.0675C16.0668 17.0389 16.1832 14.6191 18.5263 14.6191C20.8693 14.6191 20.9587 17.0389 20.5408 18.0675C20.0508 19.2735 19.9595 20.3401 19.8933 21.3379M23.5789 24.7014H13.4736V23.3027C13.4736 22.8014 13.7727 22.3608 14.2066 22.2231L16.7383 21.4194C16.9189 21.362 17.1057 21.333 17.2935 21.333H19.759C19.9468 21.333 20.1337 21.362 20.3142 21.4194L22.8459 22.2231C23.2798 22.3608 23.5789 22.8014 23.5789 23.3027V24.7014Z" stroke="white" stroke-width="1.68421" stroke-linecap="round" stroke-linejoin="round"/>
</svg>
