<svg width="27" height="27" viewBox="0 0 27 27" fill="none" xmlns="http://www.w3.org/2000/svg">
<path d="M24.7023 10.1052V16.8421C24.7023 20.0179 24.7023 21.6057 23.7156 22.5923C22.729 23.579 21.1412 23.579 17.9654 23.579H8.98294C5.80717 23.579 4.21927 23.579 3.23268 22.5923C2.24609 21.6057 2.24609 20.0179 2.24609 16.8421V12.4112C2.24609 11.3107 2.24609 10.7605 2.37344 10.3106C2.69203 9.18517 3.57164 8.30557 4.69706 7.98699C5.14696 7.85963 5.69716 7.85963 6.79761 7.85963C7.20853 7.85963 7.41399 7.85963 7.60538 7.82627C8.07958 7.74361 8.51467 7.51075 8.8465 7.16204C8.98042 7.02131 9.31641 6.51734 9.54434 6.17542C9.9894 5.50786 10.2119 5.17407 10.5161 4.94445C10.7019 4.80424 10.9083 4.69377 11.128 4.61697C11.4878 4.49121 11.889 4.49121 12.6914 4.49121H14.597" stroke="white" stroke-width="1.68421" stroke-linecap="round" stroke-linejoin="round"/>
<path d="M17.9649 15.1582C17.9649 17.6386 15.9541 19.6495 13.4737 19.6495C10.9932 19.6495 8.98242 17.6386 8.98242 15.1582C8.98242 12.6777 10.9932 10.667 13.4737 10.667C15.9541 10.667 17.9649 12.6777 17.9649 15.1582Z" stroke="white" stroke-width="1.68421" stroke-linecap="round" stroke-linejoin="round"/>
<path d="M17.9648 6.17518H23.5789M20.7719 8.9822V3.36816" stroke="white" stroke-width="1.68421" stroke-linecap="round" stroke-linejoin="round"/>
</svg>
