<svg width="27" height="27" viewBox="0 0 27 27" fill="none" xmlns="http://www.w3.org/2000/svg">
<path d="M10.9223 2.24609C7.26063 2.24609 5.42977 2.24609 4.15831 3.14191C3.79402 3.39858 3.4706 3.70296 3.1979 4.04583C2.24609 5.2425 2.24609 6.96566 2.24609 10.412V13.27C2.24609 16.5971 2.24609 18.2606 2.77262 19.5892C3.61907 21.7252 5.4092 23.41 7.67864 24.2066C9.09031 24.7022 10.8578 24.7022 14.3928 24.7022C16.4129 24.7022 17.4229 24.7022 18.2295 24.4191C19.5263 23.9639 20.5492 23.0011 21.0329 21.7806C21.3338 21.0213 21.3338 20.0708 21.3338 18.1695V17.404" stroke="white" stroke-width="1.68421" stroke-linecap="round" stroke-linejoin="round"/>
<path d="M16.8418 8.4214C16.8418 8.4214 17.4032 8.4214 17.9646 9.5442C17.9646 9.5442 19.7478 6.73718 21.333 6.17578" stroke="white" stroke-width="1.68421" stroke-linecap="round" stroke-linejoin="round"/>
<path d="M24.7017 7.86013C24.7017 10.9607 22.1882 13.4742 19.0877 13.4742C15.9871 13.4742 13.4736 10.9607 13.4736 7.86013C13.4736 4.75959 15.9871 2.24609 19.0877 2.24609C22.1882 2.24609 24.7017 4.75959 24.7017 7.86013Z" stroke="white" stroke-width="1.68421" stroke-linecap="round"/>
<path d="M2.24609 13.4737C2.24609 15.5407 3.92175 17.2163 5.98878 17.2163C6.73633 17.2163 7.61765 17.0854 8.34447 17.2801C8.99026 17.4531 9.49467 17.9576 9.66771 18.6033C9.86246 19.3303 9.73148 20.2115 9.73148 20.9591C9.73148 23.0261 11.4072 24.7018 13.4742 24.7018" stroke="white" stroke-width="1.68421" stroke-linecap="round" stroke-linejoin="round"/>
</svg>
