<svg width="27" height="27" viewBox="0 0 27 27" fill="none" xmlns="http://www.w3.org/2000/svg">
<path d="M7.86013 6.73732H18.8075C21.1729 6.73732 22.3556 6.73732 23.2052 7.305C23.573 7.55076 23.8888 7.86655 24.1345 8.23435C24.7022 9.08394 24.7022 10.2667 24.7022 12.6321C24.7022 16.5745 24.7022 18.5455 23.756 19.9616C23.5514 20.268 23.3174 20.5529 23.0579 20.8123M3.89041 20.8123C2.24609 19.168 2.24609 16.5215 2.24609 11.2285V7.79755C2.24609 5.75801 2.24609 4.73823 2.67312 3.97304C2.97751 3.42759 3.42759 2.97751 3.97304 2.67312C4.73823 2.24609 5.75801 2.24609 7.79755 2.24609C9.10422 2.24609 9.75756 2.24609 10.3295 2.46056C11.6352 2.95023 12.1737 4.13643 12.763 5.31487L13.4742 6.73732" stroke="white" stroke-width="1.68421" stroke-linecap="round"/>
<path d="M20.4912 23.8596L17.9648 21.3333V17.9649M20.4912 23.0175C20.0261 23.0175 19.6491 23.3946 19.6491 23.8596C19.6491 24.3247 20.0261 24.7017 20.4912 24.7017C20.9562 24.7017 21.3333 24.3247 21.3333 23.8596C21.3333 23.3946 20.9562 23.0175 20.4912 23.0175Z" stroke="white" stroke-width="1.68421" stroke-linecap="round" stroke-linejoin="round"/>
<path d="M6.45636 23.8596L8.98268 21.3333V17.9649M6.45636 23.0175C6.92144 23.0175 7.29847 23.3946 7.29847 23.8596C7.29847 24.3247 6.92144 24.7017 6.45636 24.7017C5.99129 24.7017 5.61426 24.3247 5.61426 23.8596C5.61426 23.3946 5.99129 23.0175 6.45636 23.0175Z" stroke="white" stroke-width="1.68421" stroke-linecap="round" stroke-linejoin="round"/>
<path d="M13.4739 23.8597V17.965M13.4739 23.0176C13.0089 23.0176 12.6318 23.3946 12.6318 23.8597C12.6318 24.3248 13.0089 24.7018 13.4739 24.7018C13.939 24.7018 14.316 24.3248 14.316 23.8597C14.316 23.3946 13.939 23.0176 13.4739 23.0176Z" stroke="white" stroke-width="1.68421" stroke-linecap="round" stroke-linejoin="round"/>
</svg>
