<svg width="27" height="27" viewBox="0 0 27 27" fill="none" xmlns="http://www.w3.org/2000/svg">
<path d="M17.9649 24.7026C16.768 23.3051 15.1957 22.457 13.4736 22.457C11.7516 22.457 10.1794 23.3051 8.98242 24.7026" stroke="white" stroke-width="1.68421" stroke-linecap="round"/>
<path d="M13.4734 14.5977C12.0496 14.5977 10.5441 14.8439 9.36396 15.1734C8.47534 15.4216 7.76051 16.553 7.87059 17.4716C7.91139 17.8119 8.20443 17.9661 8.51255 17.9661H18.4343C18.7424 17.9661 19.0355 17.8119 19.0762 17.4716C19.1864 16.553 18.4715 15.4216 17.5829 15.1734C16.4027 14.8439 14.8972 14.5977 13.4734 14.5977Z" stroke="white" stroke-width="1.68421" stroke-linecap="round"/>
<path d="M23.5791 11.2285C22.3389 11.2285 21.3335 12.2339 21.3335 13.4741V14.5969C21.3335 15.8372 20.3281 16.8426 19.0879 16.8426" stroke="white" stroke-width="1.68421" stroke-linecap="round" stroke-linejoin="round"/>
<path d="M3.36816 11.2285C4.60838 11.2285 5.61378 12.2339 5.61378 13.4741V14.5969C5.61378 15.8372 6.61917 16.8426 7.85939 16.8426" stroke="white" stroke-width="1.68421" stroke-linecap="round" stroke-linejoin="round"/>
<path d="M13.4736 17.9648V24.7017" stroke="white" stroke-width="1.68421" stroke-linecap="round" stroke-linejoin="round"/>
<path d="M14.3938 11.2285H12.553C10.9787 11.2285 10.1915 11.2286 9.62205 10.7529C9.05261 10.2773 8.86169 9.46042 8.47985 7.8266C7.8795 5.25778 7.57933 3.97336 8.20968 3.10973C8.84005 2.24609 10.0777 2.24609 12.553 2.24609H14.3938C16.8691 2.24609 18.1068 2.24609 18.7371 3.10973C19.3675 3.97336 19.0673 5.25778 18.467 7.8266C18.0851 9.46042 17.8942 10.2773 17.3248 10.7529C16.7554 11.2286 15.9682 11.2285 14.3938 11.2285Z" stroke="white" stroke-width="1.68421" stroke-linecap="round" stroke-linejoin="round"/>
<path d="M13.4736 11.2285V14.5969" stroke="white" stroke-width="1.68421" stroke-linecap="round" stroke-linejoin="round"/>
</svg>
