<svg width="27" height="27" viewBox="0 0 27 27" fill="none" xmlns="http://www.w3.org/2000/svg">
<path d="M19.602 10.1957L19.2752 9.61864C19.028 9.18221 18.9044 8.96399 18.6941 8.87697C18.4839 8.78995 18.246 8.85862 17.7704 8.99594L16.9624 9.22749C16.6587 9.29873 16.3401 9.25832 16.0628 9.11338L15.8397 8.98242C15.602 8.82749 15.4191 8.59904 15.3178 8.33052L15.0967 7.6586C14.9513 7.21396 14.8786 6.99163 14.7056 6.86446C14.5325 6.7373 14.3026 6.7373 13.8428 6.7373H13.1047C12.6449 6.7373 12.4149 6.7373 12.2419 6.86446C12.0689 6.99163 11.9961 7.21396 11.8507 7.6586L11.6296 8.33052C11.5283 8.59904 11.3454 8.82749 11.1077 8.98242L10.8846 9.11338C10.6073 9.25832 10.2887 9.29873 9.98507 9.22749L9.17706 8.99594C8.70141 8.85862 8.46359 8.78995 8.2533 8.87697C8.04301 8.96399 7.91942 9.18221 7.67223 9.61864L7.34539 10.1957C7.11369 10.6048 6.99785 10.8094 7.02033 11.0271C7.04282 11.2448 7.1979 11.4203 7.50809 11.7713L8.19081 12.5478C8.35767 12.7627 8.47614 13.1373 8.47614 13.474C8.47614 13.811 8.35771 14.1854 8.19082 14.4003L7.50809 15.177C7.1979 15.5279 7.04282 15.7034 7.02033 15.9211C6.99785 16.1389 7.1137 16.3435 7.34539 16.7525L7.67222 17.3295C7.91941 17.766 8.04301 17.9842 8.2533 18.0713C8.46359 18.1583 8.70142 18.0896 9.17709 17.9522L9.98503 17.7207C10.2888 17.6494 10.6074 17.6899 10.8847 17.8349L11.1078 17.9658C11.3456 18.1208 11.5283 18.3493 11.6296 18.6177L11.8507 19.2897C11.9961 19.7344 12.0689 19.9567 12.2419 20.0838C12.4149 20.211 12.6449 20.211 13.1047 20.211H13.8428C14.3026 20.211 14.5325 20.211 14.7056 20.0838C14.8786 19.9567 14.9513 19.7344 15.0967 19.2897L15.3178 18.6177C15.4191 18.3493 15.6019 18.1208 15.8397 17.9658L16.0627 17.8349C16.34 17.6899 16.6587 17.6494 16.9624 17.7207L17.7704 17.9522C18.246 18.0896 18.4838 18.1583 18.6941 18.0713C18.9044 17.9842 19.028 17.766 19.2753 17.3296L19.602 16.7525C19.8337 16.3435 19.9496 16.1389 19.9271 15.9211C19.9046 15.7034 19.7495 15.5279 19.4393 15.177L18.7566 14.4003C18.5897 14.1854 18.4713 13.811 18.4713 13.474C18.4713 13.1373 18.5898 12.7627 18.7566 12.5478L19.4393 11.7713C19.7495 11.4203 19.9046 11.2448 19.9271 11.0271C19.9496 10.8094 19.8337 10.6048 19.602 10.1957Z" stroke="white" stroke-width="1.68421" stroke-linecap="round"/>
<path d="M13.4737 15.4386C14.5589 15.4386 15.4386 14.5589 15.4386 13.4737C15.4386 12.3885 14.5589 11.5088 13.4737 11.5088C12.3885 11.5088 11.5088 12.3885 11.5088 13.4737C11.5088 14.5589 12.3885 15.4386 13.4737 15.4386Z" stroke="white" stroke-width="1.68421"/>
<path d="M21.3338 2.24609V5.45572C19.3085 3.47031 16.5344 2.24609 13.4742 2.24609C7.27307 2.24609 2.24609 7.27307 2.24609 13.4742C2.24609 15.071 2.57944 16.5901 3.18037 17.9654M5.61451 24.7022V21.4926C7.63978 23.478 10.414 24.7022 13.4742 24.7022C19.6752 24.7022 24.7022 19.6752 24.7022 13.4742C24.7022 11.8773 24.3689 10.3583 23.7679 8.98294" stroke="white" stroke-width="1.68421" stroke-linecap="round" stroke-linejoin="round"/>
</svg>
