<svg width="27" height="27" viewBox="0 0 27 27" fill="none" xmlns="http://www.w3.org/2000/svg">
<path d="M8.98294 7.85939H18.8075C21.1729 7.85939 22.3556 7.85939 23.2052 8.42707C23.573 8.67283 23.8888 8.98862 24.1345 9.35642C24.7022 10.206 24.7022 11.3887 24.7022 13.7541C24.7022 17.6965 24.7022 19.6676 23.756 21.0837C23.3466 21.6966 22.8202 22.223 22.2072 22.6325C20.7912 23.5787 18.8201 23.5787 14.8777 23.5787H13.4742C8.1812 23.5787 5.53472 23.5787 3.89041 21.9343C2.24609 20.2901 2.24609 17.6435 2.24609 12.3506V8.91963C2.24609 6.88008 2.24609 5.8603 2.67312 5.09511C2.97751 4.54966 3.42759 4.09958 3.97304 3.79519C4.73823 3.36816 5.75801 3.36816 7.79755 3.36816C9.10422 3.36816 9.75756 3.36816 10.3295 3.58263C11.6352 4.0723 12.1737 5.2585 12.763 6.43694L13.4742 7.85939" stroke="white" stroke-width="1.68421" stroke-linecap="round"/>
</svg>
