<svg width="27" height="27" viewBox="0 0 27 27" fill="none" xmlns="http://www.w3.org/2000/svg">
<path d="M24.1394 13.4736C24.1394 15.0239 22.8827 16.2807 21.3324 16.2807C19.7821 16.2807 18.5254 15.0239 18.5254 13.4736C18.5254 11.9234 19.7821 10.6666 21.3324 10.6666C22.8827 10.6666 24.1394 11.9234 24.1394 13.4736Z" stroke="white" stroke-width="1.68421"/>
<path d="M15.1575 4.49122C15.1575 5.42138 14.4034 6.17543 13.4733 6.17543C12.5431 6.17543 11.7891 5.42138 11.7891 4.49122C11.7891 3.56105 12.5431 2.80701 13.4733 2.80701C14.4034 2.80701 15.1575 3.56105 15.1575 4.49122Z" stroke="white" stroke-width="1.68421"/>
<path d="M14.0344 12.9122C14.0344 13.8424 13.2804 14.5964 12.3502 14.5964C11.4201 14.5964 10.666 13.8424 10.666 12.9122C10.666 11.9821 11.4201 11.228 12.3502 11.228C13.2804 11.228 14.0344 11.9821 14.0344 12.9122Z" stroke="white" stroke-width="1.68421"/>
<path d="M7.29787 8.42103C7.29787 9.66125 6.29247 10.6666 5.05225 10.6666C3.81204 10.6666 2.80664 9.66125 2.80664 8.42103C2.80664 7.18081 3.81204 6.17542 5.05225 6.17542C6.29247 6.17542 7.29787 7.18081 7.29787 8.42103Z" stroke="white" stroke-width="1.68421"/>
<path d="M11.7901 21.8948C11.7901 23.135 10.7847 24.1404 9.54444 24.1404C8.30422 24.1404 7.29883 23.135 7.29883 21.8948C7.29883 20.6545 8.30422 19.6492 9.54444 19.6492C10.7847 19.6492 11.7901 20.6545 11.7901 21.8948Z" stroke="white" stroke-width="1.68421"/>
<path d="M15.1571 5.61402L19.6484 11.2281M16.2799 17.4035L11.7887 20.7719M8.9817 19.6491L5.61328 10.6666M7.0875 7.47149L11.7887 5.05261M14.0343 12.9123L18.5312 13.2988" stroke="white" stroke-width="1.68421" stroke-linecap="round" stroke-linejoin="round"/>
<path d="M13.4744 6.17542L12.3516 11.228" stroke="white" stroke-width="1.68421" stroke-linecap="round" stroke-linejoin="round"/>
</svg>
