<svg width="27" height="27" viewBox="0 0 27 27" fill="none" xmlns="http://www.w3.org/2000/svg">
<path d="M13.4742 3.36841C4.64083 3.36841 2.24609 7.89269 2.24609 13.4737C2.24609 15.7992 2.66191 17.9414 3.78615 19.6491C5.20223 21.8947 4.48332 23.9532 3.3689 24.7017C5.18276 24.7017 6.40285 24.1244 7.1779 23.5527C7.72822 23.1467 8.42926 22.9461 9.09342 23.109C10.338 23.4142 11.7889 23.5789 13.4742 23.5789C21.4829 23.5789 24.7022 19.0547 24.7022 13.4737C24.7022 11.8604 24.5271 10.3354 24.0574 8.98244" stroke="white" stroke-width="1.68421" stroke-linecap="round" stroke-linejoin="round"/>
<path d="M13.6132 13.4737H13.4729M18.1047 13.4737H17.9643M9.12222 13.4737H8.98187M13.7536 13.4737C13.7536 13.6288 13.6279 13.7544 13.4729 13.7544C13.3179 13.7544 13.1922 13.6288 13.1922 13.4737C13.1922 13.3186 13.3179 13.193 13.4729 13.193C13.6279 13.193 13.7536 13.3186 13.7536 13.4737ZM18.245 13.4737C18.245 13.6288 18.1194 13.7544 17.9643 13.7544C17.8093 13.7544 17.6836 13.6288 17.6836 13.4737C17.6836 13.3186 17.8093 13.193 17.9643 13.193C18.1194 13.193 18.245 13.3186 18.245 13.4737ZM9.26258 13.4737C9.26258 13.6288 9.1369 13.7544 8.98187 13.7544C8.82685 13.7544 8.70117 13.6288 8.70117 13.4737C8.70117 13.3186 8.82685 13.193 8.98187 13.193C9.1369 13.193 9.26258 13.3186 9.26258 13.4737Z" stroke="white" stroke-width="1.68421" stroke-linecap="round" stroke-linejoin="round"/>
<path d="M16.8418 5.61403C16.9753 5.61403 18.186 6.16275 18.8067 7.85964C18.8067 7.85964 21.9274 3.18127 24.7014 2.24561" stroke="white" stroke-width="1.68421" stroke-linecap="round" stroke-linejoin="round"/>
</svg>
