<svg width="27" height="27" viewBox="0 0 27 27" fill="none" xmlns="http://www.w3.org/2000/svg">
<path d="M10.106 10.1052C10.106 11.9656 8.59788 13.4737 6.73756 13.4737C4.87724 13.4737 3.36914 11.9656 3.36914 10.1052C3.36914 8.24491 4.87724 6.73682 6.73756 6.73682C8.59788 6.73682 10.106 8.24491 10.106 10.1052Z" stroke="white" stroke-width="1.68421"/>
<path d="M23.5786 20.2106C23.5786 22.071 22.0706 23.579 20.2102 23.579C18.3498 23.579 16.8418 22.071 16.8418 20.2106C16.8418 18.3502 18.3498 16.8422 20.2102 16.8422C22.0706 16.8422 23.5786 18.3502 23.5786 20.2106Z" stroke="white" stroke-width="1.68421"/>
<path d="M10.1055 10.1052H15.7195C17.8367 10.1052 18.8953 10.1052 19.553 10.763C20.2107 11.4207 20.2107 12.4793 20.2107 14.5965V16.8421" stroke="white" stroke-width="1.68421" stroke-linecap="round" stroke-linejoin="round"/>
<path d="M6.73633 13.4737V24.7017M6.73633 6.73683V2.24561" stroke="white" stroke-width="1.68421" stroke-linecap="round" stroke-linejoin="round"/>
</svg>
