<svg width="27" height="27" viewBox="0 0 27 27" fill="none" xmlns="http://www.w3.org/2000/svg">
<path d="M12.3513 22.4561C7.58769 22.4561 5.20586 22.4561 3.72598 20.9763C2.24609 19.4964 2.24609 17.1145 2.24609 12.3509C2.24609 7.5872 2.24609 5.20537 3.72598 3.72549C5.20586 2.24561 7.58769 2.24561 12.3513 2.24561C17.115 2.24561 19.4969 2.24561 20.9767 3.72549C22.3354 5.08422 22.4467 7.20328 22.4558 11.2281" stroke="white" stroke-width="1.68421" stroke-linecap="round" stroke-linejoin="round"/>
<path d="M2.24609 12.3508H12.3513" stroke="white" stroke-width="1.68421" stroke-linecap="round" stroke-linejoin="round"/>
<path d="M11.2285 7.29822H17.9653" stroke="white" stroke-width="1.68421" stroke-linecap="round" stroke-linejoin="round"/>
<path d="M6.87808 7.29828H6.73773M7.01843 7.29828C7.01843 7.45331 6.89276 7.57898 6.73773 7.57898C6.58271 7.57898 6.45703 7.45331 6.45703 7.29828C6.45703 7.14325 6.58271 7.01758 6.73773 7.01758C6.89276 7.01758 7.01843 7.14325 7.01843 7.29828Z" stroke="white" stroke-width="1.68421" stroke-linecap="round" stroke-linejoin="round"/>
<path d="M6.87808 17.4035H6.73773M7.01843 17.4035C7.01843 17.5586 6.89276 17.6842 6.73773 17.6842C6.58271 17.6842 6.45703 17.5586 6.45703 17.4035C6.45703 17.2484 6.58271 17.1228 6.73773 17.1228C6.89276 17.1228 7.01843 17.2484 7.01843 17.4035Z" stroke="white" stroke-width="1.68421" stroke-linecap="round" stroke-linejoin="round"/>
<path d="M16.0453 17.9649C16.7115 16.3189 18.3251 15.1578 20.21 15.1578C21.8724 15.1578 23.3239 16.061 24.1004 17.4035M24.3748 21.3333C23.7085 22.9792 22.0948 24.1403 20.21 24.1403C18.5477 24.1403 17.0962 23.2371 16.3197 21.8947M19.0872 17.9649H15.7188V14.5964M21.3328 21.3333H24.7012V24.7017" stroke="white" stroke-width="1.68421" stroke-linecap="round" stroke-linejoin="round"/>
</svg>
