<svg width="561" height="192" viewBox="0 0 561 192" fill="none" xmlns="http://www.w3.org/2000/svg">
<path fill-rule="evenodd" clip-rule="evenodd" d="M43.5774 171.126L27.1069 161.64C33.6267 154.655 43.9986 144.739 45.7799 142.958C48.8335 139.904 51.0272 136.903 54.6074 135.903C59.4774 134.543 63.5928 137.772 65.0933 140.677C68.6735 147.618 51.2554 163.746 43.5774 171.126ZM68.8841 185.692L52.0714 176.013C57.3539 170.722 63.6104 164.474 65.2776 162.807C67.6732 160.403 70.0775 157.024 74.0876 155.761C82.2658 153.19 90.7599 163.597 82.4413 171.959C80.9145 173.486 75.0353 179.593 68.8753 185.692H68.8841ZM105.502 185.692L99.6927 189.035C94.8928 191.861 84.0734 192.273 77.5537 190.246L89.4875 178.295C91.3039 176.478 91.5935 175.978 94.7788 175.329C100.807 174.1 106.397 179.383 105.502 185.692ZM119.48 13.9762L160.731 37.721C171.55 43.451 174.367 52.533 174.367 57.4908V117.564C171.243 114.712 161.635 104.779 160.941 104.094C156.15 99.3119 151.596 94.7841 146.823 89.9754C137.442 80.5337 128.281 71.1884 118.769 61.9046C110.038 53.3754 109.731 50.2164 102.509 57.4557C97.7798 62.1942 93.2958 66.6693 88.5486 71.3902C84.3893 75.5232 79.7825 81.3409 73.1224 84.2016C65.655 87.4132 56.8889 86.1408 51.0711 82.236L116.663 16.6262C117.664 15.6961 118.524 14.8274 119.471 13.9762H119.48ZM18.4373 156.656L13.655 153.9C9.08332 151.479 5.93313 148.46 3.83594 145.398C4.30978 144.775 4.85381 144.143 5.48561 143.511C8.24969 140.764 23.518 125.496 26.2733 122.741C28.388 120.626 31.3715 116.721 35.3641 115.967C42.6209 114.607 48.1754 121.934 45.7184 128.225C44.5865 131.112 23.7988 151.145 21.4208 153.514C20.6661 154.269 19.6395 155.462 18.4461 156.638L18.4373 156.656Z" fill="#FA8C3D"/>
<path fill-rule="evenodd" clip-rule="evenodd" d="M99.6936 2.58462L110.697 8.92009L59.3818 60.3409C57.9603 61.7624 38.2607 80.7162 37.3569 82.7958C41.6916 87.1218 46.1054 91.6409 54.4415 94.1505C65.9015 97.599 78.7041 94.3611 86.7419 86.3145L104.722 68.3874C105.388 67.7118 105.801 67.3169 106.468 66.65C107.784 65.3162 107.214 65.5707 108.504 65.0442C110.18 66.0621 112.11 68.3962 113.584 69.8704L128.045 84.3402C134.574 90.8687 140.883 97.1427 147.403 103.68L174.368 130.777V134.129C174.368 137.92 172.727 144.106 167.129 149.38C166.04 148.66 165.224 147.765 164.303 146.835L113.031 95.5369C107.617 90.2194 101.887 96.0371 104.967 100.793C106.011 102.399 152.299 148.309 156.169 152.179C156.985 152.995 158.003 153.899 158.942 154.943L142.471 164.42L96.6048 118.58C94.7007 116.676 88.9444 109.287 85.1098 115.035C83.0564 118.106 85.0834 120.589 86.5313 122.028C88.2512 123.731 89.699 125.196 91.4189 126.907L120.192 155.654C122.421 157.882 128.098 162.516 128.914 166.412C129.405 168.755 129.054 170.887 128.159 172.651L119.516 177.626C115.831 177.328 112.207 174.669 111.285 173.291C107.819 168.088 101.729 165.622 95.2535 165.71C95.3237 162.472 94.9464 159.778 93.6653 157.075C89.9623 149.239 84.1094 146.273 75.5627 145.887C75.0625 140.657 74.457 135.77 70.0608 131.523C67.0247 128.583 61.9792 126.065 55.7578 126.161C55.4331 119.361 53.1429 113.876 49.4399 111.025C45.3771 107.901 40.0244 105.277 32.9431 106.786C26.5287 108.155 23.3434 112.516 20.1932 115.658L0.107505 135.901C0.0373059 135.27 0.00219727 134.682 0.00219727 134.146V57.5066C0.00219727 52.54 2.81894 43.4668 13.6384 37.7368L74.694 2.58462C80.2923 -0.714731 94.0952 -0.714731 99.6936 2.58462Z" fill="#CE091A"/>
<path d="M259.551 160.981C253.433 160.981 248.179 159.9 243.792 157.737C239.404 155.574 235.819 152.762 233.038 149.301C230.319 145.84 228.31 142.07 227.012 137.991C225.714 133.912 225.065 129.988 225.065 126.218V124.178C225.065 119.976 225.714 115.835 227.012 111.756C228.372 107.677 230.442 103.969 233.223 100.632C236.004 97.2942 239.527 94.6367 243.792 92.659C248.118 90.6196 253.216 89.5998 259.088 89.5998C265.206 89.5998 270.521 90.7123 275.033 92.9372C279.606 95.1002 283.252 98.1903 285.972 102.207C288.691 106.163 290.329 110.798 290.885 116.113H277.628C277.134 113.023 276.021 110.427 274.291 108.326C272.622 106.163 270.49 104.556 267.894 103.505C265.299 102.393 262.363 101.837 259.088 101.837C255.75 101.837 252.784 102.424 250.188 103.598C247.592 104.71 245.429 106.317 243.699 108.419C241.968 110.52 240.64 112.992 239.713 115.835C238.847 118.678 238.415 121.83 238.415 125.291C238.415 128.628 238.847 131.718 239.713 134.561C240.64 137.404 241.999 139.907 243.792 142.07C245.584 144.171 247.778 145.809 250.373 146.983C253.031 148.157 256.09 148.745 259.551 148.745C264.619 148.745 268.883 147.508 272.344 145.036C275.867 142.502 277.999 138.98 278.741 134.468H291.997C291.379 139.289 289.741 143.708 287.084 147.725C284.426 151.742 280.78 154.956 276.145 157.366C271.51 159.776 265.979 160.981 259.551 160.981ZM299.954 159.22V91.5466H312.84V159.22H299.954ZM293.65 101.188V91.5466H312.84V101.188H293.65ZM355.269 159.22V144.295H353.136V127.701C353.136 124.796 352.426 122.633 351.004 121.212C349.583 119.79 347.389 119.079 344.422 119.079C342.877 119.079 341.023 119.11 338.86 119.172C336.697 119.234 334.503 119.327 332.278 119.45C330.115 119.512 328.168 119.605 326.438 119.728V108.789C327.859 108.666 329.466 108.542 331.258 108.419C333.051 108.295 334.874 108.233 336.728 108.233C338.644 108.171 340.436 108.14 342.105 108.14C347.296 108.14 351.591 108.82 354.991 110.18C358.451 111.54 361.047 113.672 362.778 116.576C364.57 119.481 365.466 123.282 365.466 127.979V159.22H355.269ZM339.046 160.518C335.399 160.518 332.186 159.869 329.404 158.571C326.685 157.273 324.553 155.419 323.008 153.009C321.525 150.599 320.783 147.694 320.783 144.295C320.783 140.587 321.679 137.558 323.471 135.21C325.325 132.861 327.89 131.1 331.166 129.926C334.503 128.752 338.397 128.164 342.846 128.164H354.527V135.859H342.661C339.694 135.859 337.408 136.6 335.801 138.084C334.256 139.505 333.483 141.359 333.483 143.646C333.483 145.933 334.256 147.787 335.801 149.208C337.408 150.629 339.694 151.34 342.661 151.34C344.453 151.34 346.091 151.031 347.574 150.413C349.119 149.733 350.386 148.621 351.375 147.076C352.426 145.469 353.013 143.306 353.136 140.587L356.288 144.202C355.979 147.725 355.114 150.691 353.693 153.102C352.333 155.512 350.417 157.366 347.945 158.664C345.535 159.9 342.568 160.518 339.046 160.518ZM378.898 159.22V108.882H391.784V159.22H378.898ZM371.852 118.523V108.882H391.784V118.523H371.852ZM383.626 102.856C381.092 102.856 379.207 102.207 377.971 100.91C376.797 99.55 376.209 97.8504 376.209 95.811C376.209 93.7715 376.797 92.1028 377.971 90.805C379.207 89.5071 381.092 88.8582 383.626 88.8582C386.16 88.8582 388.014 89.5071 389.188 90.805C390.362 92.1028 390.949 93.7715 390.949 95.811C390.949 97.8504 390.362 99.55 389.188 100.91C388.014 102.207 386.16 102.856 383.626 102.856ZM403.853 159.22V108.882H414.05V130.482H413.123C413.123 125.414 413.772 121.181 415.07 117.782C416.368 114.321 418.284 111.725 420.818 109.995C423.413 108.202 426.627 107.306 430.459 107.306H431.015C434.909 107.306 438.122 108.202 440.656 109.995C443.252 111.725 445.168 114.321 446.404 117.782C447.702 121.181 448.351 125.414 448.351 130.482H445.106C445.106 125.414 445.755 121.181 447.053 117.782C448.412 114.321 450.359 111.725 452.893 109.995C455.489 108.202 458.703 107.306 462.534 107.306H463.09C466.984 107.306 470.229 108.202 472.824 109.995C475.42 111.725 477.367 114.321 478.665 117.782C480.024 121.181 480.704 125.414 480.704 130.482V159.22H467.818V129.277C467.818 126.125 467.015 123.622 465.408 121.768C463.801 119.852 461.515 118.894 458.548 118.894C455.582 118.894 453.202 119.883 451.41 121.861C449.618 123.776 448.721 126.372 448.721 129.648V159.22H435.836V129.277C435.836 126.125 435.032 123.622 433.425 121.768C431.819 119.852 429.532 118.894 426.565 118.894C423.599 118.894 421.22 119.883 419.427 121.861C417.635 123.776 416.739 126.372 416.739 129.648V159.22H403.853ZM509.956 160.796C503.034 160.796 497.595 159.344 493.64 156.439C489.746 153.472 487.707 149.393 487.521 144.202H499.109C499.295 145.933 500.253 147.508 501.983 148.93C503.714 150.351 506.433 151.062 510.141 151.062C513.231 151.062 515.672 150.506 517.465 149.393C519.319 148.281 520.246 146.767 520.246 144.851C520.246 143.182 519.535 141.854 518.113 140.865C516.754 139.876 514.405 139.227 511.068 138.918L506.618 138.454C500.994 137.836 496.668 136.23 493.64 133.634C490.611 131.038 489.097 127.577 489.097 123.251C489.097 119.79 489.963 116.885 491.693 114.537C493.423 112.189 495.803 110.427 498.831 109.253C501.921 108.017 505.444 107.399 509.399 107.399C515.58 107.399 520.586 108.759 524.417 111.478C528.249 114.197 530.258 118.183 530.443 123.437H518.855C518.731 121.706 517.866 120.223 516.259 118.987C514.653 117.751 512.335 117.133 509.307 117.133C506.587 117.133 504.486 117.658 503.003 118.709C501.52 119.759 500.778 121.119 500.778 122.788C500.778 124.394 501.365 125.63 502.539 126.496C503.775 127.361 505.753 127.948 508.472 128.257L512.922 128.721C518.855 129.339 523.49 130.976 526.828 133.634C530.227 136.291 531.926 139.876 531.926 144.387C531.926 147.725 530.999 150.629 529.145 153.102C527.353 155.512 524.819 157.397 521.543 158.756C518.268 160.116 514.405 160.796 509.956 160.796Z" fill="#FA8C3D"/>
<path d="M223.842 64.8401L236.925 26.486H249.114L262.564 64.8401H254.893L243.492 31.5824L246.172 32.7382H239.604L242.336 31.5824L231.303 64.8401H223.842ZM232.984 54.6474L235.349 48.3426H250.9L253.212 54.6474H232.984ZM278.359 65.8383C275.872 65.8383 273.718 65.418 271.897 64.5774C270.11 63.7368 268.604 62.6159 267.378 61.2148C266.187 59.8138 265.294 58.2376 264.699 56.4863C264.103 54.7349 263.806 52.9486 263.806 51.1272V50.1289C263.806 48.2025 264.103 46.3636 264.699 44.6122C265.329 42.8259 266.257 41.2497 267.483 39.8837C268.709 38.4826 270.215 37.3793 272.002 36.5736C273.823 35.733 275.925 35.3127 278.307 35.3127C280.793 35.3127 283.018 35.8031 284.979 36.7838C286.941 37.7295 288.499 39.0605 289.655 40.7768C290.846 42.4931 291.512 44.4897 291.652 46.7664H284.559C284.384 45.2953 283.753 44.0693 282.667 43.0886C281.617 42.1078 280.163 41.6175 278.307 41.6175C276.695 41.6175 275.347 42.0028 274.261 42.7734C273.21 43.5439 272.422 44.6122 271.897 45.9783C271.371 47.3093 271.109 48.8505 271.109 50.6018C271.109 52.2831 271.354 53.8067 271.844 55.1728C272.369 56.5388 273.158 57.6071 274.208 58.3777C275.294 59.1483 276.678 59.5336 278.359 59.5336C279.62 59.5336 280.706 59.3059 281.617 58.8505C282.527 58.3952 283.245 57.7647 283.771 56.9591C284.331 56.1535 284.681 55.2428 284.821 54.227H291.914C291.774 56.5388 291.091 58.5703 289.865 60.3217C288.674 62.038 287.081 63.3865 285.084 64.3672C283.123 65.348 280.881 65.8383 278.359 65.8383ZM308.851 65.8383C306.364 65.8383 304.21 65.418 302.388 64.5774C300.602 63.7368 299.096 62.6159 297.87 61.2148C296.679 59.8138 295.786 58.2376 295.19 56.4863C294.595 54.7349 294.297 52.9486 294.297 51.1272V50.1289C294.297 48.2025 294.595 46.3636 295.19 44.6122C295.821 42.8259 296.749 41.2497 297.975 39.8837C299.201 38.4826 300.707 37.3793 302.493 36.5736C304.315 35.733 306.416 35.3127 308.798 35.3127C311.285 35.3127 313.509 35.8031 315.471 36.7838C317.432 37.7295 318.991 39.0605 320.147 40.7768C321.338 42.4931 322.003 44.4897 322.143 46.7664H315.05C314.875 45.2953 314.245 44.0693 313.159 43.0886C312.108 42.1078 310.654 41.6175 308.798 41.6175C307.187 41.6175 305.838 42.0028 304.753 42.7734C303.702 43.5439 302.914 44.6122 302.388 45.9783C301.863 47.3093 301.6 48.8505 301.6 50.6018C301.6 52.2831 301.845 53.8067 302.336 55.1728C302.861 56.5388 303.649 57.6071 304.7 58.3777C305.786 59.1483 307.169 59.5336 308.851 59.5336C310.112 59.5336 311.197 59.3059 312.108 58.8505C313.019 58.3952 313.737 57.7647 314.262 56.9591C314.823 56.1535 315.173 55.2428 315.313 54.227H322.406C322.266 56.5388 321.583 58.5703 320.357 60.3217C319.166 62.038 317.572 63.3865 315.576 64.3672C313.614 65.348 311.373 65.8383 308.851 65.8383ZM336.4 65.7333C333.107 65.7333 330.551 64.6474 328.729 62.4758C326.943 60.3041 326.05 57.0817 326.05 52.8085V36.2584H333.353V53.4389C333.353 55.1903 333.843 56.5913 334.824 57.6421C335.805 58.6579 337.136 59.1658 338.817 59.1658C340.498 59.1658 341.864 58.6229 342.915 57.537C344.001 56.4512 344.544 54.9801 344.544 53.1237V36.2584H351.847V64.8401H346.067V52.7034H346.645C346.645 55.5756 346.277 57.9749 345.542 59.9013C344.806 61.8278 343.703 63.2814 342.232 64.2621C340.761 65.2429 338.922 65.7333 336.715 65.7333H336.4ZM358.66 64.8401V36.311H364.439V48.3951H364.281C364.281 44.297 365.157 41.1972 366.908 39.0956C368.66 36.994 371.234 35.9432 374.632 35.9432H375.683V42.3005H373.686C371.234 42.3005 369.325 42.966 367.959 44.297C366.628 45.593 365.963 47.4844 365.963 49.9713V64.8401H358.66ZM396.124 64.8401V56.3812H394.915V46.9765C394.915 45.3303 394.513 44.1044 393.707 43.2988C392.901 42.4931 391.658 42.0903 389.977 42.0903C389.101 42.0903 388.05 42.1078 386.824 42.1429C385.598 42.1779 384.355 42.2304 383.094 42.3005C381.868 42.3355 380.765 42.3881 379.784 42.4581V36.2584C380.59 36.1884 381.5 36.1183 382.516 36.0483C383.532 35.9782 384.565 35.9432 385.616 35.9432C386.702 35.9081 387.717 35.8906 388.663 35.8906C391.605 35.8906 394.04 36.2759 395.966 37.0465C397.928 37.8171 399.399 39.0255 400.38 40.6718C401.395 42.318 401.903 44.4721 401.903 47.1342V64.8401H396.124ZM386.929 65.5756C384.863 65.5756 383.041 65.2079 381.465 64.4723C379.924 63.7368 378.716 62.686 377.84 61.3199C376.999 59.9539 376.579 58.3076 376.579 56.3812C376.579 54.2796 377.087 52.5633 378.103 51.2323C379.153 49.9013 380.607 48.903 382.463 48.2375C384.355 47.572 386.562 47.2392 389.083 47.2392H395.703V51.6H388.978C387.297 51.6 386.001 52.0204 385.09 52.861C384.215 53.6666 383.777 54.7174 383.777 56.0134C383.777 57.3094 384.215 58.3602 385.09 59.1658C386.001 59.9714 387.297 60.3742 388.978 60.3742C389.994 60.3742 390.922 60.1991 391.763 59.8488C392.639 59.4635 393.357 58.833 393.917 57.9574C394.513 57.0467 394.845 55.8207 394.915 54.2796L396.702 56.3286C396.527 58.3251 396.036 60.0064 395.231 61.3725C394.46 62.7385 393.374 63.7893 391.973 64.5248C390.607 65.2254 388.926 65.5756 386.929 65.5756ZM426.013 65.8383C422.546 65.8383 419.568 65.2254 417.081 63.9995C414.595 62.7735 412.563 61.1798 410.987 59.2183C409.446 57.2568 408.307 55.1202 407.572 52.8085C406.836 50.4967 406.468 48.2725 406.468 46.1359V44.98C406.468 42.5982 406.836 40.2514 407.572 37.9397C408.342 35.6279 409.516 33.5263 411.092 31.6349C412.668 29.7435 414.665 28.2373 417.081 27.1165C419.533 25.9606 422.423 25.3827 425.751 25.3827C429.218 25.3827 432.23 26.0131 434.787 27.2741C437.379 28.5 439.446 30.2514 440.987 32.5281C442.528 34.7698 443.456 37.3968 443.772 40.4091H436.259C435.978 38.6577 435.348 37.1866 434.367 35.9957C433.421 34.7698 432.213 33.8591 430.742 33.2636C429.271 32.6332 427.607 32.3179 425.751 32.3179C423.859 32.3179 422.178 32.6507 420.707 33.3162C419.236 33.9467 418.01 34.8573 417.029 36.0483C416.048 37.2392 415.295 38.6402 414.77 40.2514C414.279 41.8627 414.034 43.649 414.034 45.6105C414.034 47.5019 414.279 49.2533 414.77 50.8645C415.295 52.4757 416.066 53.8943 417.081 55.1202C418.097 56.3111 419.341 57.2393 420.812 57.9048C422.318 58.5703 424.052 58.9031 426.013 58.9031C428.885 58.9031 431.302 58.2026 433.264 56.8015C435.26 55.3654 436.469 53.3689 436.889 50.8119H444.402C444.052 53.544 443.124 56.0484 441.618 58.3251C440.111 60.6019 438.045 62.4233 435.418 63.7893C432.791 65.1553 429.656 65.8383 426.013 65.8383ZM462.257 65.8383C459.735 65.8383 457.511 65.4355 455.584 64.6299C453.658 63.8243 452.029 62.7385 450.698 61.3725C449.367 59.9714 448.351 58.3952 447.651 56.6439C446.985 54.8925 446.652 53.0712 446.652 51.1797V50.0764C446.652 48.1149 447.003 46.2585 447.703 44.5072C448.439 42.7208 449.472 41.1446 450.803 39.7786C452.169 38.3775 453.815 37.2917 455.742 36.5211C457.668 35.7155 459.84 35.3127 462.257 35.3127C464.674 35.3127 466.845 35.7155 468.772 36.5211C470.698 37.2917 472.327 38.3775 473.658 39.7786C475.024 41.1446 476.057 42.7208 476.758 44.5072C477.458 46.2585 477.809 48.1149 477.809 50.0764V51.1797C477.809 53.0712 477.458 54.8925 476.758 56.6439C476.092 58.3952 475.094 59.9714 473.763 61.3725C472.432 62.7385 470.803 63.8243 468.877 64.6299C466.95 65.4355 464.744 65.8383 462.257 65.8383ZM462.257 59.5861C464.043 59.5861 465.549 59.2008 466.775 58.4302C468.001 57.6246 468.929 56.5563 469.56 55.2253C470.19 53.8593 470.505 52.3181 470.505 50.6018C470.505 48.8505 470.173 47.3093 469.507 45.9783C468.877 44.6122 467.931 43.5439 466.67 42.7734C465.444 41.9677 463.973 41.5649 462.257 41.5649C460.54 41.5649 459.052 41.9677 457.791 42.7734C456.565 43.5439 455.619 44.6122 454.954 45.9783C454.288 47.3093 453.955 48.8505 453.955 50.6018C453.955 52.3181 454.271 53.8593 454.901 55.2253C455.567 56.5563 456.512 57.6246 457.738 58.4302C458.964 59.2008 460.47 59.5861 462.257 59.5861ZM482.627 64.8401V36.311H488.406V48.3951H488.249C488.249 44.297 489.124 41.1972 490.876 39.0956C492.627 36.994 495.202 35.9432 498.599 35.9432H499.65V42.3005H497.653C495.202 42.3005 493.293 42.966 491.927 44.297C490.596 45.593 489.93 47.4844 489.93 49.9713V64.8401H482.627ZM515.521 65.8383C513.07 65.8383 510.915 65.418 509.059 64.5774C507.238 63.7368 505.714 62.6159 504.488 61.2148C503.297 59.7787 502.386 58.185 501.756 56.4337C501.161 54.6824 500.863 52.896 500.863 51.0746V50.0764C500.863 48.185 501.161 46.3636 501.756 44.6122C502.386 42.8259 503.297 41.2497 504.488 39.8837C505.714 38.4826 507.22 37.3793 509.006 36.5736C510.793 35.733 512.859 35.3127 515.206 35.3127C518.289 35.3127 520.863 35.9957 522.93 37.3617C525.031 38.6928 526.607 40.4616 527.658 42.6683C528.709 44.8399 529.234 47.1867 529.234 49.7086V52.3356H503.963V47.8697H524.663L522.404 50.0764C522.404 48.255 522.141 46.6963 521.616 45.4003C521.091 44.1044 520.285 43.1061 519.199 42.4056C518.148 41.705 516.817 41.3548 515.206 41.3548C513.595 41.3548 512.229 41.7226 511.108 42.4581C509.987 43.1937 509.129 44.262 508.534 45.663C507.973 47.0291 507.693 48.6753 507.693 50.6018C507.693 52.3881 507.973 53.9819 508.534 55.3829C509.094 56.749 509.952 57.8348 511.108 58.6404C512.264 59.411 513.735 59.7963 515.521 59.7963C517.308 59.7963 518.761 59.446 519.882 58.7455C521.003 58.0099 521.721 57.1167 522.036 56.0659H528.761C528.341 58.0274 527.536 59.7437 526.345 61.2148C525.154 62.686 523.63 63.8243 521.774 64.6299C519.952 65.4355 517.868 65.8383 515.521 65.8383Z" fill="#CE091A"/>
</svg>
