<svg width="27" height="27" viewBox="0 0 27 27" fill="none" xmlns="http://www.w3.org/2000/svg">
<path d="M16.8203 7.87757C16.8203 7.87757 17.3817 8.43897 17.9431 9.56178C17.9431 9.56178 19.7264 6.75476 21.3115 6.19336" stroke="white" stroke-width="1.68421" stroke-linecap="round" stroke-linejoin="round"/>
<path d="M11.2228 2.26963C8.41747 2.15086 6.25016 2.47403 6.25016 2.47403C4.88163 2.57188 2.25896 3.33912 2.25898 7.81989C2.25901 12.2626 2.22997 17.7396 2.25898 19.923C2.25898 21.257 3.08494 24.3687 5.94379 24.5354C9.4187 24.7382 15.6779 24.7813 18.5497 24.5354C19.3185 24.4921 21.878 23.8886 22.2019 21.1039C22.5375 18.2191 22.4707 16.2142 22.4707 15.737" stroke="white" stroke-width="1.68421" stroke-linecap="round" stroke-linejoin="round"/>
<path d="M24.7017 7.87673C24.7017 10.9773 22.1859 13.4908 19.0823 13.4908C15.9788 13.4908 13.4629 10.9773 13.4629 7.87673C13.4629 4.77619 15.9788 2.2627 19.0823 2.2627C22.1859 2.2627 24.7017 4.77619 24.7017 7.87673Z" stroke="white" stroke-width="1.68421" stroke-linecap="round"/>
<path d="M7.83789 14.614H12.3291" stroke="white" stroke-width="1.68421" stroke-linecap="round"/>
<path d="M7.83789 19.1052H16.8203" stroke="white" stroke-width="1.68421" stroke-linecap="round"/>
</svg>
