<svg width="27" height="27" viewBox="0 0 27 27" fill="none" xmlns="http://www.w3.org/2000/svg">
<path d="M3.36816 4.49171C3.36816 2.63383 3.7559 2.24609 5.61378 2.24609H10.105C11.9629 2.24609 12.3506 2.63383 12.3506 4.49171C12.3506 6.34958 11.9629 6.73732 10.105 6.73732H5.61378C3.7559 6.73732 3.36816 6.34958 3.36816 4.49171Z" stroke="white" stroke-width="1.68421"/>
<path d="M14.5967 14.5962C14.5967 12.7383 14.9844 12.3506 16.8423 12.3506H21.3335C23.1914 12.3506 23.5791 12.7383 23.5791 14.5962C23.5791 16.4541 23.1914 16.8418 21.3335 16.8418H16.8423C14.9844 16.8418 14.5967 16.4541 14.5967 14.5962Z" stroke="white" stroke-width="1.68421"/>
<path d="M4.49121 22.4566C4.49121 20.5986 4.87895 20.2109 6.73682 20.2109H11.2281C13.086 20.2109 13.4737 20.5986 13.4737 22.4566C13.4737 24.3145 13.086 24.7022 11.2281 24.7022H6.73682C4.87895 24.7022 4.49121 24.3145 4.49121 22.4566Z" stroke="white" stroke-width="1.68421"/>
<path d="M19.0874 12.3504C19.0874 11.8286 19.0874 11.5678 19.0443 11.3508C18.8671 10.4601 18.1708 9.76369 17.28 9.5865C17.063 9.54335 16.8022 9.54335 16.2804 9.54335H10.6664C10.1447 9.54335 9.88382 9.54335 9.66689 9.5002C8.77608 9.32301 8.07971 8.62664 7.90252 7.73583C7.85938 7.5189 7.85938 7.25805 7.85938 6.73633" stroke="white" stroke-width="1.68421" stroke-linecap="round" stroke-linejoin="round"/>
<path d="M19.0877 16.8418V17.9646C19.0877 20.0818 19.0877 21.1404 18.4299 21.7981C17.7722 22.4558 16.7136 22.4558 14.5964 22.4558H13.4736" stroke="white" stroke-width="1.68421" stroke-linecap="round" stroke-linejoin="round"/>
</svg>
