<svg width="27" height="27" viewBox="0 0 27 27" fill="none" xmlns="http://www.w3.org/2000/svg">
<path d="M18.5267 8.98502C19.4743 8.98502 20.5679 8.89142 21.1081 9.82713C21.3338 10.2179 21.3338 10.7426 21.3338 11.792V15.1604C21.3338 16.2098 21.3338 16.7345 21.1081 17.1254C20.5679 18.0611 19.4743 17.9675 18.5267 17.9675C17.5792 17.9675 16.4856 18.0611 15.9454 17.1254C15.7197 16.7345 15.7197 16.2098 15.7197 15.1604V11.792C15.7197 10.7426 15.7197 10.2179 15.9454 9.82713C16.4856 8.89142 17.5792 8.98502 18.5267 8.98502Z" stroke="white" stroke-width="1.68421" stroke-linecap="round" stroke-linejoin="round"/>
<path d="M8.42128 4.49381C9.3688 4.49381 10.4624 4.4002 11.0027 5.33592C11.2283 5.72673 11.2283 6.25143 11.2283 7.30083V19.6517C11.2283 20.7011 11.2283 21.2257 11.0027 21.6166C10.4624 22.5523 9.3688 22.4587 8.42128 22.4587C7.47375 22.4587 6.38014 22.5523 5.8399 21.6166C5.61426 21.2257 5.61426 20.7011 5.61426 19.6517V7.30083C5.61426 6.25143 5.61426 5.72673 5.8399 5.33592C6.38014 4.4002 7.47375 4.49381 8.42128 4.49381Z" stroke="white" stroke-width="1.68421" stroke-linecap="round" stroke-linejoin="round"/>
<path d="M5.61451 13.4736H2.24609" stroke="white" stroke-width="1.68421" stroke-linecap="round" stroke-linejoin="round"/>
<path d="M15.7197 13.4736H11.2285" stroke="white" stroke-width="1.68421" stroke-linecap="round" stroke-linejoin="round"/>
<path d="M24.7014 13.4736H21.333" stroke="white" stroke-width="1.68421" stroke-linecap="round" stroke-linejoin="round"/>
</svg>
