<svg width="36" height="36" viewBox="0 0 36 36" fill="none" xmlns="http://www.w3.org/2000/svg">
<path d="M12.758 31.4172C14.6462 28.1687 18.9706 27.7857 21.4334 30.268C21.984 30.823 22.2593 31.1007 22.5035 31.1338C22.7477 31.167 24.2798 30.2883 24.8237 29.9765C25.3781 29.6587 26.9153 28.7769 27.0119 28.5463C27.1085 28.3156 27.0073 27.9224 26.8051 27.1359C26.0695 24.276 27.8533 21.2662 30.7034 20.49C31.466 20.2822 31.8473 20.1783 31.9979 19.9797C32.1486 19.7811 32.1486 18.0346 32.1486 17.3955C32.1486 16.7567 32.1486 15.01 31.9979 14.8114C31.8473 14.6128 31.466 14.5089 30.7034 14.3012C27.8528 13.5249 26.0676 10.5152 26.8029 7.65516C27.005 6.86855 27.1061 6.47524 27.0095 6.24462C26.9129 6.01402 25.3758 5.13241 24.8215 4.81453C24.2775 4.50261 22.7453 3.62397 22.5013 3.65717C22.2571 3.6904 21.9818 3.96788 21.4311 4.52288C19.2986 6.67158 15.7705 6.67167 13.6381 4.52301C13.0873 3.96803 12.8119 3.69053 12.5679 3.65733C12.3237 3.62411 10.7916 4.50277 10.2477 4.81471C9.69339 5.1326 8.1561 6.01418 8.05951 6.24483C7.96293 6.47548 8.06408 6.86872 8.26637 7.65526C9.00192 10.5152 7.21816 13.5248 4.36809 14.3012C3.60543 14.5089 3.2241 14.6128 3.07348 14.8115C2.92285 15.01 2.92285 16.7567 2.92285 17.3955C2.92285 18.0346 2.92285 19.7811 3.07348 19.9798C3.22413 20.1784 3.60527 20.2822 4.36757 20.4898C4.37651 20.4923 4.38544 20.4948 4.39437 20.4971" stroke="white" stroke-width="2.19193" stroke-linecap="round"/>
<path d="M3.63729 26.5708C5.21548 24.9934 10.5813 19.6823 11.1074 19.0687C11.6635 18.4202 11.2126 17.5439 11.4809 14.8269C11.6107 13.5123 11.8936 12.5275 12.7031 11.7946C13.6676 10.8831 14.4567 10.8831 17.1746 10.8218C19.5419 10.8831 19.8225 10.6202 20.068 11.2337C20.2433 11.6719 19.7173 11.9348 19.086 12.6359C17.6832 14.0382 16.859 14.7394 16.7801 15.1776C16.2102 17.1056 18.4547 18.245 19.6822 17.0179C20.1464 16.554 22.295 14.3888 22.5054 14.2135C22.6632 14.0732 23.041 14.08 23.2244 14.3011C23.3822 14.4561 23.3997 14.4764 23.3822 15.1775C23.366 15.8266 23.3733 16.7583 23.3752 17.7191C23.3778 18.9641 23.312 20.3484 22.786 21.0495C21.7338 22.6269 19.9803 22.7146 18.4021 22.7848C16.9116 22.8724 15.6841 22.7146 15.2983 22.995C14.9827 23.1529 13.3169 24.9057 11.3003 26.9214L7.70551 30.5147C4.72449 32.8811 1.44536 29.2001 3.63729 26.5708Z" stroke="white" stroke-width="2.19193" stroke-linecap="round"/>
</svg>
