<svg width="36" height="36" viewBox="0 0 36 36" fill="none" xmlns="http://www.w3.org/2000/svg">
<path d="M4.38379 20.4573V14.6122C4.38379 9.10131 4.38379 6.34589 6.09579 4.63387C7.8078 2.92188 10.5632 2.92188 16.0741 2.92188H18.9967C24.5075 2.92188 27.263 2.92188 28.9749 4.63387C30.6869 6.34589 30.6869 9.10131 30.6869 14.6122V20.4573C30.6869 25.9681 30.6869 28.7237 28.9749 30.4356C27.263 32.1476 24.5075 32.1476 18.9967 32.1476H16.0741C10.5632 32.1476 7.8078 32.1476 6.09579 30.4356C4.38379 28.7237 4.38379 25.9681 4.38379 20.4573Z" stroke="white" stroke-width="2.19193"/>
<path d="M16.5613 15.5871C18.103 17.1286 20.1335 18.6952 20.1335 18.6952L22.9168 15.9118C22.9168 15.9118 21.3503 13.8813 19.8088 12.3397C18.2671 10.7982 16.2366 9.2316 16.2366 9.2316L13.4533 12.015C13.4533 12.015 15.0198 14.0455 16.5613 15.5871ZM16.5613 15.5871L11.6904 20.458M23.3807 15.4478L19.6695 19.1591M16.7006 8.7677L12.9894 12.4789" stroke="white" stroke-width="2.19193" stroke-linecap="round" stroke-linejoin="round"/>
<path d="M11.6904 26.3027H23.3807" stroke="white" stroke-width="2.19193" stroke-linecap="round"/>
</svg>
