<svg width="27" height="27" viewBox="0 0 27 27" fill="none" xmlns="http://www.w3.org/2000/svg">
<path d="M2.24609 13.4737C2.24609 9.23929 2.24609 7.12212 3.56154 5.80666C4.877 4.49121 6.99418 4.49121 11.2285 4.49121H15.7198C19.9541 4.49121 22.0714 4.49121 23.3868 5.80666C24.7022 7.12212 24.7022 9.23929 24.7022 13.4737C24.7022 17.708 24.7022 19.8253 23.3868 21.1406C22.0714 22.4561 19.9541 22.4561 15.7198 22.4561H11.2285C6.99418 22.4561 4.877 22.4561 3.56154 21.1406C2.24609 19.8253 2.24609 17.708 2.24609 13.4737Z" stroke="white" stroke-width="1.68421" stroke-linecap="round" stroke-linejoin="round"/>
<path d="M10.1055 14.0351C8.55522 14.0351 7.29847 12.7783 7.29847 11.228C7.29847 9.67777 8.55522 8.42102 10.1055 8.42102C11.6557 8.42102 12.9125 9.67777 12.9125 11.228C12.9125 12.7783 11.6557 14.0351 10.1055 14.0351ZM10.1055 14.0351C12.5859 14.0351 14.5967 16.0459 14.5967 18.5263M10.1055 14.0351C7.62505 14.0351 5.61426 16.0459 5.61426 18.5263" stroke="white" stroke-width="1.68421" stroke-linecap="round" stroke-linejoin="round"/>
<path d="M16.8418 10.1055H21.333" stroke="white" stroke-width="1.68421" stroke-linecap="round" stroke-linejoin="round"/>
<path d="M16.8418 13.4736H21.333" stroke="white" stroke-width="1.68421" stroke-linecap="round" stroke-linejoin="round"/>
</svg>
