<svg width="27" height="27" viewBox="0 0 27 27" fill="none" xmlns="http://www.w3.org/2000/svg">
<path d="M12.3587 23.5793H10.7856C6.76001 23.5793 4.74725 23.5793 3.49667 22.3049C2.24609 21.0306 2.24609 18.9796 2.24609 14.8775C2.24609 10.7755 2.24609 8.72446 3.49667 7.45012C4.74725 6.17578 6.76001 6.17578 10.7856 6.17578H15.0553C19.0808 6.17578 21.0936 6.17578 22.3442 7.45012C23.3064 8.43059 23.5282 9.87083 23.5794 12.3512" stroke="white" stroke-width="1.68421" stroke-linecap="round"/>
<path d="M19.2125 14.8829C19.4198 14.6919 19.5234 14.5964 19.6493 14.5964C19.7752 14.5964 19.8788 14.6919 20.0861 14.8829L20.8863 15.6201C20.983 15.7091 21.0312 15.7537 21.0913 15.7757C21.1514 15.7978 21.2171 15.7953 21.3484 15.7901L22.4296 15.7476C22.7079 15.7366 22.8471 15.7313 22.9426 15.8114C23.038 15.8916 23.0566 16.0297 23.0937 16.3058L23.2427 17.4121C23.2599 17.54 23.2685 17.6039 23.2996 17.6584C23.3309 17.713 23.3815 17.7529 23.4829 17.8327L24.3536 18.5182C24.5691 18.6878 24.6769 18.7726 24.6982 18.8939C24.7195 19.0151 24.6472 19.1316 24.5026 19.3647L23.912 20.3164C23.8444 20.4253 23.8107 20.4797 23.8 20.5412C23.7892 20.6027 23.8025 20.6654 23.8293 20.7907L24.0636 21.8893C24.1211 22.1592 24.1499 22.2942 24.0881 22.4014C24.0263 22.5085 23.8951 22.5513 23.6327 22.6367L22.5933 22.9753C22.4694 23.0156 22.4075 23.0358 22.3591 23.0768C22.3107 23.1179 22.2807 23.1757 22.2207 23.2913L21.713 24.2699C21.5835 24.5192 21.5189 24.6439 21.401 24.6869C21.2831 24.7299 21.1533 24.6761 20.8938 24.5684L19.8963 24.1547C19.7744 24.1041 19.7135 24.0789 19.6493 24.0789C19.5851 24.0789 19.5242 24.1041 19.4023 24.1547L18.4048 24.5684C18.1453 24.6761 18.0155 24.7299 17.8976 24.6869C17.7797 24.6439 17.715 24.5192 17.5856 24.2699L17.0778 23.2913C17.0179 23.1757 16.9879 23.1179 16.9395 23.0768C16.8911 23.0358 16.8291 23.0156 16.7053 22.9753L15.6659 22.6367C15.4035 22.5513 15.2722 22.5085 15.2105 22.4014C15.1486 22.2942 15.1775 22.1592 15.235 21.8893L15.4693 20.7907C15.496 20.6654 15.5094 20.6027 15.4986 20.5412C15.4878 20.4797 15.4541 20.4253 15.3865 20.3164L14.7959 19.3647C14.6513 19.1316 14.579 19.0151 14.6004 18.8939C14.6217 18.7726 14.7295 18.6878 14.9449 18.5182L15.8157 17.8327C15.9171 17.7529 15.9677 17.713 15.9989 17.6584C16.03 17.6039 16.0387 17.54 16.0559 17.4121L16.2048 16.3058C16.242 16.0297 16.2605 15.8916 16.356 15.8114C16.4514 15.7313 16.5906 15.7366 16.869 15.7476L17.9501 15.7901C18.0815 15.7953 18.1472 15.7978 18.2073 15.7757C18.2673 15.7537 18.3156 15.7091 18.4123 15.6201L19.2125 14.8829Z" stroke="white" stroke-width="1.68421"/>
<path d="M17.9647 6.17592L17.8531 5.8289C17.2973 4.09972 17.0194 3.23514 16.3577 2.74061C15.6962 2.24609 14.8173 2.24609 13.0597 2.24609H12.7643C11.0066 2.24609 10.1278 2.24609 9.46624 2.74061C8.80462 3.23514 8.52672 4.09972 7.97091 5.8289L7.85938 6.17592" stroke="white" stroke-width="1.68421"/>
</svg>
