<svg width="36" height="36" viewBox="0 0 36 36" fill="none" xmlns="http://www.w3.org/2000/svg">
<path d="M4.38379 5.84445C4.38379 3.4265 4.88842 2.92188 7.30636 2.92188H13.1515C15.5695 2.92188 16.0741 3.4265 16.0741 5.84445C16.0741 8.2624 15.5695 8.76702 13.1515 8.76702H7.30636C4.88842 8.76702 4.38379 8.2624 4.38379 5.84445Z" stroke="white" stroke-width="2.19193"/>
<path d="M18.9971 18.9968C18.9971 16.5788 19.5017 16.0742 21.9196 16.0742H27.7648C30.1828 16.0742 30.6874 16.5788 30.6874 18.9968C30.6874 21.4148 30.1828 21.9194 27.7648 21.9194H21.9196C19.5017 21.9194 18.9971 21.4148 18.9971 18.9968Z" stroke="white" stroke-width="2.19193"/>
<path d="M5.84473 29.2253C5.84473 26.8073 6.34935 26.3027 8.7673 26.3027H14.6124C17.0304 26.3027 17.535 26.8073 17.535 29.2253C17.535 31.6433 17.0304 32.1479 14.6124 32.1479H8.7673C6.34935 32.1479 5.84473 31.6433 5.84473 29.2253Z" stroke="white" stroke-width="2.19193"/>
<path d="M24.8424 16.074C24.8424 15.395 24.8424 15.0555 24.7862 14.7732C24.5557 13.6138 23.6494 12.7076 22.49 12.477C22.2077 12.4208 21.8682 12.4208 21.1891 12.4208H13.8827C13.2037 12.4208 12.8642 12.4208 12.5819 12.3646C11.4225 12.134 10.5163 11.2277 10.2856 10.0684C10.2295 9.78607 10.2295 9.44658 10.2295 8.76758" stroke="white" stroke-width="2.19193" stroke-linecap="round" stroke-linejoin="round"/>
<path d="M24.8416 21.918V23.3793C24.8416 26.1347 24.8416 27.5124 23.9856 28.3684C23.1295 29.2244 21.7518 29.2244 18.9964 29.2244H17.5352" stroke="white" stroke-width="2.19193" stroke-linecap="round" stroke-linejoin="round"/>
</svg>
