<svg width="27" height="27" viewBox="0 0 27 27" fill="none" xmlns="http://www.w3.org/2000/svg">
<path d="M16.8203 7.87714C16.8203 7.87714 17.3817 8.43855 17.9431 9.56135C17.9431 9.56135 19.7264 6.75434 21.3115 6.19293" stroke="white" stroke-width="1.68421" stroke-linecap="round" stroke-linejoin="round"/>
<path d="M11.2228 2.26957C8.41747 2.1508 6.25016 2.47397 6.25016 2.47397C4.88163 2.57182 2.25896 3.33906 2.25898 7.81983C2.25901 12.2625 2.22997 17.7396 2.25898 19.923C2.25898 21.257 3.08494 24.3686 5.94379 24.5354C9.4187 24.7381 15.6779 24.7812 18.5497 24.5354C19.3185 24.492 21.878 23.8885 22.2019 21.1038C22.5375 18.219 22.4707 16.2141 22.4707 15.7369" stroke="white" stroke-width="1.68421" stroke-linecap="round" stroke-linejoin="round"/>
<path d="M24.7037 7.8771C24.7037 10.9776 22.1878 13.4912 19.0843 13.4912C15.9807 13.4912 13.4648 10.9776 13.4648 7.8771C13.4648 4.77655 15.9807 2.26306 19.0843 2.26306C22.1878 2.26306 24.7037 4.77655 24.7037 7.8771Z" stroke="white" stroke-width="1.68421" stroke-linecap="round"/>
<path d="M7.83594 14.614H12.3271" stroke="white" stroke-width="1.68421" stroke-linecap="round"/>
<path d="M7.83594 19.1053H16.8184" stroke="white" stroke-width="1.68421" stroke-linecap="round"/>
</svg>
