<svg width="27" height="27" viewBox="0 0 27 27" fill="none" xmlns="http://www.w3.org/2000/svg">
<path d="M18.4585 23.9694L19.0785 23.1945C19.6233 22.5135 20.7802 22.5684 21.2405 23.2969C21.794 24.1734 23.1614 23.9992 23.5406 23.1929C23.5603 23.151 23.5109 23.2559 23.5531 22.8931C23.5952 22.5303 23.5777 22.4475 23.5426 22.2819L21.3833 12.086C20.8407 9.52357 20.5693 8.24234 19.6359 7.48958C18.7026 6.73682 17.3852 6.73682 14.7507 6.73682H12.1942C9.55966 6.73682 8.24235 6.73682 7.30898 7.48958C6.3756 8.24234 6.10427 9.52357 5.56159 12.086L3.40233 22.2819C3.36723 22.4475 3.34968 22.5303 3.39182 22.8931C3.43395 23.2559 3.38464 23.151 3.40435 23.1929C3.78357 23.9992 5.15083 24.1734 5.70448 23.2969C6.16468 22.5684 7.32157 22.5135 7.86638 23.1945L8.48645 23.9694C9.2677 24.9458 10.8992 24.9458 11.6805 23.9694L11.7779 23.8475C12.6069 22.8115 14.338 22.8115 15.167 23.8475L15.2645 23.9694C16.0457 24.9458 17.6773 24.9458 18.4585 23.9694Z" stroke="white" stroke-width="1.68421" stroke-linejoin="round"/>
<path d="M2.78882 10.6667C2.13163 9.98398 2.25535 9.10476 2.25535 6.90723C2.25535 4.70972 2.25535 3.61096 2.91254 2.92828C3.56973 2.24561 4.62746 2.24561 6.74291 2.24561H20.2056C22.321 2.24561 23.3788 2.24561 24.036 2.92828C24.6931 3.61096 24.6931 4.70972 24.6931 6.90723C24.6931 9.10476 24.8161 9.98398 24.1589 10.6667" stroke="white" stroke-width="1.68421" stroke-linecap="round"/>
<path d="M13.4739 11.2281H10.1055" stroke="white" stroke-width="1.68421" stroke-linecap="round" stroke-linejoin="round"/>
<path d="M15.7212 15.7193H8.98438" stroke="white" stroke-width="1.68421" stroke-linecap="round" stroke-linejoin="round"/>
</svg>
