<svg width="27" height="27" viewBox="0 0 27 27" fill="none" xmlns="http://www.w3.org/2000/svg">
<path d="M12.3587 23.5791H10.7856C6.76001 23.5791 4.74725 23.5791 3.49667 22.3048C2.24609 21.0304 2.24609 18.9794 2.24609 14.8773C2.24609 10.7753 2.24609 8.72428 3.49667 7.44994C4.74725 6.1756 6.76001 6.1756 10.7856 6.1756H15.0553C19.0808 6.1756 21.0936 6.1756 22.3442 7.44994C23.3064 8.43041 23.5282 9.87064 23.5794 12.351" stroke="white" stroke-width="1.68421" stroke-linecap="round"/>
<path d="M22.4746 22.4823L24.7012 24.7018M23.6379 19.6789C23.6379 17.4921 21.8651 15.7193 19.6783 15.7193C17.4914 15.7193 15.7188 17.4921 15.7188 19.6789C15.7188 21.8658 17.4914 23.6386 19.6783 23.6386C21.8651 23.6386 23.6379 21.8658 23.6379 19.6789Z" stroke="white" stroke-width="1.68421" stroke-linecap="round" stroke-linejoin="round"/>
<path d="M17.9647 6.17543L17.8531 5.82842C17.2973 4.09924 17.0194 3.23465 16.3577 2.74012C15.6962 2.24561 14.8173 2.24561 13.0597 2.24561H12.7643C11.0066 2.24561 10.1278 2.24561 9.46624 2.74012C8.80462 3.23465 8.52672 4.09924 7.97091 5.82842L7.85938 6.17543" stroke="white" stroke-width="1.68421"/>
</svg>
