<svg width="27" height="27" viewBox="0 0 27 27" fill="none" xmlns="http://www.w3.org/2000/svg">
<path d="M19.3668 3.36841V11.7895M23.5773 7.57893H15.1562" stroke="white" stroke-width="1.68421" stroke-linecap="round" stroke-linejoin="round"/>
<path d="M15.3699 21.8461C15.1562 21.3303 15.1563 20.6764 15.1563 19.3684C15.1563 18.0605 15.1562 17.4065 15.3699 16.8907C15.6548 16.2029 16.2012 15.6564 16.8891 15.3716C17.4049 15.1579 18.0588 15.1579 19.3668 15.1579C20.6747 15.1579 21.3287 15.1579 21.8445 15.3716C22.5323 15.6564 23.0788 16.2029 23.3636 16.8907C23.5773 17.4065 23.5773 18.0605 23.5773 19.3684C23.5773 20.6764 23.5773 21.3303 23.3636 21.8461C23.0788 22.534 22.5323 23.0804 21.8445 23.3653C21.3287 23.579 20.6747 23.579 19.3668 23.579C18.0588 23.579 17.4049 23.579 16.8891 23.3653C16.2012 23.0804 15.6548 22.534 15.3699 21.8461Z" stroke="white" stroke-width="1.68421" stroke-linecap="round" stroke-linejoin="round"/>
<path d="M3.58086 21.8461C3.36719 21.3303 3.36719 20.6764 3.36719 19.3684C3.36719 18.0605 3.36719 17.4065 3.58086 16.8907C3.86576 16.2029 4.41221 15.6564 5.1 15.3716C5.61586 15.1579 6.26981 15.1579 7.57771 15.1579C8.88562 15.1579 9.53957 15.1579 10.0554 15.3716C10.7432 15.6564 11.2897 16.2029 11.5746 16.8907C11.7882 17.4065 11.7882 18.0605 11.7882 19.3684C11.7882 20.6764 11.7882 21.3303 11.5746 21.8461C11.2897 22.534 10.7432 23.0804 10.0554 23.3653C9.53957 23.579 8.88562 23.579 7.57771 23.579C6.26981 23.579 5.61586 23.579 5.1 23.3653C4.41221 23.0804 3.86576 22.534 3.58086 21.8461Z" stroke="white" stroke-width="1.68421" stroke-linecap="round" stroke-linejoin="round"/>
<path d="M3.58086 10.0566C3.36719 9.54079 3.36719 8.88684 3.36719 7.57893C3.36719 6.27103 3.36719 5.61708 3.58086 5.10123C3.86576 4.41343 4.41221 3.86698 5.1 3.58208C5.61586 3.36841 6.26981 3.36841 7.57771 3.36841C8.88562 3.36841 9.53957 3.36841 10.0554 3.58208C10.7432 3.86698 11.2897 4.41343 11.5746 5.10123C11.7882 5.61708 11.7882 6.27103 11.7882 7.57893C11.7882 8.88684 11.7882 9.54079 11.5746 10.0566C11.2897 10.7444 10.7432 11.2909 10.0554 11.5758C9.53957 11.7895 8.88562 11.7895 7.57771 11.7895C6.26981 11.7895 5.61586 11.7895 5.1 11.5758C4.41221 11.2909 3.86576 10.7444 3.58086 10.0566Z" stroke="white" stroke-width="1.68421" stroke-linecap="round" stroke-linejoin="round"/>
</svg>
