<svg width="28" height="28" viewBox="0 0 28 28" fill="none" xmlns="http://www.w3.org/2000/svg">
<path d="M21.7733 4.06735C19.5711 2.97166 16.8764 2.32715 13.9659 2.32715C11.0555 2.32715 8.36074 2.97166 6.15853 4.06735C5.07859 4.60468 4.53862 4.87334 4.01541 5.71806C3.49219 6.56279 3.49219 7.38071 3.49219 9.01655V13.0768C3.49219 19.6909 8.77836 23.3682 11.8398 24.9432C12.6936 25.3825 13.1205 25.6021 13.9659 25.6021C14.8114 25.6021 15.2383 25.3825 16.092 24.9432C19.1535 23.3682 24.4397 19.6909 24.4397 13.0768V9.01655C24.4397 7.38072 24.4397 6.5628 23.9165 5.71806C23.3932 4.87333 22.8533 4.60468 21.7733 4.06735Z" stroke="#48484F" stroke-width="1.74563" stroke-linecap="round" stroke-linejoin="round"/>
</svg>
