<svg width="28" height="28" viewBox="0 0 28 28" fill="none" xmlns="http://www.w3.org/2000/svg">
<path d="M14.777 4.07227H13.1543C12.3227 4.07227 11.9069 4.07227 11.534 4.20261C11.3062 4.28219 11.0923 4.39671 10.8997 4.54204C10.5844 4.78001 10.3538 5.12597 9.8925 5.81789C9.65626 6.17228 9.30802 6.69462 9.16922 6.84049C8.8253 7.2019 8.37433 7.44325 7.88283 7.52894C7.68447 7.56352 7.47152 7.56352 7.04561 7.56352C5.90504 7.56352 5.33477 7.56352 4.86846 7.69551C3.702 8.02571 2.79032 8.93738 2.46012 10.1039C2.32813 10.5701 2.32812 11.1404 2.32812 12.281V16.8735C2.32812 20.1651 2.32812 21.8108 3.35069 22.8334C4.37325 23.856 6.01905 23.856 9.31063 23.856H18.6206C21.9122 23.856 23.558 23.856 24.5806 22.8334C25.6032 21.8108 25.6032 20.1651 25.6032 16.8735V12.281C25.6032 11.1404 25.6032 10.5701 25.4712 10.1039C25.1409 8.93738 24.2292 8.02571 23.0628 7.69551C22.5965 7.56352 22.0262 7.56352 20.8857 7.56352C20.4597 7.56352 20.2468 7.56352 20.0485 7.52894C19.5569 7.44325 19.1059 7.2019 18.762 6.84049C18.6232 6.69461 18.275 6.17226 18.0388 5.81789C17.5775 5.12597 17.3468 4.78001 17.0315 4.54204C16.8389 4.39671 16.625 4.28219 16.3973 4.20261C16.0244 4.07227 15.6086 4.07227 14.777 4.07227Z" stroke="#48484F" stroke-width="1.74563" stroke-linecap="round" stroke-linejoin="round"/>
<path d="M18.6225 15.1286C18.6225 17.6995 16.5384 19.7836 13.9675 19.7836C11.3966 19.7836 9.3125 17.6995 9.3125 15.1286C9.3125 12.5578 11.3966 10.4736 13.9675 10.4736C16.5384 10.4736 18.6225 12.5578 18.6225 15.1286Z" stroke="#48484F" stroke-width="1.74563" stroke-linecap="round" stroke-linejoin="round"/>
<path d="M22.2567 11.0556H22.1113M22.4022 11.0556C22.4022 11.2163 22.272 11.3465 22.1113 11.3465C21.9505 11.3465 21.8203 11.2163 21.8203 11.0556C21.8203 10.8949 21.9505 10.7646 22.1113 10.7646C22.272 10.7646 22.4022 10.8949 22.4022 11.0556Z" stroke="#48484F" stroke-width="1.74563" stroke-linecap="round"/>
</svg>
