<svg width="28" height="28" viewBox="0 0 28 28" fill="none" xmlns="http://www.w3.org/2000/svg">
<path d="M15.9761 4.00781L18.0241 8.13761C18.3034 8.71249 19.0481 9.26391 19.6765 9.3695L23.3884 9.99131C25.7622 10.3902 26.3208 12.1266 24.6102 13.8395L21.7245 16.7491C21.2357 17.2419 20.9681 18.1922 21.1193 18.8728L21.9456 22.4746C22.5972 25.3255 21.096 26.4284 18.5943 24.9383L15.1151 22.8617C14.4868 22.4863 13.4511 22.4863 12.8111 22.8617L9.33189 24.9383C6.84173 26.4284 5.32903 25.3138 5.98066 22.4746L6.80683 18.8728C6.95809 18.1922 6.69046 17.2419 6.20174 16.7491L3.31596 13.8395C1.61707 12.1266 2.16398 10.3902 4.53776 9.99131L8.24971 9.3695C8.86643 9.26391 9.61115 8.71249 9.89042 8.13761L11.9384 4.00781C13.0555 1.76693 14.8707 1.76693 15.9761 4.00781Z" stroke="#48484F" stroke-width="1.74563" stroke-linecap="round" stroke-linejoin="round"/>
</svg>
