<svg width="28" height="28" viewBox="0 0 28 28" fill="none" xmlns="http://www.w3.org/2000/svg">
<path d="M6.58394 12.804L4.8728 16.6541C2.71396 21.5115 1.63454 23.9401 2.81264 25.1183C3.99072 26.2963 6.41941 25.2169 11.2768 23.0581L15.1269 21.3469C18.0565 20.0449 19.5213 19.3938 19.7544 18.1384C19.9875 16.8831 18.854 15.7496 16.5871 13.4827L14.4482 11.3438C12.1812 9.07683 11.0477 7.94336 9.79238 8.17645C8.53703 8.40954 7.886 9.87436 6.58394 12.804Z" stroke="#48484F" stroke-width="1.74563" stroke-linecap="round" stroke-linejoin="round"/>
<path d="M7.56578 12.2196L15.7121 20.3659M5.23828 18.0384L9.89328 22.6934" stroke="#48484F" stroke-width="1.74563" stroke-linecap="round" stroke-linejoin="round"/>
<path d="M18.6172 9.30961L22.1084 5.81836" stroke="#48484F" stroke-width="1.74563" stroke-linecap="round" stroke-linejoin="round"/>
<path d="M25.4598 6.98234H25.3144M25.6053 6.98234C25.6053 7.14302 25.475 7.27328 25.3144 7.27328C25.1537 7.27328 25.0234 7.14302 25.0234 6.98234C25.0234 6.82166 25.1537 6.69141 25.3144 6.69141C25.475 6.69141 25.6053 6.82166 25.6053 6.98234Z" stroke="#48484F" stroke-width="1.74563" stroke-linecap="round" stroke-linejoin="round"/>
<path d="M24.2919 15.4198H24.1464M24.4373 15.4198C24.4373 15.5806 24.307 15.7108 24.1464 15.7108C23.9857 15.7108 23.8555 15.5806 23.8555 15.4198C23.8555 15.2591 23.9857 15.1289 24.1464 15.1289C24.307 15.1289 24.4373 15.2591 24.4373 15.4198Z" stroke="#48484F" stroke-width="1.74563" stroke-linecap="round" stroke-linejoin="round"/>
<path d="M21.0927 2.61809H20.9472M21.2381 2.61809C21.2381 2.77876 21.1078 2.90902 20.9472 2.90902C20.7865 2.90902 20.6562 2.77876 20.6562 2.61809C20.6562 2.45741 20.7865 2.32715 20.9472 2.32715C21.1078 2.32715 21.2381 2.45741 21.2381 2.61809Z" stroke="#48484F" stroke-width="1.74563" stroke-linecap="round" stroke-linejoin="round"/>
<path d="M12.9442 3.78215H12.7988M13.0897 3.78215C13.0897 3.94283 12.9593 4.07309 12.7988 4.07309C12.638 4.07309 12.5078 3.94283 12.5078 3.78215C12.5078 3.62147 12.638 3.49121 12.7988 3.49121C12.9593 3.49121 13.0897 3.62147 13.0897 3.78215Z" stroke="#48484F" stroke-width="1.74563" stroke-linecap="round" stroke-linejoin="round"/>
<path d="M16.5221 2.32715C16.9866 3.10299 17.3582 5.12015 15.1289 6.98215" stroke="#48484F" stroke-width="1.74563" stroke-linecap="round" stroke-linejoin="round"/>
<path d="M25.6042 11.4082C24.8283 10.9437 22.8112 10.5722 20.9492 12.8015" stroke="#48484F" stroke-width="1.74563" stroke-linecap="round" stroke-linejoin="round"/>
</svg>
