<svg width="410" height="339" viewBox="0 0 410 339" fill="none" xmlns="http://www.w3.org/2000/svg">
<g clip-path="url(#clip0_493_54)">
<path d="M29.7448 329.089H12.6388L9.57565 338.296H0L16.2128 292.513H26.6173L42.4466 338.296H32.7449L29.7448 329.089ZM27.1913 321.224L21.2555 303.32L15.2553 321.224H27.1913Z" fill="#1161A5"/>
<path d="M86.2942 307.796H77.3583C76.124 302.511 72.8677 299.866 67.5922 299.866C63.6346 299.866 60.592 301.445 58.4645 304.598C56.6343 307.37 55.7192 311.056 55.7192 315.661C55.7192 320.862 56.8686 324.826 59.1659 327.553C61.166 329.899 63.8675 331.071 67.2717 331.071C70.2074 331.071 72.5472 330.303 74.2924 328.769C76.0363 327.235 77.0583 325.039 77.3556 322.183H86.4832C86.1846 327.725 84.0571 332.009 80.1008 335.035C76.6966 337.678 72.3348 339 67.0155 339C60.2071 339 54.9302 336.614 51.1862 331.839C47.9519 327.704 46.3354 322.248 46.3354 315.47C46.3354 307.712 48.4629 301.701 52.7178 297.439C56.4193 293.688 61.2496 291.812 67.2073 291.812C74.2705 291.812 79.6104 294.178 83.2283 298.91C85.0161 301.255 86.0367 304.217 86.2915 307.797L86.2942 307.796Z" fill="#1161A5"/>
<path d="M131.557 307.796H122.621C121.386 302.511 118.13 299.866 112.855 299.866C108.897 299.866 105.854 301.445 103.727 304.598C101.897 307.37 100.982 311.056 100.982 315.661C100.982 320.862 102.131 324.826 104.428 327.553C106.428 329.899 109.13 331.071 112.534 331.071C115.47 331.071 117.81 330.303 119.555 328.769C121.299 327.235 122.321 325.039 122.618 322.183H131.746C131.447 327.725 129.32 332.009 125.363 335.035C121.959 337.678 117.597 339 112.278 339C105.469 339 100.193 336.614 96.4486 331.839C93.2143 327.704 91.5978 322.248 91.5978 315.47C91.5978 307.712 93.7252 301.701 97.9802 297.439C101.682 293.688 106.512 291.812 112.47 291.812C119.533 291.812 124.873 294.178 128.491 298.91C130.278 301.255 131.299 304.217 131.554 307.797L131.557 307.796Z" fill="#1161A5"/>
<path d="M165.696 292.515H175.143V322.823C175.143 327.81 173.652 331.647 170.674 334.333C167.27 337.445 162.716 339 157.015 339C151.313 339 146.759 337.445 143.355 334.333C140.376 331.647 138.887 327.81 138.887 322.823V292.515H148.269V322.823C148.269 328.237 151.183 330.943 157.013 330.943C162.844 330.943 165.694 328.237 165.694 322.823V292.515H165.696Z" fill="#1161A5"/>
<path d="M193.847 320.137V338.297H184.464V292.515H208.974C212.846 292.515 215.805 293.56 217.847 295.648C220.145 297.993 221.294 301.082 221.294 304.919C221.294 310.461 218.698 314.233 213.508 316.237C216.443 317.388 218.231 318.817 218.869 320.521C219.336 321.758 219.678 325.872 219.891 332.863C219.934 334.611 220.593 335.848 221.869 336.571V338.297H211.784C210.847 336.55 210.38 333.972 210.38 330.56C210.38 329.708 210.401 328.663 210.443 327.427V325.573C210.443 321.95 208.506 320.138 204.635 320.138H193.848L193.847 320.137ZM193.847 312.272H205.209C207.591 312.272 209.251 311.888 210.187 311.121C211.336 310.141 211.91 308.522 211.91 306.261C211.91 304.001 211.336 302.531 210.187 301.594C209.207 300.784 207.548 300.379 205.209 300.379H193.847V312.272Z" fill="#1161A5"/>
<path d="M256.142 329.089H239.036L235.972 338.296H226.398L242.61 292.513H253.015L268.844 338.296H259.142L256.142 329.089ZM253.59 321.224L247.654 303.32L241.654 321.224H253.59Z" fill="#1161A5"/>
<path d="M312.69 307.796H303.754C302.52 302.511 299.264 299.866 293.988 299.866C290.03 299.866 286.988 301.445 284.86 304.598C283.03 307.37 282.115 311.056 282.115 315.661C282.115 320.862 283.265 324.826 285.562 327.553C287.562 329.899 290.263 331.071 293.668 331.071C296.603 331.071 298.943 330.303 300.688 328.769C302.432 327.235 303.454 325.039 303.753 322.183H312.881C312.582 327.725 310.454 332.009 306.498 335.035C303.093 337.678 298.732 339 293.413 339C286.604 339 281.327 336.614 277.583 331.839C274.349 327.704 272.733 322.248 272.733 315.47C272.733 307.712 274.86 301.701 279.115 297.439C282.817 293.688 287.647 291.812 293.605 291.812C300.668 291.812 306.008 294.178 309.626 298.91C311.413 301.255 312.434 304.217 312.689 307.797L312.69 307.796Z" fill="#FA8C3D"/>
<path d="M346.659 329.089H329.553L326.488 338.296H316.914L333.127 292.513H343.531L359.36 338.296H349.659L346.659 329.089ZM344.105 321.224L338.169 303.32L332.169 321.224H344.105Z" fill="#FA8C3D"/>
<path d="M374.667 302.681V338.297H365.285V292.515H379.328L387.625 328.961L395.604 292.515H409.774V338.297H400.391V302.681L392.286 338.297H382.903L374.669 302.681H374.667Z" fill="#FA8C3D"/>
<path d="M340.728 267.684H317.763C314.737 267.684 312.283 265.226 312.283 262.194C312.283 259.163 314.737 256.705 317.763 256.705H340.728C346.191 256.705 350.635 252.253 350.635 246.78V20.9035C350.635 15.4306 346.191 10.9787 340.728 10.9787H69.092C63.6288 10.9787 59.1848 15.4306 59.1848 20.9035V246.78C59.1848 252.253 63.6288 256.705 69.092 256.705H92.0571C95.0832 256.705 97.5367 259.163 97.5367 262.194C97.5367 265.226 95.0832 267.684 92.0571 267.684H69.092C57.5862 267.684 48.2256 258.306 48.2256 246.78V20.9035C48.2256 9.37721 57.5862 0 69.092 0H340.728C352.234 0 361.594 9.37721 361.594 20.9035V246.78C361.594 258.306 352.234 267.684 340.728 267.684Z" fill="#1161A5"/>
<path d="M204.923 31.5156C147.418 31.5156 100.802 78.2151 100.802 135.822C100.802 193.429 147.418 240.128 204.923 240.128C262.428 240.128 309.044 193.429 309.044 135.822C309.044 78.2151 262.426 31.5156 204.923 31.5156ZM241.942 171.014L212.758 188.141C207.342 191.319 200.648 191.371 195.184 188.277L166.057 171.787C160.546 168.666 157.13 162.825 157.108 156.484L156.991 122.968C156.969 116.682 160.289 110.858 165.704 107.679L194.888 90.5524C200.304 87.3741 206.998 87.3219 212.462 90.4165L241.589 106.907C247.1 110.027 250.516 115.868 250.538 122.21L250.655 155.725C250.677 162.012 247.357 167.836 241.942 171.014Z" fill="#FA8C3D"/>
<mask id="mask0_493_54" style="mask-type:luminance" maskUnits="userSpaceOnUse" x="100" y="31" width="210" height="210">
<path d="M204.923 31.5156C147.418 31.5156 100.802 78.2151 100.802 135.822C100.802 193.429 147.418 240.128 204.923 240.128C262.428 240.128 309.044 193.429 309.044 135.822C309.044 78.2151 262.426 31.5156 204.923 31.5156ZM241.942 171.014L212.758 188.141C207.342 191.319 200.648 191.371 195.184 188.277L166.057 171.787C160.546 168.666 157.13 162.825 157.108 156.484L156.991 122.968C156.969 116.682 160.289 110.858 165.704 107.679L194.888 90.5524C200.304 87.3741 206.998 87.3219 212.462 90.4165L241.589 106.907C247.1 110.027 250.516 115.868 250.538 122.21L250.655 155.725C250.677 162.012 247.357 167.836 241.942 171.014Z" fill="white"/>
</mask>
<g mask="url(#mask0_493_54)">
<path d="M157.085 150.341C157.063 150.167 153.06 123.793 153.201 100.215C153.285 86.3611 154.123 73.1647 155.695 60.992C157.663 45.7398 160.796 32.0521 165.004 20.3103L168.214 21.4644C158.863 47.5527 156.742 78.6733 156.611 100.185C156.467 123.553 159.332 142.066 159.352 142.239L157.084 150.34L157.085 150.341Z" fill="#BB4806"/>
<path d="M171.55 105.878L161.21 111.443C161.34 111.31 181.586 89.7507 202.653 74.0813C215.025 64.8798 227.708 56.6814 240.35 49.714C256.172 40.9955 271.975 34.1901 287.322 29.4871L288.319 32.7546C254.048 43.2558 223.923 62.5166 204.686 76.8246C183.835 92.3335 171.677 105.747 171.55 105.878Z" fill="#BB4806"/>
<path d="M319.886 145.551C301.67 122.891 274.907 110.17 255.663 103.486C234.764 96.2294 218.027 94.3397 217.86 94.3219L211.07 89.7108C211.24 89.73 235.521 92.8754 256.779 100.259C269.274 104.598 280.754 109.946 290.898 116.156C303.616 123.941 314.262 133.11 322.542 143.409L319.886 145.553V145.551Z" fill="#BB4806"/>
<path d="M270.783 232.299C269.977 201.206 263.337 173.199 257.91 155.179C252.022 135.631 246.249 123.289 246.192 123.166L249.277 121.707C249.336 121.832 255.195 134.351 261.154 154.121C264.651 165.722 267.505 177.53 269.634 189.215C272.297 203.829 273.831 218.295 274.191 232.208L270.782 232.297L270.783 232.299Z" fill="#BB4806"/>
<path d="M183.415 250.634L181.627 247.725C193.926 240.143 207.125 224.954 219.797 203.8C229.418 187.74 235.385 173.816 235.444 173.677L239.925 172.193C239.864 172.334 232.46 189.299 222.72 205.558C216.99 215.123 211.121 223.551 205.276 230.608C197.918 239.489 190.563 246.228 183.413 250.634H183.415Z" fill="#BB4806"/>
<path d="M134.255 201.546C125.348 201.546 116.666 200.794 108.352 199.299L108.954 195.936C132.398 200.152 154.468 197.46 168.855 194.462C184.483 191.204 194.68 186.887 194.782 186.844L197.841 189.505C197.417 189.686 185.575 194.458 169.64 197.788C160.289 199.743 150.884 200.949 141.688 201.373C139.196 201.488 136.717 201.546 134.256 201.546H134.255Z" fill="#BB4806"/>
<path d="M170.425 174.262C170.314 174.18 148.45 160.054 134.881 147.699C126.907 140.438 119.671 133.219 113.373 126.242C105.479 117.497 99.0387 109.102 94.2344 101.292L97.1386 99.4996C107.786 116.806 124.772 133.874 137.147 145.145C150.595 157.393 162.198 164.737 162.309 164.818L170.425 174.262Z" fill="#BB4806"/>
</g>
<path d="M317.863 31.5156H270.815C262.399 31.5156 255.576 38.3504 255.576 46.7816V81.5636C255.576 89.9947 262.399 96.8295 270.815 96.8295H317.863C326.279 96.8295 333.102 89.9947 333.102 81.5636V46.7816C333.102 38.3504 326.279 31.5156 317.863 31.5156Z" fill="#1161A5"/>
<path d="M294.358 75.2388H279.938L277.356 83.0007H269.284L282.952 44.4064H291.722L305.066 83.0007H296.888L294.359 75.2388H294.358ZM292.206 68.609L287.201 53.516L282.144 68.609H292.206Z" fill="white"/>
<path d="M317.978 44.4064V83.0007H310.068V44.4064H317.978Z" fill="white"/>
</g>
<defs>
<clipPath id="clip0_493_54">
<rect width="409.78" height="339" fill="white"/>
</clipPath>
</defs>
</svg>
