<svg width="20" height="20" viewBox="0 0 20 20" fill="none" xmlns="http://www.w3.org/2000/svg">
<path d="M1.66797 9.16602C3.61105 7.13087 6.37066 7.03504 8.33464 9.16602M7.08054 3.74935C7.08054 4.89994 6.14648 5.83268 4.99424 5.83268C3.84201 5.83268 2.90794 4.89994 2.90794 3.74935C2.90794 2.59876 3.84201 1.66602 4.99424 1.66602C6.14648 1.66602 7.08054 2.59876 7.08054 3.74935Z" stroke="white" stroke-width="1.25" stroke-linecap="round"/>
<path d="M11.668 18.334C13.6111 16.2988 16.3706 16.203 18.3346 18.334M17.0806 12.9173C17.0806 14.0679 16.1465 15.0007 14.9942 15.0007C13.8421 15.0007 12.908 14.0679 12.908 12.9173C12.908 11.7667 13.8421 10.834 14.9942 10.834C16.1465 10.834 17.0806 11.7667 17.0806 12.9173Z" stroke="white" stroke-width="1.25" stroke-linecap="round"/>
<path d="M2.5 11.666C2.5 14.891 5.10833 17.4993 8.33333 17.4993L7.5 15.8327" stroke="white" stroke-width="1.25" stroke-linecap="round" stroke-linejoin="round"/>
<path d="M12.5 2.5H17.5M12.5 5H17.5M12.5 7.5H15.4167" stroke="white" stroke-width="1.25" stroke-linecap="round" stroke-linejoin="round"/>
</svg>
