<svg width="20" height="20" viewBox="0 0 20 20" fill="none" xmlns="http://www.w3.org/2000/svg">
<path d="M10.8304 5.83398H9.16695C6.77533 5.83398 5.16287 8.39157 6.10497 10.6907C6.23621 11.011 6.53731 11.2186 6.87047 11.2186H7.45628C7.65374 11.2186 7.82586 11.3592 7.87375 11.5595L8.62795 14.7146C8.7852 15.3725 9.35036 15.834 9.9987 15.834C10.647 15.834 11.2122 15.3725 11.3694 14.7146L12.1236 11.5595C12.1715 11.3592 12.3437 11.2186 12.5411 11.2186H13.1269C13.4601 11.2186 13.7612 11.011 13.8924 10.6907C14.8345 8.39157 13.222 5.83398 10.8304 5.83398Z" stroke="white" stroke-width="1.25"/>
<path d="M12.0846 3.74935C12.0846 4.89994 11.1519 5.83268 10.0013 5.83268C8.85072 5.83268 7.91797 4.89994 7.91797 3.74935C7.91797 2.59876 8.85072 1.66602 10.0013 1.66602C11.1519 1.66602 12.0846 2.59876 12.0846 3.74935Z" stroke="white" stroke-width="1.25"/>
<path d="M15.8346 15.834C15.8346 17.2147 13.223 18.334 10.0013 18.334C6.77964 18.334 4.16797 17.2147 4.16797 15.834" stroke="white" stroke-width="1.25" stroke-linecap="round"/>
</svg>
