<svg width="27" height="27" viewBox="0 0 27 27" fill="none" xmlns="http://www.w3.org/2000/svg">
<path d="M24.14 13.4733C24.14 19.3643 19.3643 24.14 13.4733 24.14C11.6453 24.14 9.92456 23.6801 8.42068 22.8697C6.32301 21.7394 4.91148 22.7902 3.66662 22.9788C3.47779 23.0074 3.28972 22.9388 3.15468 22.8038C2.9497 22.5988 2.91068 22.2818 3.0239 22.015C3.51249 20.8634 3.96111 18.6811 3.34942 16.8417C2.99729 15.7829 2.80664 14.6503 2.80664 13.4733C2.80664 7.58226 7.58226 2.80664 13.4733 2.80664C19.3643 2.80664 24.14 7.58226 24.14 13.4733Z" stroke="white" stroke-width="1.68421" stroke-linecap="round" stroke-linejoin="round"/>
<path d="M13.6142 13.4741H13.4739M9.12222 13.4741H8.98187M18.1047 13.4741H17.9643M13.7546 13.4741C13.7546 13.6291 13.6289 13.7548 13.4739 13.7548C13.3189 13.7548 13.1932 13.6291 13.1932 13.4741C13.1932 13.319 13.3189 13.1934 13.4739 13.1934C13.6289 13.1934 13.7546 13.319 13.7546 13.4741ZM9.26258 13.4741C9.26258 13.6291 9.1369 13.7548 8.98187 13.7548C8.82685 13.7548 8.70117 13.6291 8.70117 13.4741C8.70117 13.319 8.82685 13.1934 8.98187 13.1934C9.1369 13.1934 9.26258 13.319 9.26258 13.4741ZM18.245 13.4741C18.245 13.6291 18.1194 13.7548 17.9643 13.7548C17.8093 13.7548 17.6836 13.6291 17.6836 13.4741C17.6836 13.319 17.8093 13.1934 17.9643 13.1934C18.1194 13.1934 18.245 13.319 18.245 13.4741Z" stroke="white" stroke-width="1.68421" stroke-linecap="round" stroke-linejoin="round"/>
</svg>
