<svg width="27" height="27" viewBox="0 0 27 27" fill="none" xmlns="http://www.w3.org/2000/svg">
<path d="M14.257 3.92969H12.6914C11.889 3.92969 11.4878 3.92969 11.128 4.05544C10.9083 4.13223 10.7019 4.24271 10.5161 4.38293C10.2119 4.61253 9.98939 4.94632 9.54434 5.6139C9.31641 5.95582 8.98042 6.45979 8.8465 6.60052C8.51468 6.94922 8.07958 7.18208 7.60538 7.26475C7.41399 7.29811 7.20853 7.29811 6.79761 7.29811C5.69716 7.29811 5.14696 7.29811 4.69706 7.42546C3.57164 7.74404 2.69203 8.62364 2.37344 9.74907C2.24609 10.199 2.24609 10.7492 2.24609 11.8496V16.2806C2.24609 19.4563 2.24609 21.0442 3.23268 22.0308C4.21927 23.0174 5.80717 23.0174 8.98294 23.0174H17.9654C21.1412 23.0174 22.729 23.0174 23.7156 22.0308C24.7023 21.0442 24.7023 19.4563 24.7023 16.2806V11.8496C24.7023 10.7492 24.7023 10.199 24.5749 9.74907C24.2563 8.62364 23.3767 7.74404 22.2513 7.42546C21.8014 7.29811 21.2512 7.29811 20.1507 7.29811C19.7398 7.29811 19.5343 7.29811 19.343 7.26475C18.8687 7.18208 18.4336 6.94922 18.1018 6.60052C17.9679 6.45978 17.6319 5.9558 17.404 5.6139C16.9589 4.94632 16.7364 4.61253 16.4322 4.38293C16.2464 4.24271 16.04 4.13223 15.8203 4.05544C15.4605 3.92969 15.0594 3.92969 14.257 3.92969Z" stroke="white" stroke-width="1.68421" stroke-linecap="round" stroke-linejoin="round"/>
<path d="M17.9649 14.5965C17.9649 17.0768 15.9541 19.0877 13.4737 19.0877C10.9932 19.0877 8.98242 17.0768 8.98242 14.5965C8.98242 12.1161 10.9932 10.1052 13.4737 10.1052C15.9541 10.1052 17.9649 12.1161 17.9649 14.5965Z" stroke="white" stroke-width="1.68421" stroke-linecap="round" stroke-linejoin="round"/>
<path d="M21.4738 10.6674H21.3334M21.6141 10.6674C21.6141 10.8224 21.4885 10.9481 21.3334 10.9481C21.1784 10.9481 21.0527 10.8224 21.0527 10.6674C21.0527 10.5124 21.1784 10.3867 21.3334 10.3867C21.4885 10.3867 21.6141 10.5124 21.6141 10.6674Z" stroke="white" stroke-width="1.68421" stroke-linecap="round"/>
</svg>
